<svg width="12" height="8" viewBox="0 0 12 8" fill="none" xmlns="http://www.w3.org/2000/svg">
<path d="M5.94646 0.665861C6.05613 0.665227 6.16485 0.686248 6.26638 0.727718C6.36791 0.769189 6.46026 0.830293 6.53813 0.907527L11.5381 5.90753C11.695 6.06445 11.7832 6.27728 11.7832 6.49919C11.7832 6.72111 11.695 6.93394 11.5381 7.09086C11.3812 7.24778 11.1684 7.33594 10.9465 7.33594C10.7245 7.33594 10.5117 7.24778 10.3548 7.09086L5.94646 2.67419L1.53813 7.08253C1.37871 7.21905 1.17365 7.29039 0.963916 7.28229C0.754186 7.27419 0.555236 7.18724 0.406824 7.03883C0.258412 6.89042 0.17147 6.69147 0.163368 6.48174C0.155268 6.27201 0.226604 6.06695 0.363127 5.90753L5.36313 0.907527C5.51834 0.753574 5.72784 0.666781 5.94646 0.665861Z" fill="#5D5775"/>
</svg>
