<svg width="30" height="30" viewBox="0 0 30 30" fill="none" xmlns="http://www.w3.org/2000/svg">
<g clip-path="url(#clip0_2563_6631)">
<path d="M15.4537 18.6838C15.4537 16.3738 14.355 14.6663 12.085 14.0263C13.7413 13.2375 14.605 12.0425 14.605 10.1838C14.605 6.51875 11.865 5.625 8.70375 5.625H0V24.0263H8.9475C12.3025 24.0263 15.4537 22.4225 15.4537 18.6838ZM4.0575 8.76625H7.865C9.32875 8.76625 10.6462 9.17625 10.6462 10.8688C10.6462 12.4313 9.62125 13.06 8.17125 13.06H4.0575V8.76625ZM4.05625 20.9013V15.8338H8.47875C10.265 15.8338 11.395 16.5763 11.395 18.4613C11.395 20.32 10.0463 20.9013 8.395 20.9013H4.05625Z" fill="#5D5775"/>
<path d="M23.4962 24.3747C26.6887 24.3747 28.7562 22.9409 29.7512 19.8934H26.5112C26.1625 21.0309 24.725 21.6321 23.61 21.6321C21.4587 21.6321 20.3287 20.3759 20.3287 18.2409H29.97C30.275 13.9684 27.895 10.3271 23.495 10.3271C19.4212 10.3271 16.6562 13.3796 16.6562 17.3784C16.6562 21.5284 19.2762 24.3747 23.4962 24.3747ZM23.3813 13.0921C25.225 13.0921 26.1525 14.1721 26.3075 15.9384H20.3338C20.455 14.1871 21.6213 13.0921 23.3813 13.0921Z" fill="#5D5775"/>
<path d="M19.584 6.59082H27.069V8.40332H19.584V6.59082Z" fill="#5D5775"/>
</g>
<defs>
<clipPath id="clip0_2563_6631">
<rect width="30" height="30" fill="white"/>
</clipPath>
</defs>
</svg>
