<svg width="65" height="65" viewBox="0 0 65 65" fill="none" xmlns="http://www.w3.org/2000/svg">
<rect width="65" height="65" rx="5" fill="#FFF6FF"/>
<path d="M38.9907 24.2451C38.9938 23.6583 38.5305 23.1958 37.9448 23.16L36.3998 23.0656C35.828 23.0307 35.3228 23.4377 35.2503 24.0059C35.2158 24.2757 35.1842 24.5424 35.1545 24.8075C35.1377 24.9566 35.2437 25.0891 35.3921 25.1103C36.2368 25.2535 37.0915 25.3239 37.947 25.3213C38.5291 25.3195 38.9876 24.8272 38.9907 24.2451Z" fill="#CE99F7"/>
<path d="M35.2026 26.5252C35.0901 26.5104 34.9881 26.5931 34.98 26.7064C34.9478 27.1582 34.9244 27.6105 34.91 28.0631C34.8779 29.071 35.8873 29.7609 36.8878 29.6344C37.2797 29.5848 37.6749 29.5595 38.0712 29.5588C38.3683 29.5588 38.6274 29.3586 38.6648 29.0639C38.7266 28.5777 38.7807 28.0998 38.8258 27.6313C38.8721 27.1486 38.4683 26.7616 37.9834 26.7616C37.0521 26.7465 36.123 26.6675 35.2026 26.5252Z" fill="#CE99F7"/>
<path d="M23.1509 11.0058C23.0545 11.0291 22.9853 11.1137 22.9817 11.2129L22.9054 13.3206C22.8818 13.9728 23.3241 14.6014 23.9659 14.4836C24.5938 14.3039 24.7114 13.5437 24.4004 12.9694L23.3967 11.1158C23.3487 11.0282 23.2482 10.9832 23.1509 11.0058Z" fill="#CE99F7"/>
<path d="M26.572 25.6136C26.9555 25.5244 27.3389 25.7624 27.4291 26.1457L29.0856 33.2119C29.2163 33.7695 30.0141 33.8814 30.3581 33.4237C30.4714 33.2731 30.5162 33.0807 30.4734 32.8973L27.6128 20.6509C27.5086 20.2045 26.9079 20.0526 26.5178 20.2935C26.2919 20.433 26.1565 20.6943 26.2171 20.9529L26.6184 22.665C26.6817 22.9153 26.605 23.1804 26.4178 23.3582C26.2306 23.536 25.9619 23.5989 25.7152 23.5227C25.4685 23.4465 25.2821 23.2431 25.2277 22.9907L24.7544 20.9695C24.7358 20.8903 24.6655 20.8429 24.5841 20.8429C23.9957 20.8422 23.3803 21.3698 23.5146 21.9427L26.2213 33.4925C26.2812 33.7478 26.4918 33.9383 26.749 33.99C27.2448 34.0898 27.7255 33.6543 27.61 33.162L26.0413 26.4715C25.9515 26.0881 26.1889 25.7044 26.572 25.6136Z" fill="#CE99F7"/>
<path d="M40.7354 17.1591C40.3508 14.8014 36.8548 15.2184 35.2707 17.0065C35.1985 17.088 35.1248 17.1703 35.0497 17.2533C34.4703 17.8225 34.1483 18.6037 34.1584 19.4159C34.1612 19.64 34.1892 19.8611 34.2408 20.0755C34.5035 21.1675 35.7041 21.593 36.8252 21.662C38.3664 21.7569 39.9921 21.141 40.46 19.6695C40.7153 18.8668 40.812 18.0141 40.7354 17.1591ZM38.2033 20.7712C37.9327 20.7712 37.6854 20.6183 37.5644 20.3764C37.4434 20.1344 37.4695 19.8448 37.6319 19.6283C38.2578 18.7706 38.5138 17.6977 38.3426 16.6498C38.27 16.401 38.3379 16.1324 38.52 15.948C38.702 15.7636 38.9697 15.6923 39.2194 15.7616C39.4691 15.8309 39.6617 16.03 39.7226 16.2819C40.0089 17.755 39.6643 19.2807 38.7726 20.4876C38.6377 20.6661 38.427 20.771 38.2033 20.7712Z" fill="#CE99F7"/>
<path d="M48.755 23.1889C49.0855 22.3907 48.1973 21.6384 47.4644 22.0958L47.2286 22.243C46.9714 22.4035 46.8054 22.6745 46.7653 22.9749C46.6873 23.5602 46.5726 24.1396 46.4222 24.7097C46.1327 25.8067 45.9973 27.104 46.9221 27.7613C47.1008 27.8883 47.2945 27.9959 47.5006 28.0812C47.7072 28.1667 47.921 28.2276 48.1378 28.264C49.2556 28.4516 50.076 27.4397 50.6464 26.4602C50.9433 25.9505 51.272 25.4594 51.6308 24.9901C51.8145 24.7497 51.8886 24.4412 51.8203 24.1465L51.7573 23.8743C51.5626 23.0341 50.4042 22.9389 50.075 23.736C49.924 24.1006 49.506 24.2736 49.1415 24.1225C48.777 23.9714 48.604 23.5534 48.755 23.1889Z" fill="#CE99F7"/>
<path d="M44.9285 32.4429C45.8405 33.367 47.6683 33.2863 48.1654 32.0869L48.9694 30.1468C49.0437 29.9674 48.8969 29.7717 48.7026 29.7724C48.1013 29.7667 47.5072 29.6414 46.9548 29.4039C46.0172 29.0365 44.7077 29.2346 44.3228 30.1651L44.2302 30.389C43.971 31.0155 44.1806 31.7297 44.6742 32.1945C44.7605 32.2758 44.8453 32.3586 44.9285 32.4429Z" fill="#CE99F7"/>
<path d="M47.7143 42.4137C47.3936 42.4141 47.0739 42.4491 46.7607 42.518C46.5124 42.5726 46.2538 42.491 46.0817 42.3039C45.9096 42.1168 45.8499 41.8523 45.925 41.6095C46.1655 40.8288 46.2871 40.0163 46.2857 39.1995C46.2857 35.2296 43.4467 31.8278 39.5408 31.1177C35.635 30.4075 31.7802 32.5922 30.3829 36.308C30.3038 36.518 30.1308 36.6786 29.9155 36.7418C29.7003 36.805 29.4678 36.7634 29.2879 36.6295C27.2515 35.1001 24.5303 34.8398 22.2409 35.9552C19.9515 37.0706 18.4793 39.374 18.4286 41.9202C18.4245 42.1439 18.3158 42.3527 18.135 42.4844C17.9541 42.6162 17.722 42.6556 17.5079 42.5909C17.1114 42.4721 16.6996 42.4124 16.2857 42.4137C13.9188 42.4137 12 44.3325 12 46.6995C12 49.0664 13.9188 50.9852 16.2857 50.9852H47.7143C50.0812 50.9852 52 49.0664 52 46.6995C52 44.3325 50.0812 42.4137 47.7143 42.4137ZM23.6586 38.8059C23.6586 38.8052 23.6579 38.8047 23.6572 38.8049C22.7133 39.1276 22.0583 39.9892 22 40.9852C22 41.3797 21.6802 41.6995 21.2857 41.6995C20.8912 41.6995 20.5714 41.3797 20.5714 40.9852C20.5714 38.358 23.095 37.4852 23.2029 37.4502C23.5776 37.3243 23.9834 37.5261 24.1093 37.9009C24.235 38.2752 24.0338 38.6805 23.6599 38.8069C23.6593 38.8071 23.6586 38.8066 23.6586 38.8059ZM32.7357 35.8116C33.2153 33.8387 34.9698 32.4407 37 32.4137C37.3945 32.4128 37.7151 32.7317 37.7161 33.1262C37.7171 33.5207 37.3981 33.8413 37.0036 33.8423C35.6305 33.8765 34.4501 34.8252 34.1214 36.1587C34.0418 36.4765 33.7562 36.6994 33.4286 36.6995C33.3698 36.6997 33.3112 36.6925 33.2543 36.678C32.8719 36.5818 32.6398 36.194 32.7357 35.8116ZM40.1536 45.4423C39.9807 45.5207 39.7838 45.5271 39.6062 45.4601C39.4287 45.3931 39.2851 45.2582 39.2071 45.0852C38.8567 44.328 38.0986 43.843 37.2643 43.8423C36.7916 43.8413 36.3326 43.9992 35.9609 44.2903C35.946 44.302 35.9304 44.313 35.9137 44.322C35.9095 44.3243 35.9052 44.3265 35.9009 44.3287C35.8765 44.3413 35.8532 44.356 35.8311 44.3723C35.8292 44.3737 35.8273 44.3751 35.8254 44.3765C35.807 44.3899 35.7862 44.3995 35.764 44.4046C35.7486 44.4082 35.7334 44.4126 35.7184 44.4179C35.5949 44.4621 35.4608 44.468 35.3336 44.4345C35.2895 44.4252 35.2465 44.4118 35.205 44.3945C35.1647 44.3744 35.1264 44.3505 35.0907 44.323C35.0506 44.2961 35.0135 44.265 34.98 44.2302C34.9726 44.2224 34.964 44.2167 34.9557 44.2109C34.9402 44.2 34.9292 44.1843 34.9201 44.1677C34.9033 44.1372 34.8845 44.1074 34.8641 44.0792C34.8521 44.0626 34.8421 44.0443 34.8333 44.0258C34.3623 43.0368 33.3616 42.4078 32.2643 42.4137C30.6863 42.4137 29.4071 43.6929 29.4071 45.2709C29.407 45.6658 29.4872 46.0566 29.6429 46.4195C29.7171 46.5937 29.7191 46.7904 29.6484 46.9661C29.5777 47.1419 29.44 47.2823 29.2657 47.3566C29.1772 47.3945 29.082 47.414 28.9857 47.4137C28.6994 47.4137 28.4408 47.2428 28.3286 46.9795C28.0974 46.4395 27.9783 45.8582 27.9786 45.2709C27.974 43.4108 29.1723 41.761 30.9427 41.1902C32.197 40.7858 33.5347 40.9887 34.593 41.6793C35.36 42.1798 36.3484 42.4166 37.2643 42.4137C38.6591 42.415 39.9255 43.2281 40.5071 44.4959C40.5858 44.6683 40.5927 44.8648 40.5264 45.0423C40.4601 45.2198 40.326 45.3637 40.1536 45.4423Z" fill="#5D5775"/>
<path d="M25.1077 19.3506C25.8224 19.1547 26.3932 18.6401 26.6697 17.9745C26.8095 17.6379 26.7277 17.2612 26.5538 16.9409L26.3274 16.5238C25.956 15.8395 25.0457 15.6756 24.2927 15.8734C24.0546 15.9281 23.8111 15.9552 23.5669 15.9541C23.1678 15.9524 22.8004 16.2413 22.7861 16.6402L22.7432 17.829C22.7299 18.1982 22.8257 18.5774 23.1055 18.8187C23.6482 19.2868 24.3841 19.4915 25.1077 19.3506Z" fill="#CE99F7"/>
<path d="M15.8853 27.687C15.886 27.687 15.8867 27.6869 15.8874 27.6866L17.869 26.8661C18.2336 26.7151 18.4067 26.2971 18.2555 25.9326C18.1045 25.5685 17.687 25.3956 17.3227 25.5463L15.012 26.5025C13.3694 27.1821 12.5895 29.0653 13.2705 30.7073L15.0123 34.9071C15.7037 36.5741 18.8573 36.5874 20.2999 35.5031C20.5797 35.2927 20.8739 35.0993 21.1811 34.9245C21.5408 34.7199 21.7159 34.284 21.5575 33.9017C21.3952 33.5097 20.9458 33.3236 20.5538 33.4859L18.6207 34.2863C18.5341 34.3219 18.4414 34.3403 18.3478 34.3406C18.0064 34.3422 17.7116 34.1019 17.6443 33.7672C17.5769 33.4324 17.7559 33.0968 18.0714 32.9663L20.0544 32.1452C20.4188 31.9943 20.592 31.5766 20.4411 31.2122C20.2902 30.8476 19.8723 30.6745 19.5078 30.8255L18.8457 31.0999C18.7591 31.1354 18.6664 31.1538 18.5728 31.1542C18.2318 31.1547 17.9379 30.9141 17.8712 30.5797C17.8045 30.2452 17.9834 29.9103 18.2985 29.7799L18.961 29.5054C19.3254 29.3544 19.4984 28.9367 19.3476 28.5722C19.1966 28.2076 18.7787 28.0345 18.4141 28.1855L16.4314 29.007C16.3446 29.0427 16.2517 29.0611 16.1578 29.0613C15.8169 29.0615 15.5234 28.8208 15.4568 28.4865C15.3904 28.1525 15.5689 27.8181 15.8833 27.6874C15.8839 27.6871 15.8846 27.687 15.8853 27.687Z" fill="#CE99F7"/>
</svg>
