<svg width="65" height="65" viewBox="0 0 65 65" fill="none" xmlns="http://www.w3.org/2000/svg">
<rect width="65" height="65" rx="5" fill="#FFF6FF"/>
<path d="M12 32.9985C12 40.9143 16.5999 47.7561 23.2712 50.9966L13.7309 24.8594C12.6226 27.3457 12 30.0986 12 32.9985Z" fill="#5D5775"/>
<path d="M32.3507 34.748L26.3496 52.1849C28.1425 52.712 30.0359 52.9997 31.9997 52.9997C34.3281 52.9997 36.5622 52.5971 38.6408 51.8662C38.5879 51.7798 38.5382 51.6901 38.4983 51.5907L32.3507 34.748Z" fill="#CE99F7"/>
<path d="M45.5017 31.991C45.5017 29.5182 44.6127 27.8073 43.8527 26.4757C42.8379 24.8261 41.8869 23.4313 41.8869 21.7849C41.8869 19.9456 43.2811 18.234 45.2455 18.234C45.3346 18.234 45.4184 18.2463 45.5036 18.2508C41.9482 14.9903 37.2064 13 32.0002 13C25.012 13 18.8664 16.585 15.291 22.0139C15.7607 22.0287 16.2026 22.0384 16.5774 22.0384C18.6683 22.0384 21.9082 21.7842 21.9082 21.7842C22.9856 21.7197 23.1121 23.3048 22.0347 23.4313C22.0347 23.4313 20.9515 23.559 19.7457 23.6229L27.0287 45.2848L31.406 32.1587L28.2919 23.6229C27.2132 23.559 26.1926 23.4313 26.1926 23.4313C25.1152 23.3674 25.241 21.7204 26.3203 21.7842C26.3203 21.7842 29.6228 22.0384 31.5879 22.0384C33.6795 22.0384 36.9181 21.7842 36.9181 21.7842C37.9967 21.7197 38.1232 23.3048 37.0452 23.4313C37.0452 23.4313 35.9607 23.559 34.7568 23.6229L41.9844 45.1203L43.9811 38.4553C44.8423 35.6877 45.5017 33.7019 45.5017 31.991Z" fill="#CE99F7"/>
<path d="M49.6848 25.461C49.6848 27.49 49.3054 29.7712 48.1629 32.6246L42.0547 50.2854C48.0003 46.8197 51.9989 40.3773 51.9989 33.0001C51.9989 29.5222 51.1105 26.2532 49.5493 23.4043C49.6364 24.0417 49.6848 24.7243 49.6848 25.461Z" fill="#5D5775"/>
<path d="M41.8876 21.7842C41.8876 19.9449 43.2817 18.2334 45.2462 18.2334C45.3352 18.2334 45.4191 18.2456 45.5042 18.2502C41.9482 14.9903 37.2064 13 32.0002 13C25.012 13 18.8664 16.585 15.291 22.0139C15.7607 22.0287 16.2026 22.0384 16.5774 22.0384C18.6683 22.0384 21.9082 21.7842 21.9082 21.7842C22.9856 21.7197 23.1121 23.3048 22.0347 23.4313C22.0347 23.4313 20.9515 23.559 19.7457 23.6229L22.523 31.8833C24.4127 32.5503 26.4597 32.9174 28.5977 32.9174C29.4873 32.9174 30.3615 32.8536 31.2163 32.7316L31.4066 32.1594L28.2925 23.6235C27.2139 23.5597 26.1932 23.4319 26.1932 23.4319C25.1159 23.3681 25.2417 21.721 26.321 21.7849C26.321 21.7849 29.6235 22.0391 31.5886 22.0391C33.6801 22.0391 36.9187 21.7849 36.9187 21.7849C37.9974 21.7204 38.1238 23.3055 37.0458 23.4319C37.0458 23.4319 35.9613 23.5597 34.7575 23.6235L37.1639 30.782C39.6064 29.4685 41.676 27.6137 43.185 25.3886C42.4579 24.1816 41.8876 23.0577 41.8876 21.7842Z" fill="#5D5775"/>
<path d="M32.0005 13C25.7252 13 20.1357 15.8967 16.4688 20.4178C19.6874 21.0868 23.2221 21.4578 26.9316 21.4578C33.9559 21.4578 40.3557 20.1307 45.1678 17.954C41.6505 14.8722 37.0449 13 32.0005 13Z" fill="#5D5775"/>
</svg>
