<svg width="65" height="65" viewBox="0 0 65 65" fill="none" xmlns="http://www.w3.org/2000/svg">
<rect width="65" height="65" rx="5" fill="#FFF6FF"/>
<path d="M52 34.8574V19.1456C52 17.2033 50.4229 15.623 48.4844 15.623H15.5156C13.5771 15.623 12 17.2033 12 19.1456V34.8574H52ZM30.2059 27.6888H18.9922C18.3449 27.6888 17.8203 27.1632 17.8203 26.5147C17.8203 25.8661 18.3449 25.3405 18.9922 25.3405H30.2059C30.8531 25.3405 31.3777 25.8661 31.3777 26.5147C31.3777 27.1632 30.8531 27.6888 30.2059 27.6888ZM30.2059 23.9431H18.9922C18.3449 23.9431 17.8203 23.4172 17.8203 22.769C17.8203 22.1204 18.3449 21.5948 18.9922 21.5948H30.2059C30.8531 21.5948 31.3777 22.1204 31.3777 22.769C31.3777 23.4172 30.8531 23.9431 30.2059 23.9431ZM30.2059 31.4346H18.9922C18.3449 31.4346 17.8203 30.9089 17.8203 30.2604C17.8203 29.6122 18.3449 29.0862 18.9922 29.0862H30.2059C30.8531 29.0862 31.3777 29.6122 31.3777 30.2604C31.3777 30.9089 30.8531 31.4346 30.2059 31.4346ZM37.5527 32.6717C36.9054 32.6717 36.3808 32.1461 36.3808 31.4976C36.3808 30.8493 36.9054 30.3234 37.5527 30.3234C38.1996 30.3234 38.7245 30.8493 38.7245 31.4976C38.7245 32.1461 38.1996 32.6717 37.5527 32.6717ZM40.7955 32.6717C40.1482 32.6717 39.6236 32.1461 39.6236 31.4976C39.6236 30.8493 40.1482 30.3234 40.7955 30.3234C41.4424 30.3234 41.9673 30.8493 41.9673 31.4976C41.9673 32.1461 41.4427 32.6717 40.7955 32.6717ZM46.0268 24.4553L43.377 29.1257C43.1685 29.4929 42.7797 29.7198 42.3583 29.7198H36.9396C36.6286 29.7198 36.3301 29.5956 36.1104 29.3752C35.8907 29.1547 35.7674 28.856 35.7677 28.5441L35.7729 23.8737V22.7387H35.1631C34.5162 22.7387 33.9913 22.2128 33.9913 21.5645C33.9913 20.916 34.5162 20.3904 35.1631 20.3904H36.9448C37.5917 20.3904 38.1166 20.916 38.1166 21.5645V22.7008H45.0078C45.4253 22.7008 45.811 22.9231 46.0207 23.2845C46.2307 23.6459 46.2328 24.0917 46.0268 24.4553Z" fill="#5D5775"/>
<path d="M12 37.2051V40.3576C12 42.2999 13.5771 43.8801 15.5156 43.8801H27.0568V48.0628H23.8192C23.1719 48.0628 22.6473 48.5884 22.6473 49.2369C22.6473 49.8855 23.1719 50.4111 23.8192 50.4111H40.1812C40.8281 50.4111 41.353 49.8855 41.353 49.2369C41.353 48.5884 40.8281 48.0628 40.1812 48.0628H36.9432V43.8801H48.4844C50.4229 43.8801 52 42.2999 52 40.3576V37.2051H12ZM31.4937 38.3016H32.5063C33.1533 38.3016 33.6782 38.8272 33.6782 39.4757C33.6782 40.1243 33.1533 40.6499 32.5063 40.6499H31.4937C30.8467 40.6499 30.3218 40.1243 30.3218 39.4757C30.3218 38.8272 30.8467 38.3016 31.4937 38.3016Z" fill="#CE99F7"/>
</svg>
