<svg width="65" height="65" viewBox="0 0 65 65" fill="none" xmlns="http://www.w3.org/2000/svg">
<rect width="65" height="65" rx="5" fill="#FFF6FF"/>
<path d="M32 33C32.3452 33 32.625 32.7202 32.625 32.375C32.625 32.0298 32.3452 31.75 32 31.75C31.6548 31.75 31.375 32.0298 31.375 32.375C31.375 32.7202 31.6548 33 32 33Z" fill="#CE99F7"/>
<path d="M29.5 39.875H34.5V41.75H29.5V39.875Z" fill="#5D5775"/>
<path d="M32.6251 30.6148C33.0421 30.7622 33.3936 31.0523 33.6174 31.4338C33.8412 31.8154 33.9229 32.2637 33.8481 32.6996C33.7733 33.1356 33.5468 33.531 33.2086 33.8161C32.8705 34.1012 32.4424 34.2576 32.0001 34.2576C31.5578 34.2576 31.1297 34.1012 30.7916 33.8161C30.4534 33.531 30.2269 33.1356 30.1521 32.6996C30.0773 32.2637 30.159 31.8154 30.3828 31.4338C30.6066 31.0523 30.9581 30.7622 31.3751 30.6148V27.7559L27.0996 34.8825L29.2376 38.6246H34.7626L36.9007 34.8825L32.6251 27.7559V30.6148Z" fill="#5D5775"/>
<path d="M32 49.875C32.3452 49.875 32.625 49.5952 32.625 49.25C32.625 48.9048 32.3452 48.625 32 48.625C31.6548 48.625 31.375 48.9048 31.375 49.25C31.375 49.5952 31.6548 49.875 32 49.875Z" fill="#CE99F7"/>
<path d="M20.125 49.25C20.126 50.0785 20.4555 50.8728 21.0414 51.4586C21.6272 52.0445 22.4215 52.374 23.25 52.375H40.75C41.5785 52.374 42.3728 52.0445 42.9586 51.4586C43.5445 50.8728 43.874 50.0785 43.875 49.25V46.125H20.125V49.25ZM37 48.625H39.5C39.6658 48.625 39.8247 48.6908 39.9419 48.8081C40.0592 48.9253 40.125 49.0842 40.125 49.25C40.125 49.4158 40.0592 49.5747 39.9419 49.6919C39.8247 49.8092 39.6658 49.875 39.5 49.875H37C36.8342 49.875 36.6753 49.8092 36.5581 49.6919C36.4408 49.5747 36.375 49.4158 36.375 49.25C36.375 49.0842 36.4408 48.9253 36.5581 48.8081C36.6753 48.6908 36.8342 48.625 37 48.625ZM32 47.375C32.3708 47.375 32.7334 47.485 33.0417 47.691C33.35 47.897 33.5904 48.1899 33.7323 48.5325C33.8742 48.8751 33.9113 49.2521 33.839 49.6158C33.7666 49.9795 33.588 50.3136 33.3258 50.5758C33.0636 50.838 32.7295 51.0166 32.3658 51.089C32.0021 51.1613 31.6251 51.1242 31.2825 50.9823C30.9399 50.8404 30.647 50.6 30.441 50.2917C30.235 49.9834 30.125 49.6208 30.125 49.25C30.1255 48.7529 30.3233 48.2763 30.6748 47.9248C31.0263 47.5733 31.5029 47.3755 32 47.375ZM24.5 48.625H27C27.1658 48.625 27.3247 48.6908 27.4419 48.8081C27.5592 48.9253 27.625 49.0842 27.625 49.25C27.625 49.4158 27.5592 49.5747 27.4419 49.6919C27.3247 49.8092 27.1658 49.875 27 49.875H24.5C24.3342 49.875 24.1753 49.8092 24.0581 49.6919C23.9408 49.5747 23.875 49.4158 23.875 49.25C23.875 49.0842 23.9408 48.9253 24.0581 48.8081C24.1753 48.6908 24.3342 48.625 24.5 48.625Z" fill="#5D5775"/>
<path d="M20.125 26.75C20.8154 26.75 21.375 26.1904 21.375 25.5C21.375 24.8096 20.8154 24.25 20.125 24.25C19.4346 24.25 18.875 24.8096 18.875 25.5C18.875 26.1904 19.4346 26.75 20.125 26.75Z" fill="#CE99F7"/>
<path d="M43.875 26.75C44.5654 26.75 45.125 26.1904 45.125 25.5C45.125 24.8096 44.5654 24.25 43.875 24.25C43.1846 24.25 42.625 24.8096 42.625 25.5C42.625 26.1904 43.1846 26.75 43.875 26.75Z" fill="#CE99F7"/>
<path d="M32 22.375C32.6904 22.375 33.25 21.8154 33.25 21.125C33.25 20.4346 32.6904 19.875 32 19.875C31.3096 19.875 30.75 20.4346 30.75 21.125C30.75 21.8154 31.3096 22.375 32 22.375Z" fill="#CE99F7"/>
<path d="M41.375 25.5008C41.3758 25.1502 41.451 24.8039 41.5956 24.4845C39.3868 23.1378 36.9214 22.2663 34.3569 21.9258C34.1924 22.4208 33.8761 22.8514 33.4531 23.1565C33.03 23.4617 32.5216 23.6259 32 23.6259C31.4784 23.6259 30.97 23.4617 30.5469 23.1565C30.1239 22.8514 29.8076 22.4208 29.6431 21.9258C27.0785 22.2663 24.6132 23.1377 22.4044 24.4845C22.576 24.8646 22.6494 25.2817 22.6179 25.6976C22.5864 26.1134 22.4511 26.5147 22.2242 26.8647C21.9974 27.2146 21.6863 27.502 21.3195 27.7005C20.9528 27.899 20.542 28.0022 20.125 28.0008V44.8758H43.875V28.0008C43.2122 28.0001 42.5766 27.7365 42.1079 27.2678C41.6392 26.7991 41.3756 26.1636 41.375 25.5008ZM38.1676 35.1858L35.75 39.4167V42.3758C35.75 42.5415 35.6842 42.7005 35.5669 42.8177C35.4497 42.9349 35.2908 43.0008 35.125 43.0008H28.875C28.7092 43.0008 28.5503 42.9349 28.4331 42.8177C28.3158 42.7005 28.25 42.5415 28.25 42.3758V39.4167L25.8324 35.1858C25.7772 35.0895 25.7487 34.9801 25.7499 34.8691C25.7511 34.758 25.7819 34.6493 25.8391 34.5542L31.4641 25.1792C31.5238 25.0922 31.6038 25.021 31.6972 24.9719C31.7906 24.9227 31.8945 24.897 32 24.897C32.1055 24.897 32.2094 24.9227 32.3028 24.9719C32.3962 25.021 32.4762 25.0922 32.5359 25.1792L38.1609 34.5542C38.2181 34.6493 38.2489 34.758 38.2501 34.8691C38.2513 34.9801 38.2228 35.0895 38.1676 35.1858Z" fill="#CE99F7"/>
<path d="M29.5452 20.6779C29.6487 20.1022 29.9513 19.5812 30.4 19.2059C30.8487 18.8307 31.4151 18.6251 32 18.6251C32.5849 18.6251 33.1513 18.8307 33.6 19.2059C34.0487 19.5812 34.3513 20.1022 34.4548 20.6779C37.2735 21.0327 39.9817 21.9951 42.3923 23.4984C42.8197 23.1765 43.3399 23.0016 43.875 23V16.75C43.874 15.9215 43.5445 15.1272 42.9586 14.5414C42.3728 13.9555 41.5785 13.626 40.75 13.625H23.25C22.4215 13.626 21.6272 13.9555 21.0414 14.5414C20.4555 15.1272 20.126 15.9215 20.125 16.75V23C20.6602 23.0016 21.1804 23.1765 21.6079 23.4984C24.0185 21.9951 26.7265 21.0328 29.5452 20.6779ZM37 16.125C37.1236 16.125 37.2444 16.1617 37.3472 16.2303C37.45 16.299 37.5301 16.3966 37.5774 16.5108C37.6247 16.625 37.6371 16.7507 37.613 16.8719C37.5889 16.9932 37.5294 17.1045 37.4419 17.1919C37.3545 17.2793 37.2432 17.3389 37.1219 17.363C37.0007 17.3871 36.875 17.3747 36.7608 17.3274C36.6466 17.2801 36.549 17.2 36.4803 17.0972C36.4117 16.9945 36.375 16.8736 36.375 16.75C36.375 16.5842 36.4408 16.4253 36.5581 16.3081C36.6753 16.1908 36.8342 16.125 37 16.125ZM29.5 16.125H34.5C34.6658 16.125 34.8247 16.1908 34.9419 16.3081C35.0592 16.4253 35.125 16.5842 35.125 16.75C35.125 16.9158 35.0592 17.0747 34.9419 17.1919C34.8247 17.3092 34.6658 17.375 34.5 17.375H29.5C29.3342 17.375 29.1753 17.3092 29.0581 17.1919C28.9408 17.0747 28.875 16.9158 28.875 16.75C28.875 16.5842 28.9408 16.4253 29.0581 16.3081C29.1753 16.1908 29.3342 16.125 29.5 16.125Z" fill="#5D5775"/>
</svg>
