<svg width="40" height="40" viewBox="0 0 40 40" fill="none" xmlns="http://www.w3.org/2000/svg">
<path d="M40 21.8574V6.14555C40 4.20328 38.4229 2.62305 36.4844 2.62305H3.51562C1.57715 2.62305 0 4.20328 0 6.14555V21.8574H40ZM18.2059 14.6888H6.99219C6.34491 14.6888 5.82031 14.1632 5.82031 13.5147C5.82031 12.8661 6.34491 12.3405 6.99219 12.3405H18.2059C18.8531 12.3405 19.3777 12.8661 19.3777 13.5147C19.3777 14.1632 18.8531 14.6888 18.2059 14.6888ZM18.2059 10.9431H6.99219C6.34491 10.9431 5.82031 10.4172 5.82031 9.76896C5.82031 9.12042 6.34491 8.59479 6.99219 8.59479H18.2059C18.8531 8.59479 19.3777 9.12042 19.3777 9.76896C19.3777 10.4172 18.8531 10.9431 18.2059 10.9431ZM18.2059 18.4346H6.99219C6.34491 18.4346 5.82031 17.9089 5.82031 17.2604C5.82031 16.6122 6.34491 16.0862 6.99219 16.0862H18.2059C18.8531 16.0862 19.3777 16.6122 19.3777 17.2604C19.3777 17.9089 18.8531 18.4346 18.2059 18.4346ZM25.5527 19.6717C24.9054 19.6717 24.3808 19.1461 24.3808 18.4976C24.3808 17.8493 24.9054 17.3234 25.5527 17.3234C26.1996 17.3234 26.7245 17.8493 26.7245 18.4976C26.7245 19.1461 26.1996 19.6717 25.5527 19.6717ZM28.7955 19.6717C28.1482 19.6717 27.6236 19.1461 27.6236 18.4976C27.6236 17.8493 28.1482 17.3234 28.7955 17.3234C29.4424 17.3234 29.9673 17.8493 29.9673 18.4976C29.9673 19.1461 29.4427 19.6717 28.7955 19.6717ZM34.0268 11.4553L31.377 16.1257C31.1685 16.4929 30.7797 16.7198 30.3583 16.7198H24.9396C24.6286 16.7198 24.3301 16.5956 24.1104 16.3752C23.8907 16.1547 23.7674 15.856 23.7677 15.5441L23.7729 10.8737V9.73869H23.1631C22.5162 9.73869 21.9913 9.21276 21.9913 8.56452C21.9913 7.91598 22.5162 7.39035 23.1631 7.39035H24.9448C25.5917 7.39035 26.1166 7.91598 26.1166 8.56452V9.70077H33.0078C33.4253 9.70077 33.811 9.92307 34.0207 10.2845C34.2307 10.6459 34.2328 11.0917 34.0268 11.4553Z" fill="#5D5775"/>
<path d="M0 24.2051V27.3576C0 29.2999 1.57715 30.8801 3.51562 30.8801H15.0568V35.0628H11.8192C11.1719 35.0628 10.6473 35.5884 10.6473 36.2369C10.6473 36.8855 11.1719 37.4111 11.8192 37.4111H28.1812C28.8281 37.4111 29.353 36.8855 29.353 36.2369C29.353 35.5884 28.8281 35.0628 28.1812 35.0628H24.9432V30.8801H36.4844C38.4229 30.8801 40 29.2999 40 27.3576V24.2051H0ZM19.4937 25.3016H20.5063C21.1533 25.3016 21.6782 25.8272 21.6782 26.4757C21.6782 27.1243 21.1533 27.6499 20.5063 27.6499H19.4937C18.8467 27.6499 18.3218 27.1243 18.3218 26.4757C18.3218 25.8272 18.8467 25.3016 19.4937 25.3016Z" fill="#CE99F7"/>
</svg>
