<svg width="65" height="65" viewBox="0 0 65 65" fill="none" xmlns="http://www.w3.org/2000/svg">
<rect width="65" height="65" rx="5" fill="#FFF6FF"/>
<path d="M28.6458 14H16.7707C15.2429 14 14 15.2429 14 16.7707V23.8958C14 25.4239 15.2429 26.6668 16.7707 26.6668H28.6458C30.1739 26.6668 31.4168 25.4239 31.4168 23.8958V16.7707C31.4168 15.2429 30.1739 14 28.6458 14Z" fill="#5D5775"/>
<path d="M28.6458 29.834H16.7707C15.2429 29.834 14 31.0769 14 32.605V49.23C14 50.7579 15.2429 52.0008 16.7707 52.0008H28.6458C30.1739 52.0008 31.4168 50.7579 31.4168 49.23V32.605C31.4168 31.0769 30.1739 29.834 28.6458 29.834Z" fill="#CE99F7"/>
<path d="M49.23 39.334H37.355C35.8269 39.334 34.584 40.5769 34.584 42.105V49.23C34.584 50.7579 35.8269 52.0008 37.355 52.0008H49.23C50.7579 52.0008 52.0008 50.7579 52.0008 49.23V42.105C52.0008 40.5769 50.7579 39.334 49.23 39.334Z" fill="#5D5775"/>
<path d="M49.23 14H37.355C35.8269 14 34.584 15.2429 34.584 16.7707V33.3958C34.584 34.9239 35.8269 36.1668 37.355 36.1668H49.23C50.7579 36.1668 52.0008 34.9239 52.0008 33.3958V16.7707C52.0008 15.2429 50.7579 14 49.23 14V14Z" fill="#CE99F7"/>
</svg>
