<svg width="60" height="57" viewBox="0 0 60 57" fill="none" xmlns="http://www.w3.org/2000/svg">
<g filter="url(#filter0_d_3053_12867)">
<path d="M50.0001 12.0312V11.0315C49.9968 8.27136 47.76 6.03455 44.9999 6.03125H14.9999C12.2397 6.03455 10.0033 8.27136 10 11.0315V12.0312H50.0001Z" fill="#CE99F7"/>
<path d="M10 14.0312V37.0311C10.0033 39.7913 12.2397 42.0281 14.9999 42.031H44.9999C47.76 42.0281 49.9968 39.7913 50.0001 37.0311V14.0312H10ZM16 21.031C16 20.7659 16.1051 20.5114 16.2926 20.3239C16.4805 20.1364 16.7346 20.0309 17.0001 20.0312H25C25.2651 20.0309 25.5197 20.1364 25.7072 20.3239C25.895 20.5114 26.0001 20.7659 26.0001 21.031V27.031C26.0001 27.2965 25.895 27.5507 25.7072 27.7385C25.5197 27.926 25.2651 28.0311 25 28.0311H17.0001C16.7346 28.0311 16.4805 27.926 16.2926 27.7385C16.1051 27.5507 16 27.2965 16 27.031V21.031ZM43 34.0311H17.0001C16.4479 34.0311 16 33.5833 16 33.031C16 32.4788 16.4479 32.0312 17.0001 32.0312H43C43.5522 32.0312 44.0001 32.4788 44.0001 33.031C44.0001 33.5833 43.5522 34.0311 43 34.0311ZM43 28.0311H31C30.4478 28.0311 29.9999 27.5833 29.9999 27.031C29.9999 26.4788 30.4478 26.0312 31 26.0312H43C43.5522 26.0312 44.0001 26.4788 44.0001 27.031C44.0001 27.5833 43.5522 28.0311 43 28.0311ZM43 22.0311H31C30.4478 22.0311 29.9999 21.5833 29.9999 21.031C29.9999 20.4788 30.4478 20.0312 31 20.0312H43C43.5522 20.0312 44.0001 20.4788 44.0001 21.031C44.0001 21.5833 43.5522 22.0311 43 22.0311Z" fill="#5D5775"/>
<path d="M18 22.0312H24V26.0314H18V22.0312Z" fill="#CE99F7"/>
</g>
<defs>
<filter id="filter0_d_3053_12867" x="0" y="-2" width="60" height="60" filterUnits="userSpaceOnUse" color-interpolation-filters="sRGB">
<feFlood flood-opacity="0" result="BackgroundImageFix"/>
<feColorMatrix in="SourceAlpha" type="matrix" values="0 0 0 0 0 0 0 0 0 0 0 0 0 0 0 0 0 0 127 0" result="hardAlpha"/>
<feOffset dy="4"/>
<feGaussianBlur stdDeviation="5"/>
<feComposite in2="hardAlpha" operator="out"/>
<feColorMatrix type="matrix" values="0 0 0 0 0.341176 0 0 0 0 0.6 0 0 0 0 0.0627451 0 0 0 0.1 0"/>
<feBlend mode="normal" in2="BackgroundImageFix" result="effect1_dropShadow_3053_12867"/>
<feBlend mode="normal" in="SourceGraphic" in2="effect1_dropShadow_3053_12867" result="shape"/>
</filter>
</defs>
</svg>
