<svg width="40" height="40" viewBox="0 0 40 40" fill="none" xmlns="http://www.w3.org/2000/svg">
<path d="M0 19.9985C0 27.9143 4.59985 34.7561 11.2712 37.9966L1.73091 11.8594C0.622561 14.3457 0 17.0986 0 19.9985Z" fill="#5D5775"/>
<path d="M20.3507 21.748L14.3496 39.1849C16.1425 39.712 18.0359 39.9997 19.9997 39.9997C22.3281 39.9997 24.5622 39.5971 26.6408 38.8662C26.5879 38.7798 26.5383 38.6901 26.4983 38.5907L20.3507 21.748Z" fill="#CE99F7"/>
<path d="M33.5017 18.991C33.5017 16.5182 32.6127 14.8073 31.8527 13.4757C30.8379 11.8261 29.8869 10.4313 29.8869 8.78488C29.8869 6.94558 31.2811 5.23402 33.2455 5.23402C33.3346 5.23402 33.4184 5.24628 33.5036 5.2508C29.9482 1.99026 25.2064 0 20.0002 0C13.012 0 6.86638 3.58505 3.29102 9.0139C3.76068 9.02874 4.2026 9.03842 4.57743 9.03842C6.66833 9.03842 9.90822 8.78423 9.90822 8.78423C10.9856 8.71972 11.1121 10.3048 10.0347 10.4313C10.0347 10.4313 8.95148 10.559 7.74571 10.6229L15.0287 32.2848L19.406 19.1587L16.2919 10.6229C15.2132 10.559 14.1926 10.4313 14.1926 10.4313C13.1152 10.3674 13.241 8.72036 14.3203 8.78423C14.3203 8.78423 17.6228 9.03842 19.5879 9.03842C21.6795 9.03842 24.9181 8.78423 24.9181 8.78423C25.9967 8.71972 26.1232 10.3048 25.0452 10.4313C25.0452 10.4313 23.9607 10.559 22.7568 10.6229L29.9843 32.1203L31.9811 25.4553C32.8423 22.6877 33.5017 20.7019 33.5017 18.991Z" fill="#CE99F7"/>
<path d="M37.6848 12.461C37.6848 14.49 37.3054 16.7712 36.1629 19.6246L30.0547 37.2854C36.0003 33.8197 39.9989 27.3773 39.9989 20.0001C39.9989 16.5222 39.1105 13.2532 37.5493 10.4043C37.6364 11.0417 37.6848 11.7243 37.6848 12.461Z" fill="#5D5775"/>
<path d="M29.8876 8.78423C29.8876 6.94494 31.2817 5.23338 33.2462 5.23338C33.3352 5.23338 33.4191 5.24564 33.5042 5.25015C29.9482 1.99026 25.2064 0 20.0002 0C13.012 0 6.86638 3.58505 3.29102 9.0139C3.76068 9.02874 4.2026 9.03842 4.57743 9.03842C6.66833 9.03842 9.90822 8.78423 9.90822 8.78423C10.9856 8.71972 11.1121 10.3048 10.0347 10.4313C10.0347 10.4313 8.95148 10.559 7.74571 10.6229L10.523 18.8833C12.4127 19.5503 14.4597 19.9174 16.5977 19.9174C17.4873 19.9174 18.3615 19.8536 19.2163 19.7316L19.4066 19.1594L16.2925 10.6235C15.2139 10.5597 14.1932 10.4319 14.1932 10.4319C13.1159 10.3681 13.2417 8.72101 14.321 8.78488C14.321 8.78488 17.6235 9.03906 19.5886 9.03906C21.6801 9.03906 24.9187 8.78488 24.9187 8.78488C25.9974 8.72036 26.1238 10.3055 25.0458 10.4319C25.0458 10.4319 23.9613 10.5597 22.7575 10.6235L25.1639 17.782C27.6064 16.4685 29.676 14.6137 31.185 12.3886C30.4579 11.1816 29.8876 10.0577 29.8876 8.78423Z" fill="#5D5775"/>
<path d="M20.0005 0C13.7252 0 8.13573 2.89668 4.46875 7.41783C7.68736 8.08684 11.2221 8.45779 14.9316 8.45779C21.9559 8.45779 28.3557 7.13074 33.1678 4.95403C29.6505 1.8722 25.0449 0 20.0005 0Z" fill="#5D5775"/>
</svg>
