<svg width="65" height="65" viewBox="0 0 65 65" fill="none" xmlns="http://www.w3.org/2000/svg">
<rect width="65" height="65" rx="5" fill="#FFF6FF"/>
<path d="M44.8059 20.4645C44.6627 20.4509 41.6042 20.2241 41.6042 20.2241C41.6042 20.2241 39.4783 18.104 39.2456 17.8707C39.0123 17.6361 38.5566 17.7061 38.3791 17.7599C38.3538 17.767 37.9156 17.9038 37.1904 18.1274C36.48 16.0747 35.2285 14.1887 33.0255 14.1887C32.9646 14.1887 32.9017 14.1913 32.8382 14.1952C32.2121 13.3636 31.4356 13 30.7648 13C25.6323 13 23.1798 19.4495 22.4111 22.7271C20.4161 23.3468 18.998 23.7888 18.8191 23.8471C17.7037 24.1984 17.6694 24.2334 17.5248 25.2873C17.4133 26.0851 14.5 48.7262 14.5 48.7262L37.1988 53L49.499 50.3252C49.499 50.3252 45.1818 20.9901 45.1546 20.7886C45.1274 20.5877 44.9511 20.4762 44.8059 20.4645ZM32.6697 19.3115C32.6697 19.3886 32.6684 19.4612 32.6684 19.5344C31.4188 19.924 30.0629 20.3453 28.7012 20.7698C29.4653 17.8078 30.8964 16.3755 32.1492 15.8356C32.4636 16.6302 32.6697 17.7722 32.6697 19.3115ZM30.6229 14.3844C30.8471 14.3844 31.0688 14.4596 31.2827 14.608C29.6371 15.3851 27.8748 17.3457 27.1295 21.2585C26.0413 21.5968 24.9783 21.9286 23.9938 22.2346C24.8662 19.2486 26.9363 14.3844 30.6229 14.3844ZM31.5076 31.8269C31.5076 31.8269 30.1789 31.1146 28.5515 31.1146C26.1625 31.1146 26.0419 32.6208 26.0419 32.9994C26.0419 35.0701 31.413 35.8641 31.413 40.714C31.413 44.5302 29.0058 46.9866 25.7574 46.9866C21.8608 46.9866 19.8672 44.549 19.8672 44.549L20.91 41.0848C20.91 41.0848 22.9581 42.8535 24.6886 42.8535C25.8164 42.8535 26.2759 41.9591 26.2759 41.3064C26.2759 38.605 21.8692 38.4845 21.8692 34.0454C21.8692 30.3116 24.5369 26.695 29.9242 26.695C31.9976 26.695 33.0242 27.2932 33.0242 27.2932L31.5076 31.8269ZM34.0152 19.1158C34.0152 18.979 34.0165 18.8455 34.0165 18.6984C34.0165 17.4241 33.8396 16.3969 33.557 15.5828C34.6925 15.7247 35.4489 17.0236 35.9356 18.5175C35.3659 18.6964 34.7178 18.8973 34.0152 19.1158Z" fill="#5D5775"/>
<path d="M44.8059 20.4645C44.6627 20.4509 41.6042 20.2241 41.6042 20.2241C41.6042 20.2241 39.4783 18.104 39.2456 17.8707C39.0123 17.6361 38.5566 17.7061 38.3791 17.7599C38.3538 17.767 37.9156 17.9038 37.1904 18.1274C36.48 16.0747 35.2285 14.1887 33.0255 14.1887C32.9646 14.1887 32.9017 14.1913 32.8382 14.1952C32.2121 13.3636 31.4356 13 30.7648 13C25.6323 13 24.3658 19.4495 23.5972 22.7271C21.6022 23.3468 20.0713 26.7579 19.8905 26.8149C18.7764 27.1662 18.742 27.2012 18.5968 28.2557C18.4847 29.0529 14.5 48.7262 14.5 48.7262L37.1988 53L49.499 50.3252C49.499 50.3252 45.1818 20.9901 45.1546 20.7886C45.1274 20.5877 44.9511 20.4762 44.8059 20.4645ZM32.6697 19.3115C32.6697 19.3886 32.6684 19.4612 32.6684 19.5344C31.4188 19.924 30.0629 20.3453 28.7012 20.7698C29.4653 17.8078 30.8964 16.3755 32.1492 15.8356C32.4636 16.6302 32.6697 17.7722 32.6697 19.3115ZM30.6229 14.3844C30.8471 14.3844 31.0688 14.4596 31.2827 14.608C29.6371 15.3851 27.8748 17.3457 27.1295 21.2585C26.0413 21.5968 24.9783 21.9286 23.9938 22.2346C24.8662 19.2486 26.9363 14.3844 30.6229 14.3844ZM31.5076 31.8269C31.5076 31.8269 30.1789 31.1146 28.5515 31.1146C26.1625 31.1146 26.0419 32.6208 26.0419 32.9994C26.0419 35.0701 31.413 35.8641 31.413 40.714C31.413 44.5302 29.0058 46.9866 25.7574 46.9866C21.8608 46.9866 19.8672 44.549 19.8672 44.549L20.91 41.0848C20.91 41.0848 22.9581 42.8535 24.6886 42.8535C25.8164 42.8535 26.2759 41.9591 26.2759 41.3064C26.2759 38.605 21.8692 38.4845 21.8692 34.0454C21.8692 30.3116 24.5369 26.695 29.9242 26.695C31.9976 26.695 33.0242 27.2932 33.0242 27.2932L31.5076 31.8269ZM34.0152 19.1158C34.0152 18.979 34.0165 18.8455 34.0165 18.6984C34.0165 17.4241 33.8396 16.3969 33.557 15.5828C34.6925 15.7247 35.4489 17.0236 35.9356 18.5175C35.3659 18.6964 34.7178 18.8973 34.0152 19.1158Z" fill="#5D5775"/>
<path d="M37.1994 53.0003L49.4996 50.3261C49.4996 50.3261 45.1824 20.9911 45.1552 20.7895C45.1279 20.588 44.9523 20.4771 44.8065 20.4655C44.6632 20.4519 41.6047 20.225 41.6047 20.225C41.6047 20.225 39.4788 18.105 39.2462 17.8717C39.1217 17.7459 38.9357 17.7103 38.7601 17.709C38.2934 18.4997 38.39 20.0014 38.39 20.0014L36.9434 52.9517L37.1994 53.0003Z" fill="#CE99F7"/>
<path d="M33.0272 14.1887C32.9663 14.1887 32.9034 14.1913 32.8399 14.1952C32.2138 13.3636 31.4374 13 30.7666 13C25.6547 13 23.2003 19.399 22.4219 22.6876L24.0078 22.1957C24.8854 19.2084 26.9536 14.3838 30.6246 14.3838C30.8489 14.3838 31.0705 14.4589 31.2844 14.6074C29.6433 15.3819 27.8856 17.3353 27.1377 21.2267L28.7126 20.7406C29.4787 17.7975 30.904 16.3729 32.1523 15.8349C32.4659 16.6302 32.6727 17.7715 32.6727 19.3108C32.6727 19.3808 32.6727 19.4476 32.6714 19.5144L34.0182 19.0976C34.0182 18.968 34.0195 18.8384 34.0195 18.6977C34.0195 17.4235 33.8426 16.3962 33.56 15.5822C34.6916 15.7234 35.4473 17.0165 35.9334 18.5039L37.1895 18.1144C36.4772 16.0676 35.2263 14.1887 33.0272 14.1887Z" fill="#5D5775"/>
<path d="M42.1167 20.262C41.8095 20.238 41.6028 20.2231 41.6028 20.2231C41.6028 20.2231 39.4769 18.103 39.2442 17.8697C39.1198 17.744 38.9338 17.7083 38.7581 17.707C38.2915 18.4978 38.388 19.9995 38.388 19.9995L36.9414 52.9498L37.1981 52.9984L43.7429 51.5751L42.1167 20.262Z" fill="#CE99F7"/>
</svg>
