<svg width="40" height="40" viewBox="0 0 40 40" fill="none" xmlns="http://www.w3.org/2000/svg">
<path d="M20 20C20.3452 20 20.625 19.7202 20.625 19.375C20.625 19.0298 20.3452 18.75 20 18.75C19.6548 18.75 19.375 19.0298 19.375 19.375C19.375 19.7202 19.6548 20 20 20Z" fill="#CE99F7"/>
<path d="M17.5 26.875H22.5V28.75H17.5V26.875Z" fill="#5D5775"/>
<path d="M20.6251 17.6148C21.0421 17.7622 21.3936 18.0523 21.6174 18.4338C21.8412 18.8154 21.9229 19.2637 21.8481 19.6996C21.7733 20.1356 21.5468 20.531 21.2086 20.8161C20.8705 21.1012 20.4424 21.2576 20.0001 21.2576C19.5578 21.2576 19.1297 21.1012 18.7916 20.8161C18.4534 20.531 18.2269 20.1356 18.1521 19.6996C18.0773 19.2637 18.159 18.8154 18.3828 18.4338C18.6066 18.0523 18.9581 17.7622 19.3751 17.6148V14.7559L15.0996 21.8825L17.2376 25.6246H22.7626L24.9007 21.8825L20.6251 14.7559V17.6148Z" fill="#5D5775"/>
<path d="M20 36.875C20.3452 36.875 20.625 36.5952 20.625 36.25C20.625 35.9048 20.3452 35.625 20 35.625C19.6548 35.625 19.375 35.9048 19.375 36.25C19.375 36.5952 19.6548 36.875 20 36.875Z" fill="#CE99F7"/>
<path d="M8.125 36.25C8.12598 37.0785 8.45553 37.8728 9.04137 38.4586C9.62721 39.0445 10.4215 39.374 11.25 39.375H28.75C29.5785 39.374 30.3728 39.0445 30.9586 38.4586C31.5445 37.8728 31.874 37.0785 31.875 36.25V33.125H8.125V36.25ZM25 35.625H27.5C27.6658 35.625 27.8247 35.6908 27.9419 35.8081C28.0592 35.9253 28.125 36.0842 28.125 36.25C28.125 36.4158 28.0592 36.5747 27.9419 36.6919C27.8247 36.8092 27.6658 36.875 27.5 36.875H25C24.8342 36.875 24.6753 36.8092 24.5581 36.6919C24.4408 36.5747 24.375 36.4158 24.375 36.25C24.375 36.0842 24.4408 35.9253 24.5581 35.8081C24.6753 35.6908 24.8342 35.625 25 35.625ZM20 34.375C20.3708 34.375 20.7334 34.485 21.0417 34.691C21.35 34.897 21.5904 35.1899 21.7323 35.5325C21.8742 35.8751 21.9113 36.2521 21.839 36.6158C21.7666 36.9795 21.588 37.3136 21.3258 37.5758C21.0636 37.838 20.7295 38.0166 20.3658 38.089C20.0021 38.1613 19.6251 38.1242 19.2825 37.9823C18.9399 37.8404 18.647 37.6 18.441 37.2917C18.235 36.9834 18.125 36.6208 18.125 36.25C18.1255 35.7529 18.3233 35.2763 18.6748 34.9248C19.0263 34.5733 19.5029 34.3755 20 34.375ZM12.5 35.625H15C15.1658 35.625 15.3247 35.6908 15.4419 35.8081C15.5592 35.9253 15.625 36.0842 15.625 36.25C15.625 36.4158 15.5592 36.5747 15.4419 36.6919C15.3247 36.8092 15.1658 36.875 15 36.875H12.5C12.3342 36.875 12.1753 36.8092 12.0581 36.6919C11.9408 36.5747 11.875 36.4158 11.875 36.25C11.875 36.0842 11.9408 35.9253 12.0581 35.8081C12.1753 35.6908 12.3342 35.625 12.5 35.625Z" fill="#5D5775"/>
<path d="M8.125 13.75C8.81536 13.75 9.375 13.1904 9.375 12.5C9.375 11.8096 8.81536 11.25 8.125 11.25C7.43464 11.25 6.875 11.8096 6.875 12.5C6.875 13.1904 7.43464 13.75 8.125 13.75Z" fill="#CE99F7"/>
<path d="M31.875 13.75C32.5654 13.75 33.125 13.1904 33.125 12.5C33.125 11.8096 32.5654 11.25 31.875 11.25C31.1846 11.25 30.625 11.8096 30.625 12.5C30.625 13.1904 31.1846 13.75 31.875 13.75Z" fill="#CE99F7"/>
<path d="M20 9.375C20.6904 9.375 21.25 8.81536 21.25 8.125C21.25 7.43464 20.6904 6.875 20 6.875C19.3096 6.875 18.75 7.43464 18.75 8.125C18.75 8.81536 19.3096 9.375 20 9.375Z" fill="#CE99F7"/>
<path d="M29.375 12.5008C29.3758 12.1502 29.451 11.8039 29.5956 11.4845C27.3868 10.1378 24.9214 9.26631 22.3569 8.92578C22.1924 9.42076 21.8761 9.85136 21.4531 10.1565C21.03 10.4617 20.5216 10.6259 20 10.6259C19.4784 10.6259 18.97 10.4617 18.5469 10.1565C18.1239 9.85136 17.8076 9.42076 17.6431 8.92578C15.0785 9.26625 12.6132 10.1377 10.4044 11.4845C10.576 11.8646 10.6494 12.2817 10.6179 12.6976C10.5864 13.1134 10.4511 13.5147 10.2242 13.8647C9.99737 14.2146 9.6863 14.502 9.31953 14.7005C8.95277 14.899 8.54203 15.0022 8.125 15.0008V31.8758H31.875V15.0008C31.2122 15.0001 30.5766 14.7365 30.1079 14.2678C29.6392 13.7991 29.3756 13.1636 29.375 12.5008ZM26.1676 22.1858L23.75 26.4167V29.3758C23.75 29.5415 23.6842 29.7005 23.5669 29.8177C23.4497 29.9349 23.2908 30.0008 23.125 30.0008H16.875C16.7092 30.0008 16.5503 29.9349 16.4331 29.8177C16.3158 29.7005 16.25 29.5415 16.25 29.3758V26.4167L13.8324 22.1858C13.7772 22.0895 13.7487 21.9801 13.7499 21.8691C13.7511 21.758 13.7819 21.6493 13.8391 21.5542L19.4641 12.1792C19.5238 12.0922 19.6038 12.021 19.6972 11.9719C19.7906 11.9227 19.8945 11.897 20 11.897C20.1055 11.897 20.2094 11.9227 20.3028 11.9719C20.3962 12.021 20.4762 12.0922 20.5359 12.1792L26.1609 21.5542C26.2181 21.6493 26.2489 21.758 26.2501 21.8691C26.2513 21.9801 26.2228 22.0895 26.1676 22.1858Z" fill="#CE99F7"/>
<path d="M17.5452 7.67788C17.6487 7.10217 17.9513 6.58117 18.4 6.20594C18.8487 5.83071 19.4151 5.62512 20 5.62512C20.5849 5.62512 21.1513 5.83071 21.6 6.20594C22.0487 6.58117 22.3513 7.10217 22.4548 7.67788C25.2735 8.03275 27.9817 8.99508 30.3923 10.4984C30.8197 10.1765 31.3399 10.0016 31.875 10V3.75C31.874 2.9215 31.5445 2.12721 30.9586 1.54137C30.3728 0.955529 29.5785 0.625976 28.75 0.625H11.25C10.4215 0.625976 9.62721 0.955529 9.04137 1.54137C8.45553 2.12721 8.12598 2.9215 8.125 3.75V10C8.66018 10.0016 9.18044 10.1765 9.60794 10.4984C12.0185 8.9951 14.7265 8.03277 17.5452 7.67788ZM25 3.125C25.1236 3.125 25.2444 3.16166 25.3472 3.23033C25.45 3.29901 25.5301 3.39662 25.5774 3.51082C25.6247 3.62503 25.6371 3.75069 25.613 3.87193C25.5889 3.99317 25.5294 4.10453 25.4419 4.19194C25.3545 4.27935 25.2432 4.33888 25.1219 4.36299C25.0007 4.38711 24.875 4.37473 24.7608 4.32742C24.6466 4.28012 24.549 4.20001 24.4803 4.09723C24.4117 3.99445 24.375 3.87361 24.375 3.75C24.375 3.58424 24.4408 3.42527 24.5581 3.30806C24.6753 3.19085 24.8342 3.125 25 3.125ZM17.5 3.125H22.5C22.6658 3.125 22.8247 3.19085 22.9419 3.30806C23.0592 3.42527 23.125 3.58424 23.125 3.75C23.125 3.91576 23.0592 4.07473 22.9419 4.19194C22.8247 4.30915 22.6658 4.375 22.5 4.375H17.5C17.3342 4.375 17.1753 4.30915 17.0581 4.19194C16.9408 4.07473 16.875 3.91576 16.875 3.75C16.875 3.58424 16.9408 3.42527 17.0581 3.30806C17.1753 3.19085 17.3342 3.125 17.5 3.125Z" fill="#5D5775"/>
</svg>
