<svg width="40" height="40" viewBox="0 0 40 40" fill="none" xmlns="http://www.w3.org/2000/svg">
<path d="M32.8059 7.46452C32.6627 7.4509 29.6042 7.22406 29.6042 7.22406C29.6042 7.22406 27.4783 5.10402 27.2456 4.8707C27.0123 4.63608 26.5566 4.70607 26.3791 4.75987C26.3538 4.767 25.9156 4.90375 25.1904 5.12736C24.48 3.07473 23.2285 1.18867 21.0255 1.18867C20.9646 1.18867 20.9017 1.19126 20.8382 1.19515C20.2121 0.363601 19.4356 0 18.7648 0C13.6323 0 11.1798 6.44954 10.4111 9.72714C8.41613 10.3468 6.99802 10.7888 6.81914 10.8471C5.70371 11.1984 5.66936 11.2334 5.52482 12.2873C5.41334 13.0851 2.5 35.7262 2.5 35.7262L25.1988 40L37.499 37.3252C37.499 37.3252 33.1818 7.99015 33.1546 7.78858C33.1274 7.58766 32.9511 7.47618 32.8059 7.46452ZM20.6697 6.31149C20.6697 6.38862 20.6684 6.46121 20.6684 6.53445C19.4188 6.92397 18.0629 7.34526 16.7012 7.76978C17.4653 4.80783 18.8964 3.37546 20.1492 2.83557C20.4636 3.63018 20.6697 4.77218 20.6697 6.31149ZM18.6229 1.38441C18.8471 1.38441 19.0688 1.45959 19.2827 1.60801C17.6371 2.38512 15.8748 4.34571 15.1295 8.25847C14.0413 8.5968 12.9783 8.92864 11.9938 9.23456C12.8662 6.24862 14.9363 1.38441 18.6229 1.38441ZM19.5076 18.8269C19.5076 18.8269 18.1789 18.1146 16.5515 18.1146C14.1625 18.1146 14.0419 19.6208 14.0419 19.9994C14.0419 22.0701 19.413 22.8641 19.413 27.714C19.413 31.5302 17.0058 33.9866 13.7574 33.9866C9.86081 33.9866 7.86717 31.549 7.86717 31.549L8.91001 28.0848C8.91001 28.0848 10.9581 29.8535 12.6886 29.8535C13.8164 29.8535 14.2759 28.9591 14.2759 28.3064C14.2759 25.605 9.86924 25.4845 9.86924 21.0454C9.86924 17.3116 12.5369 13.695 17.9242 13.695C19.9976 13.695 21.0242 14.2932 21.0242 14.2932L19.5076 18.8269ZM22.0152 6.11576C22.0152 5.979 22.0165 5.84549 22.0165 5.69836C22.0165 4.42414 21.8396 3.39685 21.557 2.5828C22.6925 2.72474 23.4489 4.02359 23.9356 5.51753C23.3659 5.69642 22.7178 5.89734 22.0152 6.11576Z" fill="#5D5775"/>
<path d="M32.8059 7.46452C32.6627 7.4509 29.6042 7.22406 29.6042 7.22406C29.6042 7.22406 27.4783 5.10402 27.2456 4.8707C27.0123 4.63608 26.5566 4.70607 26.3791 4.75987C26.3538 4.767 25.9156 4.90375 25.1904 5.12736C24.48 3.07473 23.2285 1.18867 21.0255 1.18867C20.9646 1.18867 20.9017 1.19126 20.8382 1.19515C20.2121 0.363601 19.4356 0 18.7648 0C13.6323 0 12.3658 6.44954 11.5972 9.72714C9.60221 10.3468 8.07133 13.7579 7.8905 13.8149C6.77636 14.1662 6.74201 14.2012 6.59683 15.2557C6.4847 16.0529 2.5 35.7262 2.5 35.7262L25.1988 40L37.499 37.3252C37.499 37.3252 33.1818 7.99015 33.1546 7.78858C33.1274 7.58766 32.9511 7.47618 32.8059 7.46452ZM20.6697 6.31149C20.6697 6.38862 20.6684 6.46121 20.6684 6.53445C19.4188 6.92397 18.0629 7.34526 16.7012 7.76978C17.4653 4.80783 18.8964 3.37546 20.1492 2.83557C20.4636 3.63018 20.6697 4.77218 20.6697 6.31149ZM18.6229 1.38441C18.8471 1.38441 19.0688 1.45959 19.2827 1.60801C17.6371 2.38512 15.8748 4.34571 15.1295 8.25847C14.0413 8.5968 12.9783 8.92864 11.9938 9.23456C12.8662 6.24862 14.9363 1.38441 18.6229 1.38441ZM19.5076 18.8269C19.5076 18.8269 18.1789 18.1146 16.5515 18.1146C14.1625 18.1146 14.0419 19.6208 14.0419 19.9994C14.0419 22.0701 19.413 22.8641 19.413 27.714C19.413 31.5302 17.0058 33.9866 13.7574 33.9866C9.86081 33.9866 7.86717 31.549 7.86717 31.549L8.91001 28.0848C8.91001 28.0848 10.9581 29.8535 12.6886 29.8535C13.8164 29.8535 14.2759 28.9591 14.2759 28.3064C14.2759 25.605 9.86924 25.4845 9.86924 21.0454C9.86924 17.3116 12.5369 13.695 17.9242 13.695C19.9976 13.695 21.0242 14.2932 21.0242 14.2932L19.5076 18.8269ZM22.0152 6.11576C22.0152 5.979 22.0165 5.84549 22.0165 5.69836C22.0165 4.42414 21.8396 3.39685 21.557 2.5828C22.6925 2.72474 23.4489 4.02359 23.9356 5.51753C23.3659 5.69642 22.7178 5.89734 22.0152 6.11576Z" fill="#5D5775"/>
<path d="M25.1994 40.0003L37.4996 37.3261C37.4996 37.3261 33.1824 7.99112 33.1552 7.78955C33.1279 7.58798 32.9523 7.47715 32.8065 7.46548C32.6632 7.45187 29.6047 7.22503 29.6047 7.22503C29.6047 7.22503 27.4788 5.10499 27.2462 4.87167C27.1217 4.74593 26.9357 4.71028 26.7601 4.70898C26.2934 5.4997 26.39 7.00142 26.39 7.00142L24.9434 39.9517L25.1994 40.0003Z" fill="#CE99F7"/>
<path d="M21.0272 1.18867C20.9663 1.18867 20.9034 1.19126 20.8399 1.19515C20.2138 0.363601 19.4374 0 18.7666 0C13.6547 0 11.2003 6.39899 10.4219 9.6876L12.0078 9.19567C12.8854 6.20844 14.9536 1.38376 18.6246 1.38376C18.8489 1.38376 19.0705 1.45894 19.2844 1.60736C17.6433 2.38188 15.8856 4.33534 15.1377 8.22672L16.7126 7.74062C17.4787 4.79746 18.904 3.37287 20.1523 2.83492C20.4659 3.63018 20.6727 4.77153 20.6727 6.31084C20.6727 6.38084 20.6727 6.4476 20.6714 6.51436L22.0182 6.09761C22.0182 5.96798 22.0195 5.83836 22.0195 5.69771C22.0195 4.42349 21.8426 3.3962 21.56 2.58215C22.6916 2.72344 23.4473 4.01646 23.9334 5.50392L25.1895 5.1144C24.4772 3.0676 23.2263 1.18867 21.0272 1.18867Z" fill="#5D5775"/>
<path d="M30.1167 7.26196C29.8095 7.23798 29.6028 7.22307 29.6028 7.22307C29.6028 7.22307 27.4769 5.10304 27.2442 4.86971C27.1198 4.74397 26.9338 4.70833 26.7581 4.70703C26.2915 5.49775 26.388 6.99947 26.388 6.99947L24.9414 39.9498L25.1981 39.9984L31.7429 38.5751L30.1167 7.26196Z" fill="#CE99F7"/>
</svg>
