<svg width="65" height="66" viewBox="0 0 65 66" fill="none" xmlns="http://www.w3.org/2000/svg">
<rect width="65" height="65" rx="5" fill="#FFF6FF"/>
<g filter="url(#filter0_d_2835_12898)">
<path d="M52.0001 21.0312V20.0315C51.9968 17.2714 49.76 15.0345 46.9999 15.0312H16.9999C14.2397 15.0345 12.0033 17.2714 12 20.0315V21.0312H52.0001Z" fill="#CE99F7"/>
<path d="M12 23.0312V46.0311C12.0033 48.7913 14.2397 51.0281 16.9999 51.031H46.9999C49.76 51.0281 51.9968 48.7913 52.0001 46.0311V23.0312H12ZM18 30.031C18 29.7659 18.1051 29.5114 18.2926 29.3239C18.4805 29.1364 18.7346 29.0309 19.0001 29.0312H27C27.2651 29.0309 27.5197 29.1364 27.7072 29.3239C27.895 29.5114 28.0001 29.7659 28.0001 30.031V36.031C28.0001 36.2965 27.895 36.5507 27.7072 36.7385C27.5197 36.926 27.2651 37.0311 27 37.0311H19.0001C18.7346 37.0311 18.4805 36.926 18.2926 36.7385C18.1051 36.5507 18 36.2965 18 36.031V30.031ZM45 43.0311H19.0001C18.4479 43.0311 18 42.5833 18 42.031C18 41.4788 18.4479 41.0312 19.0001 41.0312H45C45.5522 41.0312 46.0001 41.4788 46.0001 42.031C46.0001 42.5833 45.5522 43.0311 45 43.0311ZM45 37.0311H33C32.4478 37.0311 31.9999 36.5833 31.9999 36.031C31.9999 35.4788 32.4478 35.0312 33 35.0312H45C45.5522 35.0312 46.0001 35.4788 46.0001 36.031C46.0001 36.5833 45.5522 37.0311 45 37.0311ZM45 31.0311H33C32.4478 31.0311 31.9999 30.5833 31.9999 30.031C31.9999 29.4788 32.4478 29.0312 33 29.0312H45C45.5522 29.0312 46.0001 29.4788 46.0001 30.031C46.0001 30.5833 45.5522 31.0311 45 31.0311Z" fill="#5D5775"/>
<path d="M20 31.0312H26V35.0314H20V31.0312Z" fill="#CE99F7"/>
</g>
<defs>
<filter id="filter0_d_2835_12898" x="2" y="7" width="60" height="60" filterUnits="userSpaceOnUse" color-interpolation-filters="sRGB">
<feFlood flood-opacity="0" result="BackgroundImageFix"/>
<feColorMatrix in="SourceAlpha" type="matrix" values="0 0 0 0 0 0 0 0 0 0 0 0 0 0 0 0 0 0 127 0" result="hardAlpha"/>
<feOffset dy="4"/>
<feGaussianBlur stdDeviation="5"/>
<feComposite in2="hardAlpha" operator="out"/>
<feColorMatrix type="matrix" values="0 0 0 0 0.341176 0 0 0 0 0.6 0 0 0 0 0.0627451 0 0 0 0.1 0"/>
<feBlend mode="normal" in2="BackgroundImageFix" result="effect1_dropShadow_2835_12898"/>
<feBlend mode="normal" in="SourceGraphic" in2="effect1_dropShadow_2835_12898" result="shape"/>
</filter>
</defs>
</svg>
