<svg width="40" height="40" viewBox="0 0 40 40" fill="none" xmlns="http://www.w3.org/2000/svg">
<path d="M1 3.24409C1 2.00472 2.50116 1 4.35294 1H35.6471C37.4988 1 39 2.00472 39 3.24409V8.25591C39 9.49529 37.4988 10.5 35.6471 10.5H4.35294C2.50116 10.5 1 9.49529 1 8.25591V3.24409Z" fill="#5D5775"/>
<path d="M21.7002 15.8437C21.7002 14.6141 22.6932 13.6172 23.9181 13.6172H36.7819C38.0068 13.6172 38.9998 14.6141 38.9998 15.8438V22.5234C38.9998 23.7531 38.0068 24.75 36.7819 24.75H23.9181C22.6932 24.75 21.7002 23.7531 21.7002 22.5234V15.8437Z" fill="#CE99F7"/>
<path d="M21.7002 30.0937C21.7002 28.8641 22.6932 27.8672 23.9181 27.8672H36.7819C38.0068 27.8672 38.9998 28.8641 38.9998 30.0938V36.7734C38.9998 38.0031 38.0068 39 36.7819 39H23.9181C22.6932 39 21.7002 38.0031 21.7002 36.7734V30.0937Z" fill="#CE99F7"/>
<path fill-rule="evenodd" clip-rule="evenodd" d="M33.2202 5.21463C33.2202 5.99807 32.5876 6.63318 31.8072 6.63318C31.0268 6.63318 30.3941 5.99807 30.3941 5.21463C30.3941 4.43118 31.0268 3.79607 31.8072 3.79607C32.5876 3.79607 33.2202 4.43118 33.2202 5.21463ZM32.8635 7.27434C32.547 7.43826 32.1879 7.53082 31.8072 7.53082C30.533 7.53082 29.5 6.49382 29.5 5.21463C29.5 3.93543 30.533 2.89844 31.8072 2.89844C33.0814 2.89844 34.1144 3.93543 34.1144 5.21463C34.1144 5.59952 34.0208 5.96249 33.8554 6.28188C33.8979 6.3093 33.9382 6.34169 33.9754 6.37903L34.9624 7.36987C35.2423 7.65092 35.2423 8.1066 34.9624 8.38765C34.6824 8.6687 34.2285 8.6687 33.9485 8.38765L32.9616 7.39681C32.9238 7.35888 32.8911 7.31777 32.8635 7.27434Z" fill="#CE99F7"/>
<mask id="mask0_3053_6618" style="mask-type:alpha" maskUnits="userSpaceOnUse" x="1" y="13" width="18" height="26">
<path opacity="0.8" d="M1 15.8438C1 14.6141 1.99299 13.6172 3.2179 13.6172H16.0817C17.3066 13.6172 18.2996 14.6141 18.2996 15.8438V36.7734C18.2996 38.0031 17.3066 39 16.0817 39H3.2179C1.99299 39 1 38.0031 1 36.7734V15.8438Z" fill="#5D5775"/>
</mask>
<g mask="url(#mask0_3053_6618)">
<path opacity="0.8" d="M1 15.8438C1 14.6141 1.99299 13.6172 3.2179 13.6172H16.0817C17.3066 13.6172 18.2996 14.6141 18.2996 15.8438V36.7734C18.2996 38.0031 17.3066 39 16.0817 39H3.2179C1.99299 39 1 38.0031 1 36.7734V15.8438Z" fill="white"/>
<path d="M1.38049 37.3504C0.80306 36.7707 0.80306 35.8309 1.38049 35.2512L12.2017 24.3877C12.7791 23.808 13.7153 23.808 14.2928 24.3877L25.114 35.2512C25.6914 35.8309 25.6914 36.7707 25.114 37.3504L14.2928 48.2139C13.7153 48.7936 12.7791 48.7936 12.2017 48.2139L1.38049 37.3504Z" fill="#CE99F7"/>
<path d="M-6.30896 38.7605C-6.88639 38.1809 -6.88639 37.241 -6.30896 36.6613L4.51225 25.7978C5.08967 25.2182 6.02587 25.2182 6.6033 25.7978L17.4245 36.6613C18.0019 37.241 18.0019 38.1809 17.4245 38.7605L6.6033 49.624C6.02587 50.2037 5.08967 50.2037 4.51225 49.624L-6.30896 38.7605Z" fill="#5D5775"/>
</g>
</svg>
