<svg width="40" height="40" viewBox="0 0 40 40" fill="none" xmlns="http://www.w3.org/2000/svg">
<path d="M26.9907 13.2451C26.9938 12.6583 26.5305 12.1958 25.9448 12.16L24.3998 12.0656C23.828 12.0307 23.3228 12.4377 23.2503 13.0059C23.2158 13.2757 23.1842 13.5424 23.1545 13.8075C23.1377 13.9566 23.2437 14.0891 23.3921 14.1103C24.2368 14.2535 25.0915 14.3239 25.947 14.3213C26.5291 14.3195 26.9876 13.8272 26.9907 13.2451Z" fill="#CE99F7"/>
<path d="M23.2026 15.5252C23.0901 15.5104 22.9881 15.5931 22.98 15.7064C22.9478 16.1582 22.9244 16.6105 22.91 17.0631C22.8779 18.071 23.8873 18.7609 24.8878 18.6344C25.2797 18.5848 25.6749 18.5595 26.0712 18.5588C26.3683 18.5588 26.6274 18.3586 26.6648 18.0639C26.7266 17.5777 26.7807 17.0998 26.8258 16.6313C26.8721 16.1486 26.4683 15.7616 25.9834 15.7616C25.0521 15.7465 24.123 15.6675 23.2026 15.5252Z" fill="#CE99F7"/>
<path d="M11.1509 0.00576526C11.0545 0.0290707 10.9853 0.113724 10.9817 0.212908L10.9054 2.32059C10.8818 2.97276 11.3241 3.60144 11.9659 3.48362C12.5938 3.30388 12.7114 2.54374 12.4004 1.96942L11.3967 0.115765C11.3487 0.0281813 11.2482 -0.0167704 11.1509 0.00576526Z" fill="#CE99F7"/>
<path d="M14.572 14.6136C14.9555 14.5244 15.3389 14.7624 15.4291 15.1457L17.0856 22.2119C17.2163 22.7695 18.0141 22.8814 18.3581 22.4237C18.4714 22.2731 18.5162 22.0807 18.4734 21.8973L15.6128 9.65089C15.5086 9.20445 14.9079 9.05261 14.5178 9.29346C14.2919 9.43298 14.1565 9.69432 14.2171 9.95288L14.6184 11.665C14.6817 11.9153 14.605 12.1804 14.4178 12.3582C14.2306 12.536 13.9619 12.5989 13.7152 12.5227C13.4685 12.4465 13.2821 12.2431 13.2277 11.9907L12.7544 9.96954C12.7358 9.89032 12.6655 9.84288 12.5841 9.84288C11.9957 9.84217 11.3803 10.3698 11.5146 10.9427L14.2213 22.4925C14.2812 22.7478 14.4918 22.9383 14.749 22.99C15.2448 23.0898 15.7255 22.6543 15.61 22.162L14.0413 15.4715C13.9515 15.0881 14.1889 14.7044 14.572 14.6136Z" fill="#CE99F7"/>
<path d="M28.7354 6.15906C28.3508 3.80138 24.8548 4.2184 23.2707 6.00649C23.1985 6.08803 23.1248 6.17031 23.0497 6.25335C22.4703 6.82255 22.1483 7.60366 22.1584 8.41585C22.1612 8.63997 22.1892 8.8611 22.2408 9.07547C22.5035 10.1675 23.7041 10.593 24.8252 10.662C26.3664 10.7569 27.9921 10.141 28.46 8.6695C28.7153 7.86684 28.812 7.01406 28.7354 6.15906ZM26.2033 9.7712C25.9327 9.7712 25.6854 9.61835 25.5644 9.37636C25.4434 9.13437 25.4695 8.84479 25.6319 8.62835C26.2578 7.77059 26.5138 6.69774 26.3426 5.64978C26.27 5.401 26.3379 5.13244 26.52 4.94803C26.702 4.76361 26.9697 4.69227 27.2194 4.76159C27.4691 4.83092 27.6617 5.03004 27.7226 5.28192C28.0089 6.755 27.6643 8.28067 26.7726 9.48763C26.6377 9.66609 26.427 9.77104 26.2033 9.7712Z" fill="#CE99F7"/>
<path d="M36.755 12.1889C37.0855 11.3907 36.1973 10.6384 35.4644 11.0958L35.2286 11.243C34.9714 11.4035 34.8054 11.6745 34.7653 11.9749C34.6873 12.5602 34.5726 13.1396 34.4222 13.7097C34.1327 14.8067 33.9973 16.104 34.9221 16.7613C35.1008 16.8883 35.2945 16.9959 35.5006 17.0812C35.7072 17.1667 35.921 17.2276 36.1378 17.264C37.2556 17.4516 38.076 16.4397 38.6464 15.4602C38.9433 14.9505 39.272 14.4594 39.6308 13.9901C39.8145 13.7497 39.8886 13.4412 39.8203 13.1465L39.7573 12.8743C39.5626 12.0341 38.4042 11.9389 38.075 12.736C37.924 13.1006 37.506 13.2736 37.1415 13.1225C36.777 12.9714 36.604 12.5534 36.755 12.1889Z" fill="#CE99F7"/>
<path d="M32.9285 21.4429C33.8405 22.367 35.6683 22.2863 36.1654 21.0869L36.9694 19.1468C37.0437 18.9674 36.8969 18.7717 36.7026 18.7724C36.1013 18.7667 35.5072 18.6414 34.9548 18.4039C34.0172 18.0365 32.7077 18.2346 32.3228 19.1651L32.2302 19.389C31.971 20.0155 32.1806 20.7297 32.6742 21.1945C32.7605 21.2758 32.8453 21.3586 32.9285 21.4429Z" fill="#CE99F7"/>
<path d="M35.7143 31.4137C35.3936 31.4141 35.0739 31.4491 34.7607 31.518C34.5124 31.5726 34.2538 31.491 34.0817 31.3039C33.9096 31.1168 33.8499 30.8523 33.925 30.6095C34.1655 29.8288 34.2871 29.0163 34.2857 28.1995C34.2857 24.2296 31.4467 20.8278 27.5408 20.1177C23.635 19.4075 19.7802 21.5922 18.3829 25.308C18.3038 25.518 18.1308 25.6786 17.9155 25.7418C17.7003 25.805 17.4678 25.7634 17.2879 25.6295C15.2515 24.1001 12.5303 23.8398 10.2409 24.9552C7.95145 26.0706 6.47933 28.374 6.42857 30.9202C6.42448 31.1439 6.31582 31.3527 6.13498 31.4844C5.95414 31.6162 5.72203 31.6556 5.50786 31.5909C5.1114 31.4721 4.69959 31.4124 4.28571 31.4137C1.91878 31.4137 0 33.3325 0 35.6995C0 38.0664 1.91878 39.9852 4.28571 39.9852H35.7143C38.0812 39.9852 40 38.0664 40 35.6995C40 33.3325 38.0812 31.4137 35.7143 31.4137ZM11.6586 27.8059C11.6586 27.8052 11.6579 27.8047 11.6572 27.8049C10.7133 28.1276 10.0583 28.9892 10 29.9852C10 30.3797 9.6802 30.6995 9.28571 30.6995C8.89123 30.6995 8.57143 30.3797 8.57143 29.9852C8.57143 27.358 11.095 26.4852 11.2029 26.4502C11.5776 26.3243 11.9834 26.5261 12.1093 26.9009C12.235 27.2752 12.0338 27.6805 11.6599 27.8069C11.6593 27.8071 11.6586 27.8066 11.6586 27.8059ZM20.7357 24.8116C21.2153 22.8387 22.9698 21.4407 25 21.4137C25.3945 21.4128 25.7151 21.7317 25.7161 22.1262C25.7171 22.5207 25.3981 22.8413 25.0036 22.8423C23.6305 22.8765 22.4501 23.8252 22.1214 25.1587C22.0418 25.4765 21.7562 25.6994 21.4286 25.6995C21.3698 25.6997 21.3112 25.6925 21.2543 25.678C20.8719 25.5818 20.6398 25.194 20.7357 24.8116ZM28.1536 34.4423C27.9807 34.5207 27.7838 34.5271 27.6062 34.4601C27.4287 34.3931 27.2851 34.2582 27.2071 34.0852C26.8567 33.328 26.0986 32.843 25.2643 32.8423C24.7916 32.8413 24.3326 32.9992 23.9609 33.2903C23.946 33.302 23.9304 33.313 23.9137 33.322C23.9095 33.3243 23.9052 33.3265 23.9009 33.3287C23.8765 33.3413 23.8532 33.356 23.8311 33.3723C23.8292 33.3737 23.8273 33.3751 23.8254 33.3765C23.807 33.3899 23.7862 33.3995 23.764 33.4046C23.7486 33.4082 23.7334 33.4126 23.7184 33.4179C23.5949 33.4621 23.4608 33.468 23.3336 33.4345C23.2895 33.4252 23.2465 33.4118 23.205 33.3945C23.1647 33.3744 23.1264 33.3505 23.0907 33.323C23.0506 33.2961 23.0135 33.265 22.98 33.2302C22.9726 33.2224 22.964 33.2167 22.9557 33.2109C22.9402 33.2 22.9292 33.1843 22.9201 33.1677C22.9033 33.1372 22.8845 33.1074 22.8641 33.0792C22.8521 33.0626 22.8421 33.0443 22.8333 33.0258C22.3623 32.0368 21.3616 31.4078 20.2643 31.4137C18.6863 31.4137 17.4071 32.6929 17.4071 34.2709C17.407 34.6658 17.4872 35.0566 17.6429 35.4195C17.7171 35.5937 17.7191 35.7904 17.6484 35.9661C17.5777 36.1419 17.44 36.2823 17.2657 36.3566C17.1772 36.3945 17.082 36.414 16.9857 36.4137C16.6994 36.4137 16.4408 36.2428 16.3286 35.9795C16.0974 35.4395 15.9783 34.8582 15.9786 34.2709C15.974 32.4108 17.1723 30.761 18.9427 30.1902C20.197 29.7858 21.5347 29.9887 22.593 30.6793C23.36 31.1798 24.3484 31.4166 25.2643 31.4137C26.6591 31.415 27.9255 32.2281 28.5071 33.4959C28.5858 33.6683 28.5927 33.8648 28.5264 34.0423C28.4601 34.2198 28.326 34.3637 28.1536 34.4423Z" fill="#5D5775"/>
<path d="M13.1077 8.35056C13.8224 8.15473 14.3932 7.64013 14.6697 6.97453C14.8095 6.63794 14.7277 6.26124 14.5538 5.9409L14.3274 5.52382C13.956 4.83952 13.0457 4.67564 12.2927 4.87342C12.0546 4.92807 11.8111 4.95515 11.5669 4.95413C11.1678 4.95239 10.8004 5.24133 10.7861 5.64018L10.7432 6.82897C10.7299 7.19824 10.8257 7.57737 11.1055 7.8187C11.6482 8.28683 12.3841 8.49146 13.1077 8.35056Z" fill="#CE99F7"/>
<path d="M3.88532 16.687C3.88603 16.687 3.88673 16.6869 3.88739 16.6866L5.869 15.8661C6.23359 15.7151 6.40666 15.2971 6.25549 14.9326C6.10447 14.5685 5.68697 14.3956 5.3227 14.5463L3.01199 15.5025C1.3694 16.1821 0.589479 18.0653 1.2705 19.7073L3.01233 23.9071C3.7037 25.5741 6.85727 25.5874 8.29985 24.5031C8.5797 24.2927 8.8739 24.0993 9.1811 23.9245C9.54078 23.7199 9.71589 23.284 9.55752 22.9017C9.39515 22.5097 8.94579 22.3236 8.55378 22.4859L6.62068 23.2863C6.5341 23.3219 6.44143 23.3403 6.34782 23.3406C6.00639 23.3422 5.71158 23.1019 5.64425 22.7672C5.57692 22.4324 5.7559 22.0968 6.0714 21.9663L8.05441 21.1452C8.41884 20.9943 8.59196 20.5766 8.4411 20.2122C8.29019 19.8476 7.87227 19.6745 7.50778 19.8255L6.84568 20.0999C6.75908 20.1354 6.66643 20.1538 6.57282 20.1542C6.2318 20.1547 5.93795 19.9141 5.8712 19.5797C5.80446 19.2452 5.98343 18.9103 6.29854 18.7799L6.96099 18.5054C7.32537 18.3544 7.49841 17.9367 7.34756 17.5722C7.19663 17.2076 6.77867 17.0345 6.41412 17.1855L4.4314 18.007C4.34458 18.0427 4.25167 18.0611 4.15782 18.0613C3.81693 18.0615 3.5234 17.8208 3.45685 17.4865C3.39037 17.1525 3.56889 16.8181 3.88326 16.6874C3.88391 16.6871 3.88462 16.687 3.88532 16.687Z" fill="#CE99F7"/>
</svg>
