<svg width="65" height="65" viewBox="0 0 65 65" fill="none" xmlns="http://www.w3.org/2000/svg">
<rect width="65" height="65" rx="5" fill="#FFF6FF"/>
<path d="M13 16.2441C13 15.0047 14.5012 14 16.3529 14H47.6471C49.4988 14 51 15.0047 51 16.2441V21.2559C51 22.4953 49.4988 23.5 47.6471 23.5H16.3529C14.5012 23.5 13 22.4953 13 21.2559V16.2441Z" fill="#5D5775"/>
<path d="M33.7002 28.8437C33.7002 27.6141 34.6932 26.6172 35.9181 26.6172H48.7819C50.0068 26.6172 50.9998 27.6141 50.9998 28.8438V35.5234C50.9998 36.7531 50.0068 37.75 48.7819 37.75H35.9181C34.6932 37.75 33.7002 36.7531 33.7002 35.5234V28.8437Z" fill="#CE99F7"/>
<path d="M33.7002 43.0937C33.7002 41.8641 34.6932 40.8672 35.9181 40.8672H48.7819C50.0068 40.8672 50.9998 41.8641 50.9998 43.0938V49.7734C50.9998 51.0031 50.0068 52 48.7819 52H35.9181C34.6932 52 33.7002 51.0031 33.7002 49.7734V43.0937Z" fill="#CE99F7"/>
<path fill-rule="evenodd" clip-rule="evenodd" d="M45.2202 18.2146C45.2202 18.9981 44.5876 19.6332 43.8072 19.6332C43.0268 19.6332 42.3941 18.9981 42.3941 18.2146C42.3941 17.4312 43.0268 16.7961 43.8072 16.7961C44.5876 16.7961 45.2202 17.4312 45.2202 18.2146ZM44.8635 20.2743C44.547 20.4383 44.1879 20.5308 43.8072 20.5308C42.533 20.5308 41.5 19.4938 41.5 18.2146C41.5 16.9354 42.533 15.8984 43.8072 15.8984C45.0814 15.8984 46.1144 16.9354 46.1144 18.2146C46.1144 18.5995 46.0208 18.9625 45.8554 19.2819C45.8979 19.3093 45.9382 19.3417 45.9754 19.379L46.9624 20.3699C47.2423 20.6509 47.2423 21.1066 46.9624 21.3876C46.6824 21.6687 46.2285 21.6687 45.9485 21.3876L44.9616 20.3968C44.9238 20.3589 44.8911 20.3178 44.8635 20.2743Z" fill="#CE99F7"/>
<mask id="mask0_2835_6774" style="mask-type:alpha" maskUnits="userSpaceOnUse" x="13" y="26" width="18" height="26">
<path opacity="0.8" d="M13 28.8438C13 27.6141 13.993 26.6172 15.2179 26.6172H28.0817C29.3066 26.6172 30.2996 27.6141 30.2996 28.8438V49.7734C30.2996 51.0031 29.3066 52 28.0817 52H15.2179C13.993 52 13 51.0031 13 49.7734V28.8438Z" fill="#5D5775"/>
</mask>
<g mask="url(#mask0_2835_6774)">
<path opacity="0.8" d="M13 28.8438C13 27.6141 13.993 26.6172 15.2179 26.6172H28.0817C29.3066 26.6172 30.2996 27.6141 30.2996 28.8438V49.7734C30.2996 51.0031 29.3066 52 28.0817 52H15.2179C13.993 52 13 51.0031 13 49.7734V28.8438Z" fill="white"/>
<path d="M13.3805 50.3504C12.8031 49.7707 12.8031 48.8309 13.3805 48.2512L24.2017 37.3877C24.7791 36.808 25.7153 36.808 26.2928 37.3877L37.114 48.2512C37.6914 48.8309 37.6914 49.7707 37.114 50.3504L26.2928 61.2139C25.7153 61.7936 24.7791 61.7936 24.2017 61.2139L13.3805 50.3504Z" fill="#CE99F7"/>
<path d="M5.69104 51.7605C5.11361 51.1809 5.11361 50.241 5.69104 49.6613L16.5122 38.7978C17.0897 38.2182 18.0259 38.2182 18.6033 38.7978L29.4245 49.6613C30.0019 50.241 30.0019 51.1809 29.4245 51.7605L18.6033 62.624C18.0259 63.2037 17.0897 63.2037 16.5122 62.624L5.69104 51.7605Z" fill="#5D5775"/>
</g>
</svg>
