<svg width="44" height="44" viewBox="0 0 44 44" fill="none" xmlns="http://www.w3.org/2000/svg">
<rect width="44" height="44" fill="#CCE0A5" fill-opacity="0.1"/>
<path d="M21.9805 22.0005C21.9805 20.0564 23.5762 18.4805 25.5446 18.4805C27.513 18.4805 29.1088 20.0565 29.1088 22.0005C29.1088 23.9446 27.513 25.5205 25.5446 25.5205C23.5762 25.5205 21.9805 23.9445 21.9805 22.0005Z" fill="#00BCFF"/>
<path d="M14.8516 29.0397C14.8516 27.0956 16.4473 25.5197 18.4157 25.5197L20.3151 24.5293L21.9799 25.5197V29.0397C21.9799 30.9838 20.3841 32.5597 18.4157 32.5597C16.4473 32.5597 14.8516 30.9837 14.8516 29.0397Z" fill="#00CF7F"/>
<path d="M21.9785 11.4395L20.0391 14.7671L21.9785 18.4795H25.4927C27.4611 18.4795 29.0568 16.9035 29.0568 14.9595C29.0568 13.0154 27.4611 11.4395 25.4927 11.4395H21.9785Z" fill="#FF7361"/>
<path d="M14.8008 14.9595C14.8008 16.9035 16.3965 18.4795 18.3649 18.4795L20.2556 19.2007L21.9791 18.4795V11.4395H18.3649C16.3965 11.4395 14.8008 13.0154 14.8008 14.9595Z" fill="#FF4D12"/>
<path d="M14.8516 22.0005C14.8516 23.9446 16.4473 25.5205 18.4157 25.5205H21.9799V18.4805H18.4157C16.4473 18.4805 14.8516 20.0565 14.8516 22.0005Z" fill="#B659FF"/>
</svg>
