<svg width="30" height="30" viewBox="0 0 30 30" fill="none" xmlns="http://www.w3.org/2000/svg">
<rect width="30" height="30" fill="#FAFAFA"/>
<path d="M14.9775 15.0008C14.9775 12.8948 16.7062 11.1875 18.8387 11.1875C20.9712 11.1875 22.6999 12.8948 22.6999 15.0008C22.6999 17.1069 20.9711 18.8142 18.8387 18.8142C16.7062 18.8142 14.9775 17.1069 14.9775 15.0008Z" fill="#00BCFF"/>
<path d="M7.25488 22.6265C7.25488 20.5204 8.98359 18.8131 11.1161 18.8131L13.1737 17.7402L14.9772 18.8131V22.6265C14.9772 24.7326 13.2485 26.4398 11.1161 26.4398C8.98359 26.4398 7.25488 24.7325 7.25488 22.6265Z" fill="#00CF7F"/>
<path d="M14.977 3.56055L12.876 7.16551L14.977 11.1872H18.784C20.9165 11.1872 22.6452 9.47993 22.6452 7.37388C22.6452 5.26784 20.9165 3.56055 18.784 3.56055H14.977Z" fill="#FF7361"/>
<path d="M7.2002 7.37389C7.2002 9.47993 8.9289 11.1872 11.0614 11.1872L13.1096 11.9685L14.9767 11.1872V3.56055H11.0613C8.9289 3.56055 7.2002 5.26784 7.2002 7.37389Z" fill="#FF4D12"/>
<path d="M7.25488 15.0009C7.25488 17.107 8.98359 18.8142 11.1161 18.8142H14.9772V11.1875H11.1161C8.98359 11.1875 7.25488 12.8948 7.25488 15.0009Z" fill="#B659FF"/>
</svg>
