<svg width="22" height="20" viewBox="0 0 22 20" fill="none" xmlns="http://www.w3.org/2000/svg">
<path d="M15.7999 3.28047C15.7999 2.71084 15.9688 2.15401 16.2852 1.68038C16.6017 1.20676 17.0515 0.837611 17.5778 0.619625C18.104 0.401639 18.6831 0.344603 19.2418 0.455732C19.8005 0.56686 20.3137 0.841161 20.7164 1.24395C21.1192 1.64673 21.3935 2.15991 21.5047 2.71859C21.6158 3.27727 21.5588 3.85636 21.3408 4.38262C21.1228 4.90889 20.7536 5.3587 20.28 5.67516C19.8064 5.99163 19.2496 6.16054 18.6799 6.16054C17.9161 6.16054 17.1835 5.85711 16.6434 5.31699C16.1033 4.77687 15.7999 4.04431 15.7999 3.28047ZM1.39948 4.24049H12.9198C13.1744 4.24049 13.4186 4.13935 13.5986 3.95931C13.7787 3.77927 13.8798 3.53508 13.8798 3.28047C13.8798 3.02585 13.7787 2.78167 13.5986 2.60163C13.4186 2.42159 13.1744 2.32044 12.9198 2.32044H1.39948C1.14486 2.32044 0.900678 2.42159 0.720638 2.60163C0.540598 2.78167 0.439453 3.02585 0.439453 3.28047C0.439453 3.53508 0.540598 3.77927 0.720638 3.95931C0.900678 4.13935 1.14486 4.24049 1.39948 4.24049ZM7.15963 7.12057C6.56543 7.12224 5.98629 7.30766 5.5016 7.6514C5.01692 7.99515 4.65042 8.48039 4.45236 9.04062H1.39948C1.14486 9.04062 0.900678 9.14176 0.720638 9.3218C0.540598 9.50184 0.439453 9.74603 0.439453 10.0006C0.439453 10.2553 0.540598 10.4994 0.720638 10.6795C0.900678 10.8595 1.14486 10.9607 1.39948 10.9607H4.45236C4.62848 11.4588 4.93823 11.8989 5.34772 12.2328C5.75721 12.5667 6.25065 12.7815 6.77405 12.8537C7.29744 12.9259 7.83062 12.8527 8.31522 12.6422C8.79982 12.4317 9.21718 12.092 9.52162 11.6601C9.82606 11.2283 10.0058 10.7211 10.0413 10.1939C10.0768 9.66673 9.96651 9.13998 9.72264 8.67127C9.47877 8.20257 9.11066 7.80998 8.65861 7.53647C8.20656 7.26297 7.68798 7.11908 7.15963 7.12057ZM20.6 9.04062H12.9198C12.6652 9.04062 12.421 9.14176 12.2409 9.3218C12.0609 9.50184 11.9598 9.74603 11.9598 10.0006C11.9598 10.2553 12.0609 10.4994 12.2409 10.6795C12.421 10.8595 12.6652 10.9607 12.9198 10.9607H20.6C20.8546 10.9607 21.0988 10.8595 21.2788 10.6795C21.4589 10.4994 21.56 10.2553 21.56 10.0006C21.56 9.74603 21.4589 9.50184 21.2788 9.3218C21.0988 9.14176 20.8546 9.04062 20.6 9.04062ZM9.07968 15.7608H1.39948C1.14486 15.7608 0.900678 15.8619 0.720638 16.042C0.540598 16.222 0.439453 16.4662 0.439453 16.7208C0.439453 16.9754 0.540598 17.2196 0.720638 17.3997C0.900678 17.5797 1.14486 17.6808 1.39948 17.6808H9.07968C9.33429 17.6808 9.57848 17.5797 9.75852 17.3997C9.93856 17.2196 10.0397 16.9754 10.0397 16.7208C10.0397 16.4662 9.93856 16.222 9.75852 16.042C9.57848 15.8619 9.33429 15.7608 9.07968 15.7608ZM20.6 15.7608H17.5471C17.3206 15.1203 16.875 14.5804 16.289 14.2366C15.703 13.8929 15.0143 13.7673 14.3447 13.8822C13.6751 13.9971 13.0677 14.345 12.6298 14.8645C12.1918 15.3839 11.9517 16.0414 11.9517 16.7208C11.9517 17.4002 12.1918 18.0577 12.6298 18.5772C13.0677 19.0966 13.6751 19.4445 14.3447 19.5594C15.0143 19.6743 15.703 19.5488 16.289 19.205C16.875 18.8612 17.3206 18.3214 17.5471 17.6808H20.6C20.8546 17.6808 21.0988 17.5797 21.2788 17.3997C21.4589 17.2196 21.56 16.9754 21.56 16.7208C21.56 16.4662 21.4589 16.222 21.2788 16.042C21.0988 15.8619 20.8546 15.7608 20.6 15.7608Z" fill="#5D5775"/>
</svg>
