<svg width="17" height="17" viewBox="0 0 17 17" fill="none" xmlns="http://www.w3.org/2000/svg">
<path fill-rule="evenodd" clip-rule="evenodd" d="M16.6907 6.90309H9.00253C9.00253 7.70264 9.00253 9.30174 8.99763 10.1013H13.4527C13.282 10.9008 12.6767 12.0202 11.8215 12.5839C11.8207 12.5831 11.8198 12.5887 11.8182 12.5879C10.6812 13.3387 9.18061 13.509 8.06642 13.2851C6.32 12.9381 4.93789 11.6716 4.37671 10.0629C4.37998 10.0605 4.38243 10.0381 4.38488 10.0365C4.03364 9.03869 4.03364 7.70264 4.38488 6.90309H4.38407C4.8366 5.43352 6.26037 4.09267 8.00925 3.72568C9.41586 3.42745 11.003 3.75047 12.1703 4.84265C12.3255 4.69074 14.3186 2.74463 14.4681 2.58632C10.4802 -1.02524 4.0949 0.24524 1.70562 4.90901H1.7048C1.7048 4.90901 1.70562 4.90901 1.70071 4.91781C0.518732 7.20852 0.567743 9.9078 1.70888 12.089C1.70562 12.0914 1.70316 12.093 1.70071 12.0954C2.73485 14.1022 4.61687 15.6414 6.88444 16.2274C9.29333 16.8591 12.359 16.4273 14.4125 14.57C14.4133 14.5708 14.4142 14.5716 14.415 14.5724C16.1549 13.0053 17.238 10.3356 16.6907 6.90309Z" fill="#0D0C0D"/>
</svg>
