<svg width="30" height="30" viewBox="0 0 30 30" fill="none" xmlns="http://www.w3.org/2000/svg">
<path d="M27.9339 9.64409C27.873 8.26261 27.6496 7.31285 27.3295 6.48987C26.9993 5.6163 26.4912 4.8342 25.8257 4.18403C25.1754 3.52374 24.388 3.01067 23.5244 2.68568C22.6965 2.36566 21.7515 2.14226 20.3697 2.08135C18.9777 2.01528 18.5357 2 15.0051 2C11.4744 2 11.0325 2.01528 9.64555 2.07619C8.2638 2.1371 7.31387 2.3607 6.49093 2.68052C5.61699 3.01067 4.83474 3.51858 4.18444 4.18403C3.52403 4.8342 3.01106 5.62146 2.68581 6.48491C2.36573 7.31285 2.14228 8.25745 2.08136 9.63894C2.01528 11.0307 2 11.4726 2 15.0026C2 18.5326 2.01528 18.9744 2.0762 20.3611C2.13712 21.7425 2.36077 22.6923 2.68085 23.5153C3.01106 24.3889 3.52403 25.171 4.18444 25.8211C4.83474 26.4814 5.62215 26.9945 6.48577 27.3195C7.31387 27.6395 8.25865 27.8629 9.64059 27.9238C11.0273 27.9849 11.4694 28 15.0001 28C18.5308 28 18.9727 27.9849 20.3596 27.9238C21.7414 27.8629 22.6913 27.6395 23.5142 27.3195C25.2619 26.6439 26.6437 25.2624 27.3193 23.5153C27.6392 22.6873 27.8629 21.7425 27.9238 20.3611C27.9847 18.9744 28 18.5326 28 15.0026C28 11.4726 27.9948 11.0307 27.9339 9.64409ZM25.5921 20.2595C25.5361 21.5293 25.3228 22.2149 25.145 22.6721C24.7081 23.8048 23.8089 24.7037 22.676 25.1406C22.2188 25.3184 21.528 25.5317 20.263 25.5874C18.8913 25.6485 18.48 25.6636 15.0102 25.6636C11.5405 25.6636 11.1239 25.6485 9.75728 25.5874C8.48725 25.5317 7.80144 25.3184 7.34423 25.1406C6.78046 24.9323 6.26729 24.6021 5.85076 24.1704C5.41895 23.7488 5.08874 23.2409 4.88038 22.6772C4.70257 22.2201 4.48925 21.5293 4.43349 20.2646C4.37237 18.8933 4.35729 18.4818 4.35729 15.0127C4.35729 11.5436 4.37237 11.1272 4.43349 9.76095C4.48925 8.49117 4.70257 7.80549 4.88038 7.34837C5.08874 6.7845 5.41895 6.27163 5.85592 5.85498C6.27741 5.42326 6.78542 5.09311 7.34939 4.88499C7.8066 4.70722 8.49757 4.49393 9.76243 4.43798C11.1341 4.37707 11.5456 4.3618 15.0152 4.3618C18.4901 4.3618 18.9015 4.37707 20.2681 4.43798C21.5382 4.49393 22.224 4.70722 22.6812 4.88499C23.2449 5.09311 23.7581 5.42326 24.1746 5.85498C24.6065 6.27659 24.9367 6.7845 25.145 7.34837C25.3228 7.80549 25.5361 8.49613 25.5921 9.76095C25.653 11.1323 25.6683 11.5436 25.6683 15.0127C25.6683 18.4818 25.653 18.8881 25.5921 20.2595Z" fill="#5D5775"/>
<path d="M15 8C11.1355 8 8 11.1353 8 15C8 18.8647 11.1355 22 15 22C18.8647 22 22 18.8647 22 15C22 11.1353 18.8647 8 15 8ZM15 19.5407C12.4929 19.5407 10.4593 17.5073 10.4593 15C10.4593 12.4927 12.4929 10.4593 15 10.4593C17.5073 10.4593 19.5407 12.4927 19.5407 15C19.5407 17.5073 17.5073 19.5407 15 19.5407Z" fill="#5D5775"/>
<path d="M24 8.5C24 9.32835 23.1045 10 21.9999 10C20.8955 10 20 9.32835 20 8.5C20 7.67146 20.8955 7 21.9999 7C23.1045 7 24 7.67146 24 8.5Z" fill="#5D5775"/>
</svg>
