<svg width="276" height="40" viewBox="0 0 276 40" fill="none" xmlns="http://www.w3.org/2000/svg">
<path d="M45.2441 14.3633H46.7016L47.213 16.4508H50.7799V18.3008H47.571V25.7133C47.571 26.9633 48.1079 27.5258 49.1691 27.5258H50.7799V29.3758H48.581C46.3692 29.3758 45.2569 28.2133 45.2569 25.8883L45.2441 14.3633Z" fill="#AD54F2"/>
<path d="M59.193 16.4492C62.9517 16.4492 64.8311 18.2659 64.8311 21.8992C64.8284 22.4552 64.7899 23.0105 64.716 23.5617H55.4342C55.4342 26.2492 57.0196 27.4992 60.1646 27.4992C61.5152 27.5188 62.8619 27.3547 64.1662 27.0117V28.8742C62.7815 29.2304 61.3533 29.3987 59.9217 29.3742C55.3831 29.3742 53.1074 27.1617 53.1074 22.7617C53.1074 18.3617 55.1402 16.4492 59.193 16.4492ZM55.4342 21.6617H62.6449C62.6449 19.3992 61.4687 18.2742 59.2569 18.2742C58.7684 18.201 58.2694 18.2353 57.7961 18.3744C57.3229 18.5136 56.8873 18.7542 56.5212 19.0786C56.155 19.4031 55.8674 19.8034 55.6794 20.2502C55.4914 20.697 55.4076 21.1792 55.4342 21.6617Z" fill="#AD54F2"/>
<path d="M67.9629 29.3765V16.4515H69.5354L69.919 18.0765C71.0422 17.0457 72.5208 16.4657 74.0612 16.4515C74.8196 16.3609 75.5888 16.479 76.2822 16.7926C76.9756 17.1062 77.5658 17.6028 77.9862 18.2265C79.176 17.1372 80.7295 16.5066 82.3585 16.4515C85.3928 16.4515 86.9099 18.089 86.9099 21.364V29.3765H84.5703V21.2515C84.5703 19.3265 83.718 18.364 82.0134 18.364C81.3577 18.3918 80.715 18.5516 80.1255 18.8333C79.5359 19.1151 79.0122 19.5128 78.587 20.0015V29.3765H76.2602V21.2515C76.2602 19.3015 75.442 18.3265 73.7927 18.3265C73.1232 18.3408 72.465 18.4981 71.8643 18.7875C71.2635 19.0768 70.7348 19.4912 70.3153 20.0015V29.3765H67.9629Z" fill="#AD54F2"/>
<path d="M90.6709 16.9743C92.4594 16.6209 94.2798 16.445 96.1044 16.4493C100.349 16.4493 102.497 18.4993 102.497 22.5868C102.497 27.1118 100.375 29.3743 96.1044 29.3743C95.049 29.3708 94.0052 29.1582 93.0361 28.7493V34.0493H90.6709V16.9743ZM92.9977 26.7368C93.9506 27.1843 94.9962 27.411 96.0533 27.3993C98.8063 27.3993 100.179 25.7868 100.17 22.5618C100.17 19.7535 98.8063 18.3493 96.0789 18.3493C95.0443 18.3379 94.0114 18.4343 92.9977 18.6368V26.7368Z" fill="#AD54F2"/>
<path d="M108.057 11.7754V29.3754H105.73V11.7754H108.057Z" fill="#AD54F2"/>
<path d="M111.33 25.4742C111.33 22.8242 113.116 21.4992 116.687 21.4992C117.842 21.4975 118.995 21.5768 120.139 21.7367V20.4867C120.139 18.9992 118.95 18.2617 116.585 18.2617C115.168 18.2667 113.76 18.473 112.404 18.8742V17.0617C113.761 16.6666 115.169 16.4604 116.585 16.4492C120.514 16.4492 122.474 17.7867 122.466 20.4617V29.3742H121.187L120.382 28.1242C119.105 28.9521 117.605 29.3875 116.073 29.3742C112.911 29.3742 111.33 28.0742 111.33 25.4742ZM116.687 23.3367C114.667 23.3367 113.657 24.0367 113.657 25.4367C113.657 26.8242 114.462 27.5242 116.048 27.5242C117.533 27.5716 118.989 27.1218 120.177 26.2492V23.5867C119.021 23.4209 117.855 23.3373 116.687 23.3367Z" fill="#AD54F2"/>
<path d="M126.238 14.3633H127.709L128.207 16.4508H131.774V18.3008H128.565V25.7133C128.565 26.9633 129.102 27.5258 130.163 27.5258H131.774V29.3758H129.562C127.351 29.3758 126.238 28.2133 126.238 25.8883V14.3633Z" fill="#AD54F2"/>
<path d="M140.186 16.4492C143.945 16.4492 145.824 18.2659 145.824 21.8992C145.822 22.4552 145.783 23.0105 145.709 23.5617H136.44C136.44 26.1951 138.017 27.5159 141.171 27.5242C142.521 27.5422 143.868 27.3781 145.172 27.0367V28.8742C143.783 29.2295 142.351 29.3978 140.915 29.3742C136.376 29.3742 134.101 27.1617 134.101 22.7617C134.101 18.3617 136.133 16.4492 140.186 16.4492ZM136.44 21.6617H143.587C143.587 19.3992 142.398 18.2742 140.186 18.2742C139.703 18.2109 139.212 18.2527 138.747 18.3965C138.282 18.5404 137.856 18.7827 137.498 19.1063C137.14 19.4299 136.86 19.8267 136.677 20.2684C136.494 20.7102 136.413 21.1859 136.44 21.6617Z" fill="#AD54F2"/>
<path d="M155.784 22.2125C155.123 23.1929 154.763 24.3382 154.748 25.5125C154.782 26.5154 155.106 27.4883 155.683 28.3181C156.261 29.148 157.067 29.8005 158.008 30.2C158.817 30.5323 159.688 30.6941 160.565 30.675C161.407 30.6912 162.242 30.5203 163.007 30.1749C163.676 29.8952 164.242 29.4218 164.628 28.8186C165.015 28.2153 165.203 27.5109 165.168 26.8C165.149 26.1365 164.941 25.4914 164.567 24.9375C164.107 24.2225 163.486 23.6197 162.751 23.175L158.366 20.3C157.607 19.9158 156.968 19.3375 156.517 18.6266C156.067 17.9156 155.822 17.0986 155.809 16.2625C155.797 16.096 155.797 15.9289 155.809 15.7625C155.842 15.158 155.999 14.5663 156.271 14.0228C156.544 13.4793 156.926 12.9953 157.395 12.6C158.469 11.7308 159.837 11.2851 161.23 11.35C162.419 11.3648 163.606 11.4525 164.784 11.6125H166.382L166.05 15.3625H165.82C165.822 14.9566 165.731 14.5555 165.551 14.1895C165.372 13.8235 165.109 13.5022 164.784 13.25C164.022 12.695 163.087 12.4165 162.138 12.4625C161.584 12.4225 161.03 12.5156 160.522 12.7334C160.013 12.9513 159.568 13.2874 159.223 13.7125C158.95 14.0758 158.799 14.5121 158.788 14.9625C158.759 15.4188 158.915 15.8679 159.223 16.2125C159.63 16.6365 160.1 16.9989 160.616 17.2875L165.436 20.3625C166.338 20.913 167.113 21.6409 167.712 22.5C168.336 23.4018 168.678 24.4615 168.696 25.55C168.682 26.2779 168.535 26.9975 168.262 27.6749C167.959 28.4622 167.484 29.1749 166.868 29.7625C166.15 30.4136 165.307 30.9191 164.388 31.25C163.317 31.6593 162.175 31.863 161.025 31.85C159.882 31.8636 158.747 31.651 157.689 31.225C156.819 30.8927 156.046 30.3582 155.435 29.6677C154.825 28.9772 154.396 28.1516 154.186 27.2625C154.083 26.8534 154.032 26.4336 154.032 26.0125C154.051 24.5472 154.589 23.1337 155.554 22.0125L155.784 22.2125Z" fill="#AD54F2"/>
<path d="M179.945 12.7625V27.5C179.96 27.922 180.144 28.3214 180.457 28.6125C180.606 28.7583 180.783 28.8732 180.979 28.9505C181.174 29.0278 181.384 29.0659 181.594 29.0625H181.914V29.325H174.077V29.0625H174.409C174.618 29.0649 174.825 29.0264 175.019 28.9491C175.212 28.8718 175.387 28.7573 175.534 28.6125C175.843 28.3273 176.03 27.939 176.059 27.525V12.7625H172.594C172.252 12.7623 171.913 12.8294 171.597 12.9597C171.282 13.09 170.997 13.2809 170.758 13.521C170.52 13.7612 170.333 14.0457 170.209 14.3577C170.085 14.6698 170.027 15.0029 170.037 15.3375V15.6375H169.781V11.25C170.196 11.3918 170.624 11.4923 171.06 11.55C171.633 11.6558 172.215 11.7102 172.798 11.7125H183.18C183.875 11.7076 184.569 11.6364 185.251 11.5C185.58 11.4389 185.905 11.3553 186.222 11.25V15.6375H185.967V15.3375C185.984 15.0016 185.932 14.6657 185.813 14.3499C185.695 14.0342 185.512 13.7451 185.276 13.5C185.027 13.2604 184.731 13.0718 184.406 12.9452C184.081 12.8185 183.734 12.7564 183.384 12.7625H179.945Z" fill="#AD54F2"/>
<path d="M206.934 11.9867H206.487C206.144 11.9819 205.811 12.1022 205.554 12.3242C205.427 12.4257 205.326 12.5537 205.258 12.6987C205.189 12.8437 205.155 13.002 205.157 13.1617V22.9992C205.203 23.9098 205.048 24.8193 204.704 25.6666C204.36 26.5139 203.835 27.2795 203.163 27.9117C201.66 29.1808 199.712 29.8305 197.729 29.7242C195.501 29.8659 193.293 29.2376 191.49 27.9492C190.769 27.3445 190.199 26.586 189.825 25.7322C189.45 24.8784 189.281 23.952 189.33 23.0242V13.2492C189.337 13.078 189.305 12.9073 189.236 12.7496C189.168 12.5918 189.064 12.4508 188.933 12.3367C188.668 12.1012 188.32 11.9757 187.962 11.9867H187.553V11.7367H194.968V11.9867H194.559C194.211 11.9775 193.873 12.0982 193.613 12.3242C193.361 12.5457 193.209 12.8559 193.191 13.1867V22.8117C193.086 24.3282 193.539 25.8314 194.469 27.0492C194.922 27.5685 195.49 27.9794 196.131 28.2503C196.772 28.5211 197.467 28.6448 198.164 28.6117C198.876 28.662 199.589 28.5555 200.253 28.3003C200.917 28.045 201.514 27.6474 202 27.1367C202.913 26.0068 203.368 24.5869 203.278 23.1492V13.1492C203.281 12.9846 203.246 12.8214 203.175 12.6719C203.104 12.5225 202.999 12.3908 202.869 12.2867C202.603 12.062 202.261 11.9418 201.91 11.9492H201.488V11.6992H206.883L206.934 11.9867Z" fill="#AD54F2"/>
<path d="M225.153 14.1001C226.045 14.9243 226.743 15.9277 227.2 17.0412C227.657 18.1547 227.861 19.3518 227.799 20.5501C227.861 21.7483 227.657 22.9454 227.2 24.0589C226.743 25.1724 226.045 26.1758 225.153 27.0001C223.142 28.6618 220.559 29.5112 217.93 29.3751H208.584V29.1126H208.916C209.13 29.1168 209.343 29.0779 209.541 28.9983C209.739 28.9188 209.918 28.8002 210.067 28.6501C210.374 28.3509 210.552 27.9485 210.566 27.5251V13.4251C210.521 13.0284 210.328 12.6619 210.024 12.3964C209.719 12.1309 209.324 11.9852 208.916 11.9876H208.584V11.7376H217.93C220.557 11.598 223.14 12.4428 225.153 14.1001ZM217.597 28.3126C218.744 28.3434 219.87 28.01 220.806 27.3626C221.753 26.686 222.473 25.751 222.877 24.6751C223.389 23.3586 223.636 21.9581 223.606 20.5501C223.719 18.5409 223.153 16.5513 221.995 14.8876C221.495 14.2117 220.831 13.6666 220.065 13.3004C219.298 12.9342 218.45 12.7581 217.597 12.7876H214.427V28.3126H217.597Z" fill="#AD54F2"/>
<path d="M229.744 29.1133C229.955 29.1158 230.166 29.0761 230.361 28.9966C230.557 28.917 230.734 28.7994 230.881 28.6508C231.192 28.3528 231.375 27.9507 231.393 27.5258V13.5508C231.378 13.1288 231.194 12.7293 230.881 12.4383C230.732 12.2937 230.554 12.1794 230.359 12.1022C230.163 12.025 229.954 11.9863 229.744 11.9883H229.398V11.7383H237.236V11.9883H236.929C236.495 11.9831 236.078 12.1447 235.765 12.4383C235.609 12.5801 235.485 12.7524 235.401 12.9441C235.318 13.1357 235.276 13.3424 235.279 13.5508V27.5008C235.278 27.7108 235.32 27.919 235.403 28.1125C235.487 28.3059 235.61 28.4806 235.765 28.6258C235.918 28.7751 236.099 28.893 236.299 28.9724C236.499 29.0519 236.713 29.0913 236.929 29.0883H237.236V29.3508H229.398V29.0883L229.744 29.1133Z" fill="#AD54F2"/>
<path d="M249.034 11.3748C251.794 11.2389 254.504 12.1325 256.616 13.8748C257.556 14.7234 258.295 15.7628 258.781 16.9203C259.267 18.0777 259.488 19.3251 259.428 20.5748C259.489 21.8247 259.268 23.0723 258.782 24.2299C258.296 25.3875 257.557 26.4268 256.616 27.2748C254.432 28.8802 251.773 29.7483 249.041 29.7483C246.308 29.7483 243.65 28.8802 241.466 27.2748C240.523 26.4284 239.782 25.3893 239.296 24.2314C238.809 23.0734 238.59 21.825 238.653 20.5748C238.61 18.8655 239.053 17.1781 239.932 15.6998C240.783 14.3033 242.043 13.1885 243.55 12.4998C245.267 11.7227 247.143 11.338 249.034 11.3748ZM244.547 26.4873C245.075 27.1566 245.753 27.6985 246.529 28.0714C247.304 28.4443 248.157 28.6382 249.022 28.6382C249.886 28.6382 250.739 28.4443 251.515 28.0714C252.29 27.6985 252.968 27.1566 253.496 26.4873C254.695 24.7371 255.278 22.6529 255.158 20.5498C255.184 19.0841 254.933 17.6262 254.417 16.2498C253.997 15.1272 253.251 14.1494 252.269 13.4373C251.317 12.7685 250.168 12.4218 248.996 12.4498C248.123 12.422 247.256 12.606 246.473 12.9855C245.689 13.365 245.015 13.9282 244.509 14.6248C243.312 16.3758 242.728 18.4594 242.847 20.5623C242.741 22.6654 243.337 24.7451 244.547 26.4873Z" fill="#AD54F2"/>
<path d="M26.9631 40H0V7.9C0 5.80479 0.851281 3.79539 2.36657 2.31386C3.88186 0.832319 5.93703 0 8.07998 0L18.7425 0V30.7C18.7425 36.025 22.2455 39.125 26.9631 40Z" fill="#AD54F2"/>
<path d="M36.079 0V30.6C36.0655 32.2076 35.625 33.7841 34.8005 35.175H31.4381C28.5232 35.175 27.0657 33.5083 27.0657 30.175V9.9125H33.9184V4.9125H26.0685L23.2559 0H36.079Z" fill="#AD54F2"/>
<rect x="274.438" width="1" height="40" fill="#AD54F2"/>
</svg>
