<svg width="227" height="35" viewBox="0 0 227 35" fill="none" xmlns="http://www.w3.org/2000/svg">
<g clip-path="url(#clip0_2707_6751)">
<path d="M39.5898 12.5674H40.8651L41.3126 14.3939H44.4337V16.0127H41.6258V22.4986C41.6258 23.5924 42.0957 24.0846 43.0242 24.0846H44.4337V25.7033H42.5096C40.5743 25.7033 39.601 24.6861 39.601 22.6518L39.5898 12.5674Z" fill="#AD54F2"/>
<path d="M51.7936 14.3936C55.0825 14.3936 56.7269 15.9831 56.7269 19.1623C56.7246 19.6488 56.691 20.1346 56.6262 20.617H48.5047C48.5047 22.9686 49.8919 24.0623 52.6438 24.0623C53.8255 24.0794 55.0039 23.9359 56.1452 23.6357V25.2654C54.9336 25.5771 53.6839 25.7243 52.4312 25.7029C48.46 25.7029 46.4688 23.767 46.4688 19.917C46.4688 16.067 48.2474 14.3936 51.7936 14.3936ZM48.5047 18.9545H54.814C54.814 16.9748 53.7848 15.9904 51.8495 15.9904C51.4221 15.9264 50.9855 15.9564 50.5714 16.0781C50.1573 16.1999 49.7762 16.4104 49.4558 16.6943C49.1354 16.9782 48.8838 17.3284 48.7192 17.7194C48.5547 18.1104 48.4814 18.5323 48.5047 18.9545Z" fill="#AD54F2"/>
<path d="M59.4688 25.7025V14.3931H60.8447L61.1803 15.815C62.1631 14.9131 63.4569 14.4055 64.8048 14.3931C65.4684 14.3138 66.1414 14.4172 66.7482 14.6916C67.3549 14.9659 67.8713 15.4005 68.2391 15.9463C69.2802 14.9931 70.6395 14.4413 72.0649 14.3931C74.7199 14.3931 76.0474 15.826 76.0474 18.6916V25.7025H74.0002V18.5931C74.0002 16.9088 73.2545 16.0666 71.7629 16.0666C71.1892 16.0909 70.6269 16.2307 70.111 16.4772C69.5952 16.7237 69.1369 17.0717 68.7649 17.4994V25.7025H66.7289V18.5931C66.7289 16.8869 66.013 16.0338 64.5699 16.0338C63.984 16.0462 63.4081 16.1839 62.8825 16.4371C62.3568 16.6903 61.8942 17.0529 61.5271 17.4994V25.7025H59.4688Z" fill="#AD54F2"/>
<path d="M79.3359 14.853C80.9009 14.5438 82.4937 14.3899 84.0903 14.3936C87.8043 14.3936 89.6836 16.1874 89.6836 19.7639C89.6836 23.7233 87.8266 25.703 84.0903 25.703C83.1667 25.6999 82.2534 25.5139 81.4055 25.1561V29.7936H79.3359V14.853ZM81.3719 23.3952C82.2057 23.7867 83.1206 23.9851 84.0455 23.9749C86.4544 23.9749 87.6551 22.5639 87.6476 19.7421C87.6476 17.2848 86.4544 16.0561 84.0679 16.0561C83.1627 16.0462 82.2589 16.1305 81.3719 16.3077V23.3952Z" fill="#AD54F2"/>
<path d="M94.5496 10.3027V25.7027H92.5137V10.3027H94.5496Z" fill="#AD54F2"/>
<path d="M97.4141 22.2904C97.4141 19.9717 98.9765 18.8123 102.101 18.8123C103.112 18.8108 104.121 18.8802 105.122 19.0201V17.9264C105.122 16.6248 104.081 15.9795 102.012 15.9795C100.772 15.9838 99.5401 16.1644 98.3537 16.5154V14.9295C99.5413 14.5837 100.773 14.4033 102.012 14.3936C105.45 14.3936 107.165 15.5639 107.158 17.9045V25.7029H106.039L105.334 24.6092C104.217 25.3336 102.904 25.7145 101.564 25.7029C98.7975 25.7029 97.4141 24.5654 97.4141 22.2904ZM102.101 20.4201C100.334 20.4201 99.45 21.0326 99.45 22.2576C99.45 23.4717 100.155 24.0842 101.542 24.0842C102.841 24.1256 104.116 23.7321 105.155 22.9686V20.6389C104.144 20.4938 103.123 20.4207 102.101 20.4201Z" fill="#AD54F2"/>
<path d="M110.457 12.5674H111.744L112.18 14.3939H115.301V16.0127H112.493V22.4986C112.493 23.5924 112.963 24.0846 113.891 24.0846H115.301V25.7033H113.366C111.43 25.7033 110.457 24.6861 110.457 22.6518V12.5674Z" fill="#AD54F2"/>
<path d="M122.663 14.3936C125.952 14.3936 127.596 15.9831 127.596 19.1623C127.594 19.6488 127.56 20.1346 127.495 20.617H119.385C119.385 22.9212 120.765 24.0769 123.524 24.0842C124.706 24.0999 125.884 23.9564 127.026 23.6576V25.2654C125.81 25.5763 124.557 25.7235 123.3 25.7029C119.329 25.7029 117.338 23.767 117.338 19.917C117.338 16.067 119.117 14.3936 122.663 14.3936ZM119.385 18.9545H125.638C125.638 16.9748 124.598 15.9904 122.663 15.9904C122.24 15.9351 121.81 15.9716 121.403 16.0975C120.997 16.2233 120.624 16.4354 120.311 16.7185C119.998 17.0016 119.752 17.3488 119.592 17.7354C119.432 18.1219 119.362 18.5382 119.385 18.9545Z" fill="#AD54F2"/>
<path d="M136.31 19.4359C135.732 20.2938 135.417 21.296 135.404 22.3234C135.433 23.201 135.717 24.0523 136.222 24.7784C136.727 25.5045 137.433 26.0755 138.256 26.425C138.964 26.7157 139.726 26.8574 140.494 26.8406C141.231 26.8548 141.961 26.7052 142.63 26.4031C143.216 26.1583 143.711 25.7441 144.049 25.2162C144.387 24.6883 144.552 24.072 144.521 23.45C144.504 22.8694 144.322 22.305 143.995 21.8203C143.593 21.1947 143.049 20.6673 142.407 20.2781L138.57 17.7625C137.905 17.4264 137.346 16.9203 136.952 16.2982C136.558 15.6761 136.344 14.9613 136.332 14.2296C136.321 14.084 136.321 13.9378 136.332 13.7921C136.361 13.2633 136.498 12.7455 136.737 12.2699C136.975 11.7944 137.309 11.3709 137.719 11.025C138.66 10.2645 139.857 9.87446 141.075 9.93121C142.116 9.94422 143.155 10.0209 144.185 10.1609H145.584L145.293 13.4421H145.091C145.094 13.087 145.013 12.736 144.856 12.4158C144.699 12.0955 144.47 11.8144 144.185 11.5937C143.519 11.1081 142.7 10.8645 141.87 10.9046C141.386 10.8697 140.9 10.9511 140.455 11.1418C140.011 11.3324 139.621 11.6265 139.319 11.9984C139.081 12.3163 138.948 12.6981 138.939 13.0921C138.913 13.4915 139.05 13.8844 139.319 14.1859C139.675 14.557 140.086 14.874 140.538 15.1265L144.756 17.8171C145.545 18.2989 146.223 18.9358 146.747 19.6875C147.293 20.4765 147.592 21.4038 147.608 22.3562C147.596 22.9932 147.467 23.6228 147.228 24.2156C146.963 24.9045 146.547 25.528 146.009 26.0421C145.38 26.6119 144.643 27.0542 143.839 27.3437C142.901 27.7019 141.903 27.8801 140.896 27.8687C139.895 27.8806 138.902 27.6946 137.977 27.3218C137.216 27.0311 136.539 26.5634 136.005 25.9593C135.471 25.3551 135.096 24.6327 134.912 23.8546C134.822 23.4967 134.777 23.1294 134.777 22.7609C134.794 21.4788 135.264 20.242 136.109 19.2609L136.31 19.4359Z" fill="#AD54F2"/>
<path d="M157.452 11.1672V24.0625C157.465 24.4317 157.626 24.7813 157.899 25.0359C158.03 25.1635 158.185 25.2641 158.356 25.3317C158.527 25.3994 158.711 25.4327 158.895 25.4297H159.175V25.6594H152.317V25.4297H152.608C152.791 25.4318 152.972 25.3981 153.141 25.3304C153.31 25.2628 153.464 25.1627 153.593 25.0359C153.862 24.7864 154.026 24.4467 154.051 24.0844V11.1672H151.02C150.72 11.1671 150.424 11.2257 150.148 11.3397C149.872 11.4538 149.622 11.6208 149.413 11.8309C149.205 12.041 149.041 12.29 148.933 12.563C148.825 12.836 148.773 13.1276 148.782 13.4203V13.6828H148.559V9.84375C148.922 9.96781 149.296 10.0558 149.677 10.1062C150.179 10.1988 150.688 10.2464 151.199 10.2484H160.282C160.891 10.2441 161.498 10.1819 162.094 10.0625C162.383 10.009 162.667 9.93591 162.945 9.84375V13.6828H162.721V13.4203C162.736 13.1264 162.69 12.8325 162.587 12.5562C162.483 12.2799 162.323 12.027 162.117 11.8125C161.899 11.6028 161.64 11.4378 161.355 11.327C161.071 11.2162 160.767 11.1619 160.461 11.1672H157.452Z" fill="#AD54F2"/>
<path d="M181.068 10.4889H180.677C180.377 10.4846 180.085 10.5899 179.86 10.7842C179.75 10.873 179.661 10.985 179.601 11.1119C179.541 11.2387 179.511 11.3772 179.513 11.517V20.1248C179.553 20.9215 179.418 21.7174 179.117 22.4588C178.816 23.2002 178.356 23.87 177.768 24.4232C176.453 25.5337 174.749 26.1022 173.014 26.0092C171.064 26.1331 169.132 25.5834 167.555 24.4561C166.924 23.9269 166.425 23.2633 166.097 22.5162C165.77 21.7691 165.621 20.9585 165.664 20.1467V11.5936C165.67 11.4437 165.642 11.2944 165.582 11.1564C165.522 11.0183 165.432 10.895 165.318 10.7951C165.086 10.5891 164.781 10.4793 164.467 10.4889H164.109V10.2701H170.598V10.4889H170.24C169.935 10.4808 169.639 10.5864 169.412 10.7842C169.191 10.978 169.059 11.2494 169.043 11.5389V19.9607C168.951 21.2876 169.347 22.6029 170.161 23.6686C170.557 24.1229 171.055 24.4825 171.615 24.7195C172.176 24.9565 172.784 25.0647 173.394 25.0357C174.017 25.0797 174.641 24.9866 175.222 24.7632C175.803 24.5399 176.325 24.1919 176.75 23.7451C177.55 22.7564 177.948 21.5141 177.869 20.2561V11.5061C177.872 11.362 177.841 11.2192 177.779 11.0884C177.717 10.9577 177.625 10.8424 177.511 10.7514C177.278 10.5548 176.979 10.4495 176.672 10.4561H176.303V10.2373H181.024L181.068 10.4889Z" fill="#AD54F2"/>
<path d="M197.008 12.338C197.788 13.0592 198.399 13.9372 198.799 14.9115C199.199 15.8859 199.377 16.9333 199.323 17.9818C199.377 19.0302 199.199 20.0777 198.799 21.052C198.399 22.0264 197.788 22.9044 197.008 23.6255C195.248 25.0796 192.988 25.8228 190.687 25.7037H182.51V25.474H182.801C182.988 25.4777 183.174 25.4436 183.347 25.374C183.52 25.3044 183.677 25.2007 183.807 25.0693C184.076 24.8075 184.232 24.4554 184.244 24.0849V11.7474C184.205 11.4003 184.036 11.0796 183.769 10.8473C183.503 10.615 183.158 10.4875 182.801 10.4896H182.51V10.2709H190.687C192.986 10.1487 195.247 10.888 197.008 12.338ZM190.396 24.774C191.4 24.8009 192.385 24.5093 193.204 23.9427C194.032 23.3507 194.663 22.5326 195.016 21.5912C195.464 20.4393 195.681 19.2138 195.654 17.9818C195.753 16.2238 195.257 14.4829 194.245 13.0271C193.806 12.4357 193.226 11.9588 192.555 11.6384C191.884 11.3179 191.143 11.1638 190.396 11.1896H187.622V24.774H190.396Z" fill="#AD54F2"/>
<path d="M201.025 25.4736C201.21 25.4758 201.394 25.4411 201.565 25.3715C201.736 25.3019 201.891 25.199 202.02 25.0689C202.292 24.8083 202.452 24.4563 202.468 24.0846V11.8564C202.455 11.4872 202.294 11.1377 202.02 10.883C201.889 10.7565 201.734 10.6565 201.563 10.589C201.392 10.5214 201.209 10.4875 201.025 10.4893H200.723V10.2705H207.58V10.4893H207.312C206.933 10.4847 206.567 10.6261 206.294 10.883C206.157 11.0071 206.049 11.1579 205.975 11.3256C205.902 11.4933 205.866 11.6741 205.869 11.8564V24.0627C205.867 24.2465 205.904 24.4286 205.977 24.5979C206.05 24.7672 206.158 24.9201 206.294 25.0471C206.427 25.1777 206.586 25.2809 206.761 25.3504C206.935 25.4199 207.123 25.4544 207.312 25.4518H207.58V25.6814H200.723V25.4518L201.025 25.4736Z" fill="#AD54F2"/>
<path d="M217.905 9.95322C220.32 9.83433 222.691 10.6162 224.539 12.1407C225.362 12.8832 226.009 13.7927 226.434 14.8055C226.859 15.8182 227.052 16.9097 227 18.0032C227.053 19.0969 226.86 20.1885 226.435 21.2014C226.01 22.2143 225.362 23.1237 224.539 23.8657C222.628 25.2704 220.302 26.03 217.911 26.03C215.52 26.03 213.194 25.2704 211.283 23.8657C210.458 23.1251 209.809 22.2159 209.384 21.2027C208.959 20.1895 208.767 19.0971 208.822 18.0032C208.784 16.5076 209.171 15.0311 209.94 13.7376C210.685 12.5156 211.788 11.5402 213.106 10.9376C214.609 10.2576 216.25 9.92095 217.905 9.95322ZM213.979 23.1767C214.441 23.7623 215.034 24.2364 215.713 24.5627C216.391 24.889 217.138 25.0586 217.894 25.0586C218.651 25.0586 219.397 24.889 220.076 24.5627C220.754 24.2364 221.348 23.7623 221.809 23.1767C222.858 21.6452 223.369 19.8216 223.264 17.9813C223.287 16.6988 223.067 15.4232 222.615 14.2188C222.248 13.2365 221.595 12.3809 220.736 11.7579C219.903 11.1727 218.897 10.8693 217.872 10.8938C217.107 10.8695 216.349 11.0305 215.664 11.3626C214.979 11.6947 214.388 12.1875 213.945 12.797C212.898 14.3291 212.388 16.1522 212.491 17.9923C212.398 19.8325 212.92 21.6522 213.979 23.1767Z" fill="#AD54F2"/>
<path d="M23.5927 35H0V6.9125C0 5.07919 0.74487 3.32097 2.07075 2.02462C3.39663 0.728279 5.1949 0 7.06998 0L16.3997 0V26.8625C16.3997 31.5219 19.4648 34.2344 23.5927 35Z" fill="#AD54F2"/>
<path d="M31.5679 0V26.775C31.5561 28.1816 31.1706 29.5611 30.4492 30.7781H27.5071C24.9566 30.7781 23.6813 29.3198 23.6813 26.4031V8.67344H29.6773V4.29844H22.8087L20.3477 0H31.5679Z" fill="#AD54F2"/>
</g>
<defs>
<clipPath id="clip0_2707_6751">
<rect width="227" height="35" fill="white"/>
</clipPath>
</defs>
</svg>
