<svg width="24" height="24" viewBox="0 0 24 24" fill="none" xmlns="http://www.w3.org/2000/svg">
<path d="M12 0C5.38313 0 0 5.38319 0 12C0 18.6168 5.38313 24 12 24C18.6169 24 24 18.6168 24 12C24 5.38319 18.6169 0 12 0ZM19.8199 5.65948C21.1671 7.31776 21.9965 9.41085 22.0654 11.6925C19.57 11.1759 17.3103 11.2365 15.3155 11.6276C14.9543 10.7829 14.5804 9.97821 14.203 9.21766C16.3755 8.28178 18.2667 7.08643 19.8199 5.65948ZM18.4681 4.28559C16.9264 5.69288 15.1397 6.73486 13.3102 7.50414C11.9674 5.04858 10.6826 3.19942 9.9 2.14857C10.5777 2.0042 11.2799 1.92674 12 1.92674C14.4607 1.92674 16.7169 2.81484 18.4681 4.28559ZM7.95402 2.77785C8.545 3.54366 9.95267 5.46116 11.4648 8.18929C7.66449 9.42742 3.97701 9.63602 2.20507 9.65541C2.94364 6.57006 5.10427 4.03305 7.95402 2.77785ZM1.93725 11.587C1.95626 11.587 1.97463 11.5872 1.99403 11.5872C3.21839 11.5872 5.46161 11.5048 8.1025 11.0233C9.6092 10.7485 11.0379 10.3787 12.3785 9.92041C12.7275 10.616 13.0745 11.3497 13.4109 12.1187C11.5337 12.723 9.95074 13.5926 8.69683 14.4561C6.59414 15.9041 5.12109 17.5106 4.31675 18.5039C2.82753 16.7476 1.92672 14.4777 1.92672 12C1.92672 11.8615 1.9316 11.7242 1.93725 11.587ZM5.70515 19.8558C6.39761 18.9839 7.80707 17.3969 9.84593 16.0044C11.2315 15.058 12.665 14.3549 14.1407 13.8933C14.9969 16.1127 15.7279 18.5649 16.1638 21.1687C14.8937 21.7478 13.4846 22.0733 12 22.0733C9.6196 22.0733 7.43097 21.2416 5.70515 19.8558ZM17.9364 20.1312C17.4872 17.7399 16.8173 15.4914 16.0429 13.4365C17.9478 13.1151 19.9165 13.1813 21.9385 13.6355C21.5025 16.2932 20.0236 18.6032 17.9364 20.1312Z" fill="#5D5775"/>
</svg>
