<svg width="193" height="28" viewBox="0 0 193 28" fill="none" xmlns="http://www.w3.org/2000/svg">
<g clip-path="url(#clip0_2809_56658)">
<path d="M31.6367 10.0547H32.6559L33.0135 11.5159H35.5078V12.8109H33.2639V17.9997C33.2639 18.8747 33.6393 19.2684 34.3814 19.2684H35.5078V20.5634H33.9701C32.4235 20.5634 31.6457 19.7497 31.6457 18.1222L31.6367 10.0547Z" fill="#AD54F2"/>
<path d="M41.3922 11.5156C44.0206 11.5156 45.3348 12.7873 45.3348 15.3306C45.3329 15.7198 45.306 16.1085 45.2543 16.4944H38.7638C38.7638 18.3756 39.8724 19.2506 42.0716 19.2506C43.0161 19.2643 43.9578 19.1495 44.8699 18.9094V20.2131C43.9016 20.4625 42.9029 20.5802 41.9018 20.5631C38.7281 20.5631 37.1367 19.0144 37.1367 15.9344C37.1367 12.8544 38.5582 11.5156 41.3922 11.5156ZM38.7638 15.1644H43.8061C43.8061 13.5806 42.9836 12.7931 41.4369 12.7931C41.0953 12.7419 40.7464 12.7659 40.4154 12.8633C40.0845 12.9607 39.7799 13.1291 39.5239 13.3562C39.2678 13.5834 39.0667 13.8635 38.9353 14.1763C38.8038 14.4891 38.7452 14.8266 38.7638 15.1644Z" fill="#AD54F2"/>
<path d="M47.5234 20.5644V11.5169H48.623L48.8913 12.6544C49.6767 11.9328 50.7107 11.5267 51.7878 11.5169C52.3182 11.4534 52.856 11.5361 53.3409 11.7556C53.8258 11.9751 54.2385 12.3227 54.5325 12.7594C55.3645 11.9968 56.4508 11.5554 57.5899 11.5169C59.7117 11.5169 60.7726 12.6631 60.7726 14.9556V20.5644H59.1366V14.8769C59.1366 13.5294 58.5406 12.8556 57.3486 12.8556C56.8901 12.875 56.4407 12.9869 56.0284 13.1841C55.6162 13.3813 55.2499 13.6597 54.9526 14.0019V20.5644H53.3255V14.8769C53.3255 13.5119 52.7534 12.8294 51.6001 12.8294C51.1319 12.8393 50.6716 12.9494 50.2516 13.152C49.8315 13.3546 49.4618 13.6446 49.1684 14.0019V20.5644H47.5234Z" fill="#AD54F2"/>
<path d="M63.4062 11.8832C64.6569 11.6358 65.9299 11.5127 67.2058 11.5157C70.1739 11.5157 71.676 12.9507 71.676 15.8119C71.676 18.9794 70.1921 20.5632 67.2058 20.5632C66.4677 20.5607 65.7378 20.4118 65.0602 20.1257V23.8357H63.4062V11.8832ZM65.0333 18.7169C65.6997 19.0301 66.4308 19.1888 67.17 19.1807C69.0951 19.1807 70.055 18.0519 70.0487 15.7944C70.0487 13.8285 69.0951 12.8457 67.1879 12.8457C66.4645 12.8377 65.7422 12.9052 65.0333 13.0469V18.7169Z" fill="#AD54F2"/>
<path d="M75.5608 8.24219V20.5622H73.9336V8.24219H75.5608Z" fill="#AD54F2"/>
<path d="M77.8516 17.8331C77.8516 15.9781 79.1005 15.0506 81.5976 15.0506C82.4052 15.0494 83.2115 15.1049 84.0115 15.2169V14.3419C84.0115 13.3006 83.18 12.7844 81.5263 12.7844C80.5354 12.7879 79.5508 12.9323 78.6026 13.2131V11.9444C79.5515 11.6677 80.5361 11.5234 81.5263 11.5156C84.2737 11.5156 85.6443 12.4519 85.6387 14.3244V20.5631H84.7443L84.1814 19.6881C83.2884 20.2677 82.2395 20.5724 81.1682 20.5631C78.9571 20.5631 77.8516 19.6531 77.8516 17.8331ZM81.5976 16.3369C80.185 16.3369 79.4788 16.8269 79.4788 17.8069C79.4788 18.7781 80.0417 19.2681 81.1507 19.2681C82.1892 19.3013 83.2073 18.9864 84.0381 18.3756V16.5119C83.2297 16.3958 82.4143 16.3373 81.5976 16.3369Z" fill="#AD54F2"/>
<path d="M88.2734 10.0547H89.3021L89.6503 11.5159H92.1446V12.8109H89.9007V17.9997C89.9007 18.8747 90.2762 19.2684 91.0181 19.2684H92.1446V20.5634H90.5978C89.0517 20.5634 88.2734 19.7497 88.2734 18.1222V10.0547Z" fill="#AD54F2"/>
<path d="M98.0285 11.5156C100.657 11.5156 101.971 12.7873 101.971 15.3306C101.97 15.7198 101.942 16.1085 101.891 16.4944H95.409C95.409 18.3377 96.5118 19.2623 98.7173 19.2681C99.6613 19.2807 100.603 19.1659 101.515 18.9269V20.2131C100.544 20.4618 99.5425 20.5796 98.5383 20.5631C95.3643 20.5631 93.7734 19.0144 93.7734 15.9344C93.7734 12.8544 95.1944 11.5156 98.0285 11.5156ZM95.409 15.1644H100.407C100.407 13.5806 99.5753 12.7931 98.0285 12.7931C97.6908 12.7488 97.3474 12.7781 97.0223 12.8787C96.6971 12.9794 96.3992 13.1491 96.1489 13.3756C95.8985 13.602 95.7027 13.8799 95.5748 14.1891C95.4468 14.4983 95.3902 14.8313 95.409 15.1644Z" fill="#AD54F2"/>
<path d="M108.936 15.5495C108.474 16.2358 108.222 17.0375 108.212 17.8595C108.235 18.5615 108.462 19.2426 108.865 19.8234C109.27 20.4044 109.833 20.8611 110.491 21.1408C111.057 21.3734 111.666 21.4866 112.279 21.4733C112.868 21.4846 113.452 21.365 113.987 21.1233C114.455 20.9274 114.851 20.596 115.12 20.1737C115.391 19.7515 115.523 19.2584 115.498 18.7608C115.485 18.2963 115.339 17.8447 115.078 17.457C114.756 16.9565 114.322 16.5345 113.808 16.2233L110.742 14.2108C110.211 13.9418 109.764 13.537 109.449 13.0394C109.134 12.5417 108.963 11.9698 108.954 11.3845C108.945 11.268 108.945 11.151 108.954 11.0345C108.977 10.6114 109.086 10.1972 109.277 9.81671C109.468 9.43626 109.735 9.09746 110.063 8.82075C110.814 8.21231 111.77 7.90032 112.744 7.94575C113.576 7.95611 114.406 8.0175 115.23 8.1295H116.347L116.115 10.7545H115.954C115.955 10.4704 115.892 10.1896 115.766 9.9334C115.641 9.6772 115.457 9.45229 115.23 9.27575C114.697 8.88725 114.043 8.6923 113.379 8.7245C112.992 8.6965 112.604 8.76167 112.249 8.91413C111.893 9.06666 111.582 9.30193 111.341 9.5995C111.15 9.85381 111.044 10.1592 111.037 10.4745C111.016 10.7939 111.126 11.1083 111.341 11.3495C111.625 11.6463 111.954 11.9 112.315 12.102L115.685 14.2545C116.316 14.6399 116.858 15.1494 117.277 15.7508C117.713 16.382 117.953 17.1238 117.965 17.8858C117.955 18.3953 117.853 18.899 117.662 19.3733C117.45 19.9243 117.118 20.4232 116.687 20.8345C116.185 21.2903 115.595 21.6441 114.953 21.8758C114.204 22.1623 113.405 22.3049 112.601 22.2958C111.802 22.3053 111.008 22.1565 110.268 21.8583C109.66 21.6256 109.119 21.2515 108.692 20.7681C108.265 20.2848 107.965 19.7069 107.819 19.0845C107.747 18.7981 107.711 18.5043 107.711 18.2095C107.724 17.1838 108.1 16.1943 108.775 15.4095L108.936 15.5495Z" fill="#AD54F2"/>
<path d="M125.83 8.93375V19.25C125.841 19.5454 125.969 19.825 126.188 20.0287C126.292 20.1308 126.416 20.2112 126.553 20.2654C126.689 20.3195 126.836 20.3461 126.983 20.3438H127.207V20.5275H121.727V20.3438H121.959C122.105 20.3454 122.25 20.3185 122.385 20.2644C122.52 20.2103 122.643 20.1301 122.746 20.0287C122.962 19.8291 123.092 19.5573 123.113 19.2675V8.93375H120.69C120.451 8.93361 120.214 8.98058 119.993 9.07179C119.772 9.163 119.573 9.29663 119.406 9.4647C119.239 9.63284 119.109 9.83199 119.022 10.0504C118.935 10.2689 118.895 10.502 118.902 10.7362V10.9462H118.723V7.875C119.013 7.97426 119.312 8.04461 119.617 8.085C120.018 8.15906 120.425 8.19714 120.832 8.19875H128.092C128.578 8.19532 129.064 8.14548 129.54 8.05C129.771 8.00723 129.998 7.94871 130.219 7.875V10.9462H130.041V10.7362C130.053 10.5011 130.017 10.266 129.933 10.0449C129.851 9.82394 129.723 9.62157 129.558 9.45C129.384 9.28228 129.177 9.15026 128.95 9.06164C128.722 8.97295 128.48 8.92948 128.235 8.93375H125.83Z" fill="#AD54F2"/>
<path d="M144.705 8.39266H144.392C144.153 8.3893 143.92 8.47351 143.74 8.62891C143.651 8.69996 143.581 8.78956 143.533 8.89106C143.485 8.99256 143.461 9.1033 143.462 9.21516V16.1014C143.495 16.7388 143.386 17.3755 143.146 17.9686C142.905 18.5617 142.538 19.0975 142.068 19.5402C141.017 20.4285 139.655 20.8833 138.268 20.8089C136.71 20.908 135.166 20.4683 133.905 19.5664C133.401 19.1431 133.003 18.6122 132.741 18.0145C132.479 17.4168 132.361 16.7684 132.395 16.1189V9.27641C132.4 9.1565 132.377 9.03708 132.329 8.92669C132.282 8.81623 132.209 8.71753 132.117 8.63766C131.932 8.47281 131.689 8.38496 131.438 8.39266H131.152V8.21766H136.337V8.39266H136.051C135.808 8.38622 135.572 8.47071 135.39 8.62891C135.214 8.78396 135.107 9.0011 135.095 9.23266V15.9702C135.021 17.0317 135.338 18.0839 135.989 18.9364C136.305 19.2999 136.702 19.5875 137.151 19.7771C137.599 19.9667 138.085 20.0533 138.572 20.0302C139.07 20.0653 139.569 19.9908 140.033 19.8121C140.497 19.6335 140.915 19.3551 141.255 18.9977C141.893 18.2067 142.211 17.2128 142.148 16.2064V9.20641C142.151 9.09112 142.126 8.97688 142.076 8.8723C142.027 8.76772 141.953 8.67553 141.862 8.60266C141.676 8.44537 141.437 8.36116 141.192 8.36641H140.897V8.19141H144.669L144.705 8.39266Z" fill="#AD54F2"/>
<path d="M157.446 9.86926C158.069 10.4462 158.558 11.1486 158.877 11.928C159.197 12.7075 159.339 13.5455 159.296 14.3843C159.339 15.223 159.197 16.061 158.877 16.8404C158.558 17.6199 158.069 18.3223 157.446 18.8993C156.039 20.0625 154.233 20.657 152.395 20.5618H145.859V20.378H146.092C146.241 20.381 146.39 20.3537 146.529 20.298C146.667 20.2424 146.792 20.1593 146.896 20.0543C147.111 19.8448 147.236 19.5631 147.245 19.2668V9.39676C147.214 9.11907 147.079 8.86252 146.866 8.67667C146.653 8.49082 146.377 8.38883 146.092 8.39051H145.859V8.21551H152.395C154.232 8.11779 156.038 8.70915 157.446 9.86926ZM152.162 19.818C152.964 19.8396 153.751 19.6062 154.406 19.153C155.068 18.6794 155.572 18.0249 155.854 17.2718C156.212 16.3502 156.385 15.3699 156.364 14.3843C156.443 12.9778 156.047 11.5851 155.237 10.4205C154.888 9.94738 154.423 9.56581 153.888 9.30947C153.351 9.05313 152.758 8.92986 152.162 8.95051H149.945V19.818H152.162Z" fill="#AD54F2"/>
<path d="M160.656 20.3773C160.804 20.3791 160.951 20.3513 161.087 20.2957C161.225 20.24 161.348 20.1576 161.451 20.0536C161.669 19.8451 161.797 19.5635 161.809 19.2661V9.48359C161.799 9.18819 161.67 8.90861 161.451 8.70484C161.347 8.60362 161.222 8.52368 161.086 8.46957C160.949 8.41553 160.803 8.38844 160.656 8.38984H160.414V8.21484H165.895V8.38984H165.68C165.377 8.3862 165.085 8.49932 164.866 8.70484C164.757 8.8041 164.671 8.92471 164.612 9.0589C164.554 9.19302 164.524 9.33771 164.527 9.48359V19.2486C164.526 19.3956 164.555 19.5413 164.613 19.6768C164.672 19.8122 164.758 19.9345 164.866 20.0361C164.973 20.1406 165.1 20.2231 165.24 20.2788C165.38 20.3344 165.529 20.3619 165.68 20.3598H165.895V20.5436H160.414V20.3598L160.656 20.3773Z" fill="#AD54F2"/>
<path d="M174.142 7.96258C176.072 7.86745 177.967 8.49297 179.443 9.71258C180.101 10.3066 180.618 11.0342 180.957 11.8444C181.297 12.6546 181.452 13.5278 181.41 14.4026C181.453 15.2775 181.298 16.1508 180.958 16.9612C180.618 17.7715 180.101 18.499 179.443 19.0926C177.916 20.2164 176.057 20.824 174.146 20.824C172.235 20.824 170.377 20.2164 168.849 19.0926C168.19 18.5001 167.672 17.7727 167.332 16.9622C166.991 16.1516 166.838 15.2777 166.882 14.4026C166.852 13.2061 167.162 12.0249 167.777 10.9901C168.372 10.0125 169.253 9.23217 170.307 8.75008C171.507 8.20611 172.819 7.93682 174.142 7.96258ZM171.004 18.5413C171.373 19.0098 171.847 19.3892 172.39 19.6502C172.932 19.9112 173.528 20.047 174.133 20.047C174.737 20.047 175.334 19.9112 175.876 19.6502C176.418 19.3892 176.893 19.0098 177.262 18.5413C178.1 17.3162 178.508 15.8573 178.424 14.3851C178.442 13.3591 178.267 12.3386 177.906 11.3751C177.612 10.5893 177.09 9.9048 176.404 9.40633C175.738 8.93817 174.935 8.69548 174.115 8.71508C173.505 8.69562 172.898 8.82442 172.351 9.09007C171.803 9.35572 171.331 9.74996 170.977 10.2376C170.14 11.4633 169.732 12.9218 169.815 14.3938C169.741 15.866 170.158 17.3218 171.004 18.5413Z" fill="#AD54F2"/>
<path d="M18.8546 28H0V5.53C0 4.06335 0.59528 2.65677 1.65488 1.6197C2.71449 0.582623 4.15162 0 5.65012 0H13.1062V21.49C13.1062 25.2175 15.5557 27.3875 18.8546 28Z" fill="#AD54F2"/>
<path d="M25.2286 0V21.42C25.2192 22.5453 24.9111 23.6489 24.3346 24.6225H21.9833C19.945 24.6225 18.9258 23.4558 18.9258 21.1225V6.93875H23.7177V3.43875H18.2285L16.2617 0H25.2286Z" fill="#AD54F2"/>
<path d="M192.606 0H191.906V28H192.606V0Z" fill="#AD54F2"/>
</g>
<defs>
<clipPath id="clip0_2809_56658">
<rect width="193" height="28" fill="white"/>
</clipPath>
</defs>
</svg>
