<svg width="8" height="12" viewBox="0 0 8 12" fill="none" xmlns="http://www.w3.org/2000/svg">
<path d="M7.3367 6.05354C7.33734 5.94387 7.31632 5.83515 7.27485 5.73362C7.23337 5.63209 7.17227 5.53974 7.09504 5.46187L2.09504 0.461873C1.93812 0.304954 1.72529 0.216797 1.50337 0.216797C1.28145 0.216797 1.06862 0.304954 0.911702 0.461873C0.754783 0.618793 0.666626 0.831622 0.666626 1.05354C0.666626 1.27546 0.754783 1.48829 0.911702 1.64521L5.32837 6.05354L0.920036 10.4619C0.783514 10.6213 0.712175 10.8264 0.720276 11.0361C0.728377 11.2458 0.815321 11.4448 0.963733 11.5932C1.11215 11.7416 1.31109 11.8285 1.52082 11.8366C1.73055 11.8447 1.93562 11.7734 2.09504 11.6369L7.09504 6.63687C7.24899 6.48166 7.33578 6.27216 7.3367 6.05354Z" fill="#AD54F2"/>
</svg>
