<svg width="197" height="140" viewBox="0 0 197 140" fill="none" xmlns="http://www.w3.org/2000/svg">
<path d="M126.719 140C165.535 140 197 108.661 197 70C197 31.3391 165.535 0 126.719 0C108.956 0 92.7372 6.56557 80.3637 17.391V23.7818H73.9788C71.7506 26.3055 69.6978 28.9942 67.8443 31.8301V34.2026V42.2156H65.0206H62.1968H58.0835V54.8951H65.0225H66.1288V57.3009H56.6302V67.3565V72.6867V73.5548H56.788H61.9701H66.1288V75.9626H60.1165V91.9749H64.1825V101.983V106.318H66.6217V101.983V98.3814H82.1483V98.1457C82.2074 98.238 82.2646 98.3284 82.3238 98.4207V114.021H72.0739C77.2166 120.345 83.4418 125.757 90.4696 129.98L98.0041 113.437C99.0176 111.214 101.435 110.045 103.746 110.497L106.13 105.261C104.706 104.14 103.983 102.329 104.231 100.546C78.0132 83.1724 74.8326 43.0346 102.879 23.0374C124.116 7.89518 153.656 12.7658 168.859 33.9178C184.063 55.0699 179.172 84.4922 157.935 99.6344C146.147 108.038 131.203 110.344 117.93 106.756C116.747 108.105 114.909 108.749 113.13 108.423L110.746 113.657C112.61 115.091 113.32 117.675 112.308 119.899L104.742 136.508C111.655 138.774 119.044 140 126.719 140ZM150.127 82.754C152.96 80.1066 155.244 76.9309 156.849 73.4036C157.448 72.0484 159.036 71.4258 160.402 72.0111C161.771 72.5944 162.411 74.1675 161.838 75.5364C159.994 79.7845 157.275 83.6005 153.859 86.737C152.743 87.6699 151.089 87.5697 150.097 86.5072C149.101 85.4486 149.115 83.7989 150.127 82.754ZM159.933 68.8943C159.179 68.2658 158.827 67.2838 159.006 66.3215C160.526 57.3029 157.695 48.0977 151.361 41.4752C145.027 34.8547 135.931 31.5945 126.815 32.6707C125.488 32.4017 124.549 31.2193 124.587 29.8721C124.626 28.5248 125.632 27.4014 126.973 27.2089C137.69 26.1366 148.293 30.1215 155.63 37.9735C162.967 45.8254 166.197 56.645 164.358 67.2131C164.212 68.1814 163.555 68.9964 162.638 69.344C161.723 69.6936 160.686 69.5227 159.933 68.8943ZM92.1279 118.139H86.1058V112.141H92.1279V118.139ZM78.0073 62.1853H73.3892V57.5857H78.0073V62.1853ZM81.6336 78.9361H76.1676V73.4919H81.6336V78.9361ZM93.7015 104.342H86.7407V97.4092H93.7015V104.342ZM112.211 95.2665L112.109 95.4924C106.992 92.7782 102.409 88.8816 98.8066 83.8696C86.3128 66.4864 90.3315 42.308 107.785 29.8642C122.44 19.4139 141.902 20.5628 155.165 31.4904L155.24 31.5513C155.354 31.6455 155.468 31.7418 155.581 31.84C160.465 35.9506 164.393 41.324 166.803 47.7089C169.4 54.5926 169.895 61.7493 168.603 68.4799C166.82 77.9443 161.512 86.7645 153.031 92.8116C142.056 100.638 128.379 101.958 116.632 97.5349L116.729 97.3248C115.181 96.7336 113.671 96.0462 112.211 95.2665ZM60.0928 70.3201V61.2426H69.2068V70.3201H60.0928ZM61.0965 51.4915V45.3816H67.231V51.4915H61.0965ZM73.9788 47.3907V42.2804H79.1096V47.3907H73.9788ZM44.5821 117.116H50.0481V122.56H44.5821V117.116ZM60.1638 118.652H68.1144V126.57H60.1638V118.652ZM55.4925 95.1212H61.6289V101.233H55.4925V95.1212ZM51.4935 105.473H60.2289V114.174H51.4935V105.473ZM33.0762 107.966H39.9797V114.841H33.0762V107.966ZM29.3001 28.5876H39.6918V38.9378H29.3001V28.5876ZM31.0491 52.0885H47.0509V68.0242H31.0491V52.0885ZM13.393 99.5185H19.5294V105.63H13.393V99.5185ZM7.04156 92.5975H16.1339V83.5416H7.04156V92.5975ZM0 68.4445H8.87935V77.2883H0V68.4445ZM25.2873 93.7798H34.1844V102.641H25.2873V93.7798ZM2.09808 49.0895H12.687V59.6361H2.09808V49.0895ZM80.0995 111.803H68.848V100.597H80.0995V111.803ZM23.6053 88.8993H34.5452V78.0032H23.6053V88.8993ZM40.7547 90.9497H51.4225V101.575H40.7547V90.9497ZM20.4681 45.2303H27.8409V52.5736H20.4681V45.2303ZM16.6899 63.4089H25.3583V72.0425H16.6899V63.4089ZM44.7734 40.3204H52.1462V47.6637H44.7734V40.3204ZM44.3987 76.0255H55.0764V86.6604H44.3987V76.0255ZM54.7925 29.2141H65.3814V39.7607H54.7925V29.2141ZM49.9121 25.9579H56.5947V19.3019H49.9121V25.9579ZM70.6345 21.9887V14.0896H78.5654V21.9887H70.6345ZM74.3179 82.1865V88.1903H68.2899V82.1865H74.3179ZM73.1407 27.6017H82.0595V36.4848H73.1407V27.6017Z" fill="url(#paint0_linear_3320_9044)"/>
<defs>
<linearGradient id="paint0_linear_3320_9044" x1="-4.84319" y1="91.6519" x2="210.993" y2="62.133" gradientUnits="userSpaceOnUse">
<stop stop-color="#AD98F8"/>
<stop offset="1" stop-color="#805EF8"/>
</linearGradient>
</defs>
</svg>
