<svg width="16" height="12" viewBox="0 0 16 12" fill="none" xmlns="http://www.w3.org/2000/svg">
<path d="M1.33315 5.33306H13.0571L9.52848 1.8044C9.46481 1.7429 9.41402 1.66933 9.37908 1.588C9.34414 1.50666 9.32575 1.41918 9.32498 1.33066C9.32421 1.24214 9.34108 1.15436 9.3746 1.07243C9.40812 0.990495 9.45762 0.91606 9.52022 0.853465C9.58281 0.79087 9.65725 0.741368 9.73918 0.707847C9.82111 0.674327 9.9089 0.657459 9.99742 0.658228C10.0859 0.658998 10.1734 0.677388 10.2548 0.712328C10.3361 0.747267 10.4097 0.798055 10.4711 0.861729L15.1378 5.5284C15.2628 5.65341 15.333 5.82295 15.333 5.99973C15.333 6.1765 15.2628 6.34604 15.1378 6.47106L10.4711 11.1377C10.3454 11.2592 10.177 11.3264 10.0022 11.3248C9.82742 11.3233 9.66021 11.2532 9.5366 11.1296C9.413 11.006 9.34289 10.8388 9.34137 10.664C9.33985 10.4892 9.40704 10.3208 9.52848 10.1951L13.0571 6.66639H1.33315C1.15634 6.66639 0.986768 6.59616 0.861744 6.47113C0.736719 6.34611 0.666482 6.17654 0.666482 5.99973C0.666482 5.82292 0.736719 5.65335 0.861744 5.52832C0.986768 5.4033 1.15634 5.33306 1.33315 5.33306Z" fill="#5D5775"/>
</svg>
