<svg width="276" height="40" viewBox="0 0 276 40" fill="none" xmlns="http://www.w3.org/2000/svg">
<path d="M45.2441 14.3623H46.7016L47.213 16.4498H50.7799V18.2998H47.571V25.7123C47.571 26.9623 48.1079 27.5248 49.1691 27.5248H50.7799V29.3748H48.581C46.3692 29.3748 45.2569 28.2123 45.2569 25.8873L45.2441 14.3623Z" fill="#FDFCFF"/>
<path d="M59.193 16.4502C62.9517 16.4502 64.8311 18.2669 64.8311 21.9002C64.8284 22.4562 64.7899 23.0114 64.716 23.5627H55.4342C55.4342 26.2502 57.0196 27.5002 60.1646 27.5002C61.5152 27.5198 62.8619 27.3557 64.1662 27.0127V28.8752C62.7815 29.2314 61.3533 29.3996 59.9217 29.3752C55.3831 29.3752 53.1074 27.1627 53.1074 22.7627C53.1074 18.3627 55.1402 16.4502 59.193 16.4502ZM55.4342 21.6627H62.6449C62.6449 19.4002 61.4687 18.2752 59.2569 18.2752C58.7684 18.202 58.2694 18.2363 57.7961 18.3754C57.3229 18.5146 56.8873 18.7551 56.5212 19.0796C56.155 19.4041 55.8674 19.8043 55.6794 20.2512C55.4914 20.698 55.4076 21.1802 55.4342 21.6627Z" fill="#FDFCFF"/>
<path d="M67.9629 29.3756V16.4506H69.5354L69.919 18.0756C71.0422 17.0448 72.5208 16.4647 74.0612 16.4506C74.8196 16.3599 75.5888 16.478 76.2822 16.7916C76.9756 17.1052 77.5658 17.6018 77.9862 18.2256C79.176 17.1362 80.7295 16.5056 82.3585 16.4506C85.3928 16.4506 86.9099 18.0881 86.9099 21.3631V29.3756H84.5703V21.2506C84.5703 19.3256 83.718 18.3631 82.0134 18.3631C81.3577 18.3908 80.715 18.5506 80.1255 18.8323C79.5359 19.1141 79.0122 19.5118 78.587 20.0006V29.3756H76.2602V21.2506C76.2602 19.3006 75.442 18.3256 73.7927 18.3256C73.1232 18.3398 72.465 18.4971 71.8643 18.7865C71.2635 19.0759 70.7348 19.4902 70.3153 20.0006V29.3756H67.9629Z" fill="#FDFCFF"/>
<path d="M90.6709 16.9753C92.4594 16.6219 94.2798 16.446 96.1044 16.4503C100.349 16.4503 102.497 18.5003 102.497 22.5878C102.497 27.1128 100.375 29.3753 96.1044 29.3753C95.049 29.3718 94.0052 29.1591 93.0361 28.7503V34.0503H90.6709V16.9753ZM92.9977 26.7378C93.9506 27.1852 94.9962 27.4119 96.0533 27.4003C98.8063 27.4003 100.179 25.7878 100.17 22.5628C100.17 19.7544 98.8063 18.3503 96.0789 18.3503C95.0443 18.3389 94.0114 18.4353 92.9977 18.6378V26.7378Z" fill="#FDFCFF"/>
<path d="M108.057 11.7754V29.3754H105.73V11.7754H108.057Z" fill="#FDFCFF"/>
<path d="M111.33 25.4752C111.33 22.8252 113.116 21.5002 116.687 21.5002C117.842 21.4984 118.995 21.5778 120.139 21.7377V20.4877C120.139 19.0002 118.95 18.2627 116.585 18.2627C115.168 18.2677 113.76 18.474 112.404 18.8752V17.0627C113.761 16.6675 115.169 16.4613 116.585 16.4502C120.514 16.4502 122.474 17.7877 122.466 20.4627V29.3752H121.187L120.382 28.1252C119.105 28.9531 117.605 29.3884 116.073 29.3752C112.911 29.3752 111.33 28.0752 111.33 25.4752ZM116.687 23.3377C114.667 23.3377 113.657 24.0377 113.657 25.4377C113.657 26.8252 114.462 27.5252 116.048 27.5252C117.533 27.5726 118.989 27.1228 120.177 26.2502V23.5877C119.021 23.4219 117.855 23.3383 116.687 23.3377Z" fill="#FDFCFF"/>
<path d="M126.238 14.3623H127.709L128.207 16.4498H131.774V18.2998H128.565V25.7123C128.565 26.9623 129.102 27.5248 130.163 27.5248H131.774V29.3748H129.562C127.351 29.3748 126.238 28.2123 126.238 25.8873V14.3623Z" fill="#FDFCFF"/>
<path d="M140.186 16.4502C143.945 16.4502 145.824 18.2669 145.824 21.9002C145.822 22.4562 145.783 23.0114 145.709 23.5627H136.44C136.44 26.196 138.017 27.5169 141.171 27.5252C142.521 27.5432 143.868 27.3791 145.172 27.0377V28.8752C143.783 29.2305 142.351 29.3987 140.915 29.3752C136.376 29.3752 134.101 27.1627 134.101 22.7627C134.101 18.3627 136.133 16.4502 140.186 16.4502ZM136.44 21.6627H143.587C143.587 19.4002 142.398 18.2752 140.186 18.2752C139.703 18.2119 139.212 18.2537 138.747 18.3975C138.282 18.5413 137.856 18.7837 137.498 19.1073C137.14 19.4308 136.86 19.8277 136.677 20.2694C136.494 20.7111 136.413 21.1869 136.44 21.6627Z" fill="#FDFCFF"/>
<path d="M155.784 22.2125C155.123 23.1929 154.763 24.3382 154.748 25.5125C154.782 26.5154 155.106 27.4883 155.683 28.3181C156.261 29.148 157.067 29.8005 158.008 30.2C158.817 30.5323 159.688 30.6941 160.565 30.675C161.407 30.6912 162.242 30.5203 163.007 30.1749C163.676 29.8952 164.242 29.4218 164.628 28.8186C165.015 28.2153 165.203 27.5109 165.168 26.8C165.149 26.1365 164.941 25.4914 164.567 24.9375C164.107 24.2225 163.486 23.6197 162.751 23.175L158.366 20.3C157.607 19.9158 156.968 19.3375 156.517 18.6266C156.067 17.9156 155.822 17.0986 155.809 16.2625C155.797 16.096 155.797 15.9289 155.809 15.7625C155.842 15.158 155.999 14.5663 156.271 14.0228C156.544 13.4793 156.926 12.9953 157.395 12.6C158.469 11.7308 159.837 11.2851 161.23 11.35C162.419 11.3648 163.606 11.4525 164.784 11.6125H166.382L166.05 15.3625H165.82C165.822 14.9566 165.731 14.5555 165.551 14.1895C165.372 13.8235 165.109 13.5022 164.784 13.25C164.022 12.695 163.087 12.4165 162.138 12.4625C161.584 12.4225 161.03 12.5156 160.522 12.7334C160.013 12.9513 159.568 13.2874 159.223 13.7125C158.95 14.0758 158.799 14.5121 158.788 14.9625C158.759 15.4188 158.915 15.8679 159.223 16.2125C159.63 16.6365 160.1 16.9989 160.616 17.2875L165.436 20.3625C166.338 20.913 167.113 21.6409 167.712 22.5C168.336 23.4018 168.678 24.4615 168.696 25.55C168.682 26.2779 168.535 26.9975 168.262 27.6749C167.959 28.4622 167.484 29.1749 166.868 29.7625C166.15 30.4136 165.307 30.9191 164.388 31.25C163.317 31.6593 162.175 31.863 161.025 31.85C159.882 31.8636 158.747 31.651 157.689 31.225C156.819 30.8927 156.046 30.3582 155.435 29.6677C154.825 28.9772 154.396 28.1516 154.186 27.2625C154.083 26.8534 154.032 26.4336 154.032 26.0125C154.051 24.5472 154.589 23.1337 155.554 22.0125L155.784 22.2125Z" fill="#FDFCFF"/>
<path d="M179.945 12.7625V27.5C179.96 27.922 180.144 28.3214 180.457 28.6125C180.606 28.7583 180.783 28.8732 180.979 28.9505C181.174 29.0278 181.384 29.0659 181.594 29.0625H181.914V29.325H174.077V29.0625H174.409C174.618 29.0649 174.825 29.0264 175.019 28.9491C175.212 28.8718 175.387 28.7573 175.534 28.6125C175.843 28.3273 176.03 27.939 176.059 27.525V12.7625H172.594C172.252 12.7623 171.913 12.8294 171.597 12.9597C171.282 13.09 170.997 13.2809 170.758 13.521C170.52 13.7612 170.333 14.0457 170.209 14.3577C170.085 14.6698 170.027 15.0029 170.037 15.3375V15.6375H169.781V11.25C170.196 11.3918 170.624 11.4923 171.06 11.55C171.633 11.6558 172.215 11.7102 172.798 11.7125H183.18C183.875 11.7076 184.569 11.6364 185.251 11.5C185.58 11.4389 185.905 11.3553 186.222 11.25V15.6375H185.967V15.3375C185.984 15.0016 185.932 14.6657 185.813 14.3499C185.695 14.0342 185.512 13.7451 185.276 13.5C185.027 13.2604 184.731 13.0718 184.406 12.9452C184.081 12.8185 183.734 12.7564 183.384 12.7625H179.945Z" fill="#FDFCFF"/>
<path d="M206.934 11.9877H206.487C206.144 11.9829 205.811 12.1032 205.554 12.3252C205.427 12.4267 205.326 12.5547 205.258 12.6997C205.189 12.8447 205.155 13.0029 205.157 13.1627V23.0002C205.203 23.9108 205.048 24.8203 204.704 25.6676C204.36 26.5149 203.835 27.2804 203.163 27.9127C201.66 29.1817 199.712 29.8315 197.729 29.7252C195.501 29.8668 193.293 29.2386 191.49 27.9502C190.769 27.3455 190.199 26.587 189.825 25.7332C189.45 24.8794 189.281 23.953 189.33 23.0252V13.2502C189.337 13.0789 189.305 12.9083 189.236 12.7506C189.168 12.5928 189.064 12.4518 188.933 12.3377C188.668 12.1022 188.32 11.9767 187.962 11.9877H187.553V11.7377H194.968V11.9877H194.559C194.211 11.9785 193.873 12.0992 193.613 12.3252C193.361 12.5467 193.209 12.8569 193.191 13.1877V22.8127C193.086 24.3292 193.539 25.8323 194.469 27.0502C194.922 27.5695 195.49 27.9804 196.131 28.2512C196.772 28.5221 197.467 28.6458 198.164 28.6127C198.876 28.6629 199.589 28.5565 200.253 28.3012C200.917 28.046 201.514 27.6484 202 27.1377C202.913 26.0078 203.368 24.5879 203.278 23.1502V13.1502C203.281 12.9855 203.246 12.8223 203.175 12.6729C203.104 12.5235 202.999 12.3918 202.869 12.2877C202.603 12.063 202.261 11.9427 201.91 11.9502H201.488V11.7002H206.883L206.934 11.9877Z" fill="#FDFCFF"/>
<path d="M225.153 14.1001C226.045 14.9243 226.743 15.9277 227.2 17.0412C227.657 18.1547 227.861 19.3518 227.799 20.5501C227.861 21.7483 227.657 22.9454 227.2 24.0589C226.743 25.1724 226.045 26.1758 225.153 27.0001C223.142 28.6618 220.559 29.5112 217.93 29.3751H208.584V29.1126H208.916C209.13 29.1168 209.343 29.0779 209.541 28.9983C209.739 28.9188 209.918 28.8002 210.067 28.6501C210.374 28.3509 210.552 27.9485 210.566 27.5251V13.4251C210.521 13.0284 210.328 12.6619 210.024 12.3964C209.719 12.1309 209.324 11.9852 208.916 11.9876H208.584V11.7376H217.93C220.557 11.598 223.14 12.4428 225.153 14.1001ZM217.597 28.3126C218.744 28.3434 219.87 28.01 220.806 27.3626C221.753 26.686 222.473 25.751 222.877 24.6751C223.389 23.3586 223.636 21.9581 223.606 20.5501C223.719 18.5409 223.153 16.5513 221.995 14.8876C221.495 14.2117 220.831 13.6666 220.065 13.3004C219.298 12.9342 218.45 12.7581 217.597 12.7876H214.427V28.3126H217.597Z" fill="#FDFCFF"/>
<path d="M229.744 29.1123C229.955 29.1148 230.166 29.0751 230.361 28.9956C230.557 28.9161 230.734 28.7984 230.881 28.6498C231.192 28.3519 231.375 27.9497 231.393 27.5248V13.5498C231.378 13.1278 231.194 12.7284 230.881 12.4373C230.732 12.2927 230.554 12.1785 230.359 12.1012C230.163 12.024 229.954 11.9853 229.744 11.9873H229.398V11.7373H237.236V11.9873H236.929C236.495 11.9821 236.078 12.1437 235.765 12.4373C235.609 12.5791 235.485 12.7514 235.401 12.9431C235.318 13.1347 235.276 13.3414 235.279 13.5498V27.4998C235.278 27.7098 235.32 27.918 235.403 28.1115C235.487 28.305 235.61 28.4797 235.765 28.6248C235.918 28.7741 236.099 28.892 236.299 28.9715C236.499 29.0509 236.713 29.0903 236.929 29.0873H237.236V29.3498H229.398V29.0873L229.744 29.1123Z" fill="#FDFCFF"/>
<path d="M249.034 11.3748C251.794 11.2389 254.504 12.1325 256.616 13.8748C257.556 14.7234 258.295 15.7628 258.781 16.9203C259.267 18.0777 259.488 19.3251 259.428 20.5748C259.489 21.8247 259.268 23.0723 258.782 24.2299C258.296 25.3875 257.557 26.4268 256.616 27.2748C254.432 28.8802 251.773 29.7483 249.041 29.7483C246.308 29.7483 243.65 28.8802 241.466 27.2748C240.523 26.4284 239.782 25.3893 239.296 24.2314C238.809 23.0734 238.59 21.825 238.653 20.5748C238.61 18.8655 239.053 17.1781 239.932 15.6998C240.783 14.3033 242.043 13.1885 243.55 12.4998C245.267 11.7227 247.143 11.338 249.034 11.3748ZM244.547 26.4873C245.075 27.1566 245.753 27.6985 246.529 28.0714C247.304 28.4443 248.157 28.6382 249.022 28.6382C249.886 28.6382 250.739 28.4443 251.515 28.0714C252.29 27.6985 252.968 27.1566 253.496 26.4873C254.695 24.7371 255.278 22.6529 255.158 20.5498C255.184 19.0841 254.933 17.6262 254.417 16.2498C253.997 15.1272 253.251 14.1494 252.269 13.4373C251.317 12.7685 250.168 12.4218 248.996 12.4498C248.123 12.422 247.256 12.606 246.473 12.9855C245.689 13.365 245.015 13.9282 244.509 14.6248C243.312 16.3758 242.728 18.4594 242.847 20.5623C242.741 22.6654 243.337 24.7451 244.547 26.4873Z" fill="#FDFCFF"/>
<path d="M26.9631 40H0V7.9C0 5.80479 0.851281 3.79539 2.36657 2.31386C3.88186 0.832319 5.93703 0 8.07998 0L18.7425 0V30.7C18.7425 36.025 22.2455 39.125 26.9631 40Z" fill="#FDFCFF"/>
<path d="M36.079 0V30.6C36.0655 32.2076 35.625 33.7841 34.8005 35.175H31.4381C28.5232 35.175 27.0657 33.5083 27.0657 30.175V9.9125H33.9184V4.9125H26.0685L23.2559 0H36.079Z" fill="#FDFCFF"/>
<rect x="274.438" width="1" height="40" fill="#FDFCFF"/>
</svg>
