<svg width="8" height="12" viewBox="0 0 8 12" fill="none" xmlns="http://www.w3.org/2000/svg">
<path d="M7.33658 6.05354C7.33721 5.94387 7.31619 5.83515 7.27472 5.73362C7.23325 5.63209 7.17215 5.53974 7.09491 5.46187L2.09491 0.461873C1.93799 0.304954 1.72517 0.216797 1.50325 0.216797C1.28133 0.216797 1.0685 0.304954 0.91158 0.461873C0.754661 0.618793 0.666504 0.831622 0.666504 1.05354C0.666504 1.27546 0.754661 1.48829 0.91158 1.64521L5.32825 6.05354L0.919914 10.4619C0.783392 10.6213 0.712053 10.8264 0.720154 11.0361C0.728255 11.2458 0.815199 11.4448 0.963611 11.5932C1.11202 11.7416 1.31097 11.8285 1.5207 11.8366C1.73043 11.8447 1.9355 11.7734 2.09491 11.6369L7.09491 6.63687C7.24887 6.48166 7.33566 6.27216 7.33658 6.05354Z" fill="#AD54F2"/>
</svg>
