<svg width="18" height="18" viewBox="0 0 18 18" fill="none" xmlns="http://www.w3.org/2000/svg">
<path fill-rule="evenodd" clip-rule="evenodd" d="M14.1157 7.92454C14.1157 11.1966 11.4632 13.8491 8.19114 13.8491C4.91911 13.8491 2.2666 11.1966 2.2666 7.92454C2.2666 4.65251 4.91911 2 8.19114 2C11.4632 2 14.1157 4.65251 14.1157 7.92454ZM12.9378 14.2708C11.6147 15.262 9.9715 15.8491 8.19114 15.8491C3.81454 15.8491 0.266602 12.3011 0.266602 7.92454C0.266602 3.54794 3.81454 0 8.19114 0C12.5677 0 16.1157 3.54794 16.1157 7.92454C16.1157 9.8411 15.4353 11.5988 14.3029 12.9691L17.7239 16.3901C18.0921 16.7583 18.0921 17.3553 17.7239 17.7235C17.3557 18.0917 16.7587 18.0917 16.3905 17.7235L12.9378 14.2708Z" fill="#CE99F7"/>
</svg>
