<svg width="14" height="14" viewBox="0 0 14 14" fill="none" xmlns="http://www.w3.org/2000/svg">
<path d="M13.5135 12.7824L10.2595 9.52845C11.0683 8.55581 11.5556 7.30683 11.5556 5.94595C11.5556 2.8515 9.03817 0.333984 5.94386 0.333984C2.84948 0.333984 0.332031 2.8515 0.332031 5.94595C0.332031 9.04019 2.84948 11.5575 5.94386 11.5575C7.30467 11.5575 8.55371 11.0703 9.52635 10.2615L12.7804 13.5154C12.8816 13.6167 13.0143 13.6673 13.1469 13.6673C13.2796 13.6673 13.4123 13.6167 13.5135 13.5154C13.716 13.313 13.716 12.9848 13.5135 12.7824ZM1.36881 5.94595C1.36881 3.42318 3.42116 1.37077 5.94386 1.37077C8.46648 1.37077 10.5188 3.42318 10.5188 5.94595C10.5188 8.46851 8.46648 10.5207 5.94386 10.5207C3.42116 10.5207 1.36881 8.46851 1.36881 5.94595Z" fill="#5D5775"/>
</svg>
