<svg width="20" height="20" viewBox="0 0 20 20" fill="none" xmlns="http://www.w3.org/2000/svg">
<path fill-rule="evenodd" clip-rule="evenodd" d="M0.326309 0.345146C-0.110158 0.798879 -0.102703 1.52721 0.34296 1.97191L8.38642 9.99805L0.339188 18.0279C-0.106478 18.4726 -0.113933 19.2009 0.322537 19.6546C0.759007 20.1084 1.47412 20.1157 1.91978 19.671L10 11.6082L18.0803 19.6711C18.526 20.1158 19.2411 20.1084 19.6775 19.6547C20.114 19.201 20.1066 18.4727 19.6609 18.028L11.6137 9.99806L19.6572 1.97191C20.1029 1.52721 20.1103 0.798887 19.6739 0.345156C19.2374 -0.108575 18.5223 -0.115894 18.0766 0.328808L10 8.38791L1.92355 0.328798C1.47789 -0.115906 0.762777 -0.108587 0.326309 0.345146Z" fill="#5D5775"/>
</svg>
