<svg width="16" height="12" viewBox="0 0 16 12" fill="none" xmlns="http://www.w3.org/2000/svg">
<path d="M8.80194 3.03382V0.749091C8.80194 0.55042 8.88624 0.359886 9.0363 0.219404C9.18636 0.0789219 9.38988 0 9.6021 0C9.81201 0.000827462 10.0132 0.0788462 10.1622 0.217236L15.7633 5.46088C15.8383 5.53051 15.8978 5.61336 15.9385 5.70465C15.9791 5.79593 16 5.89384 16 5.99273C16 6.09162 15.9791 6.18953 15.9385 6.28081C15.8978 6.3721 15.8383 6.45495 15.7633 6.52458L10.1622 11.7682C10.0499 11.8713 9.90759 11.9411 9.75312 11.9689C9.59866 11.9967 9.43887 11.9812 9.29372 11.9245C9.14858 11.8678 9.02452 11.7722 8.93705 11.6498C8.84959 11.5274 8.80259 11.3836 8.80194 11.2364V8.91419H8.12181C6.85762 8.89653 5.60447 9.13664 4.44935 9.61784C3.29422 10.099 2.26478 10.8098 1.43249 11.7008C1.33218 11.8258 1.19261 11.9183 1.03334 11.9653C0.874063 12.0123 0.703065 12.0115 0.544311 11.963C0.382754 11.9119 0.242837 11.8139 0.144961 11.6832C0.0470848 11.5525 -0.0036335 11.396 0.000203133 11.2364C0.000203133 4.40466 6.46548 3.23607 8.80194 3.03382ZM8.12181 7.40102C8.65699 7.39945 9.19166 7.43199 9.72212 7.4984C9.91155 7.52531 10.0844 7.61495 10.2092 7.75105C10.334 7.88714 10.4025 8.06063 10.4023 8.24V9.43106L14.067 5.99273L10.4023 2.5544V3.74546C10.4023 3.94413 10.318 4.13466 10.1679 4.27514C10.0178 4.41563 9.81431 4.49455 9.6021 4.49455C8.87395 4.49455 3.11282 4.64437 1.86457 9.3112C3.67637 8.06064 5.87083 7.39073 8.12181 7.40102Z" fill="white"/>
</svg>
