<svg width="6" height="10" viewBox="0 0 6 10" fill="none" xmlns="http://www.w3.org/2000/svg">
<path d="M5.66809 5.04244C5.6686 4.9547 5.65178 4.86773 5.61861 4.7865C5.58543 4.70528 5.53655 4.6314 5.47476 4.56911L1.47476 0.569108C1.34922 0.443572 1.17896 0.373047 1.00143 0.373047C0.823891 0.373047 0.653628 0.443572 0.528092 0.569108C0.402557 0.694644 0.332031 0.864907 0.332031 1.04244C0.332031 1.21998 0.402557 1.39024 0.528092 1.51577L4.06143 5.04244L0.534759 8.56911C0.425542 8.69664 0.368471 8.86069 0.374951 9.02848C0.381432 9.19626 0.450987 9.35542 0.569717 9.47415C0.688447 9.59288 0.847606 9.66243 1.01539 9.66891C1.18317 9.6754 1.34722 9.61833 1.47476 9.50911L5.47476 5.50911C5.59792 5.38493 5.66736 5.21733 5.66809 5.04244Z" fill="#AD54F2"/>
</svg>
