<svg width="14" height="13" viewBox="0 0 14 13" fill="none" xmlns="http://www.w3.org/2000/svg">
<path d="M6.07668 1.21993C6.41827 0.398637 7.58173 0.398636 7.92332 1.21993L8.88146 3.52358C9.02547 3.86981 9.35108 4.10638 9.72487 4.13635L12.2119 4.33573C13.0985 4.40681 13.458 5.51332 12.7825 6.09199L10.8877 7.7151C10.6029 7.95905 10.4785 8.34183 10.5655 8.70659L11.1444 11.1335C11.3508 11.9987 10.4096 12.6825 9.65046 12.2189L7.52125 10.9184C7.20124 10.7229 6.79876 10.7229 6.47875 10.9184L4.34954 12.2189C3.59044 12.6825 2.64919 11.9987 2.85558 11.1335L3.43448 8.70659C3.52148 8.34183 3.39711 7.95905 3.11232 7.7151L1.2175 6.09199C0.541968 5.51332 0.901493 4.40681 1.78815 4.33573L4.27513 4.13635C4.64892 4.10638 4.97453 3.86981 5.11854 3.52358L6.07668 1.21993Z" fill="#5D5775"/>
</svg>
