<svg width="25" height="20" viewBox="0 0 25 20" fill="none" xmlns="http://www.w3.org/2000/svg">
<path d="M24.9687 2.56C24.0687 2.95 23.1387 3.22 22.1487 3.34C23.1687 2.74 23.9487 1.78 24.3087 0.61C23.3487 1.18 22.2987 1.57 21.1887 1.81C20.2887 0.85 18.9987 0.25 17.5887 0.25C14.8587 0.25 12.6687 2.47 12.6687 5.17C12.6687 5.56 12.6987 5.92 12.7887 6.28C8.70875 6.1 5.10875 4.12 2.67875 1.15C0.93875 4.27 2.88875 6.85 4.17875 7.72C3.39875 7.72 2.61875 7.48 1.95875 7.12C1.95875 9.55 3.66875 11.56 5.88875 12.01C5.40875 12.16 4.32875 12.25 3.66875 12.1C4.29875 14.05 6.12875 15.49 8.25875 15.52C6.57875 16.84 4.11875 17.89 0.96875 17.56C3.15875 18.97 5.73875 19.78 8.52875 19.78C17.5887 19.78 22.5087 12.28 22.5087 5.8C22.5087 5.59 22.5087 5.38 22.4787 5.17C23.4987 4.42 24.3387 3.55 24.9687 2.56Z" fill="#5D5775"/>
</svg>
