<svg width="30" height="30" viewBox="0 0 30 30" fill="none" xmlns="http://www.w3.org/2000/svg">
<path d="M29.5 14.5C29.5 22.5081 23.0081 29 15 29C6.99187 29 0.5 22.5081 0.5 14.5C0.5 6.49187 6.99187 0 15 0C23.0081 0 29.5 6.49187 29.5 14.5Z" fill="#5D5775"/>
<path fill-rule="evenodd" clip-rule="evenodd" d="M15 10C15.6054 10 16.1803 10.263 16.5723 10.7194L22.6827 17.8328C23.4079 18.6771 23.3044 19.951 22.4523 20.6671L22.0504 21.0049C21.3883 21.5613 20.4017 21.4811 19.8382 20.8251C18.8841 19.7145 17.0632 20.3891 17.0632 21.8533V28C17.0632 29.1046 16.1678 30 15.0632 30H14.9368C13.8322 30 12.9368 29.1046 12.9368 28V21.8533C12.9368 20.3891 11.1159 19.7145 10.1618 20.8251C9.5983 21.4811 8.61171 21.5613 7.94963 21.0049L7.5477 20.6671C6.69564 19.951 6.5921 18.6771 7.31732 17.8328L13.4277 10.7194C13.8197 10.263 14.3946 10 15 10Z" fill="#CE99F7"/>
<path d="M26.25 12.5C26.25 13.3284 25.5784 14 24.75 14C23.9216 14 23.25 13.3284 23.25 12.5C23.25 11.6716 23.9216 11 24.75 11C25.5784 11 26.25 11.6716 26.25 12.5Z" fill="#CE99F7"/>
<path d="M29 3.5C29 4.32843 28.3284 5 27.5 5C26.6716 5 26 4.32843 26 3.5C26 2.67157 26.6716 2 27.5 2C28.3284 2 29 2.67157 29 3.5Z" fill="#CE99F7"/>
<path d="M6 13.5C6 13.7761 5.77614 14 5.5 14C5.22386 14 5 13.7761 5 13.5C5 13.2239 5.22386 13 5.5 13C5.77614 13 6 13.2239 6 13.5Z" fill="white"/>
<path d="M9 7C9 7.55228 8.55228 8 8 8C7.44772 8 7 7.55228 7 7C7 6.44772 7.44772 6 8 6C8.55228 6 9 6.44772 9 7Z" fill="white"/>
<path d="M11.5 9.75C11.5 10.1642 11.1642 10.5 10.75 10.5C10.3358 10.5 10 10.1642 10 9.75C10 9.33579 10.3358 9 10.75 9C11.1642 9 11.5 9.33579 11.5 9.75Z" fill="white"/>
</svg>
