<svg width="740" height="336" viewBox="0 0 740 336" fill="none" xmlns="http://www.w3.org/2000/svg">
<g filter="url(#filter0_f_1531_37018)">
<path d="M214.92 205.238C215.658 205.084 216.214 204.161 216.159 203.188L216.352 203.126C217.738 202.67 217.047 201.985 217.317 201.431C218.166 199.686 219.122 197.957 219.934 196.211C220.167 195.713 220.017 195.179 220.113 194.655C220.188 194.234 220.206 193.691 220.54 193.397L223.391 190.913C224.274 187.807 225.226 184.47 225.503 183.51C225.778 182.547 228.609 180.163 228.759 179.522C228.91 178.878 229.722 176.606 230.022 175.888C230.321 175.168 231.479 172.752 231.681 172.074C231.88 171.391 233.721 169.266 234.037 168.753C234.348 168.239 234.792 166.543 233.898 166.97C233.001 167.397 231.044 168.895 229.822 169.561C228.603 170.225 226.558 173.397 225.84 173.924C225.119 174.451 221.833 177.087 220.096 178.625L218.509 179.997L217.001 181.299C215.639 182.936 212.629 186.379 210.304 188.953C207.987 191.531 199.096 200.6 196.302 203.653L193.814 206.46C191.495 209.083 189.235 211.731 186.906 214.349L185.449 215.986C183.964 217.827 181.203 220.97 179.31 222.968C177.417 224.963 171.519 232.114 169.679 234.144C167.843 236.176 161.571 244.195 159.17 247.153L156.722 249.715L154.354 252.193C152.111 255.058 148.725 259.225 146.826 261.452C144.927 263.68 139.787 270.062 139.571 270.66C139.35 271.257 136.638 273.199 136.036 274.298L134.74 275.244L133.567 276.1C132.663 277.395 131.506 278.936 130.995 279.522C130.481 280.11 128.233 282.461 127.202 283.471L126.351 284.423L125.395 285.496C124.411 286.708 122.005 289.382 120.045 291.442C118.086 293.504 111.786 299.812 110.648 300.998C109.511 302.183 105.509 306.173 104.361 307.265L103.342 308.27L102.412 309.186C101.22 310.072 100.11 311.24 99.9464 311.792C99.7771 312.34 96.8185 313.81 95.6873 314.504L94.6739 315.199L93.5611 315.965C92.3333 316.79 90.8712 317.724 90.3046 318.035C89.7403 318.35 88.2069 319.565 87.9743 319.862L87.9485 319.859C86.8162 319.563 85.9581 319.806 84.9417 320.747C84.4009 321.251 83.3939 321.524 82.6328 322.049C81.8313 322.606 80.7377 322.876 79.77 323.271L78.6644 323.723C77.4561 324.229 75.5469 324.873 74.4275 325.15C73.3062 325.432 68.803 325.586 66.775 325.519L65.8652 323.982L65.4659 323.311C63.9392 323.08 62.8724 322.76 63.0901 322.602C63.3077 322.444 63.327 321.406 62.5012 320.758L61.5344 320.63L60.5746 320.502C59.6926 320.188 58.8955 319.924 58.7951 319.915C58.6979 319.904 57.9934 319.395 57.2301 318.847C56.4627 318.297 52.6102 315.486 50.4391 313.731L49.2688 311.547L47.5183 308.275C47.9361 304.17 48.3676 300.703 48.4756 300.574L48.4639 300.484L48.3838 299.667C48.2625 298.774 48.353 297.386 48.5755 296.584L48.8907 295.85C49.2465 295.015 49.455 294.152 49.5909 293.313L49.8689 291.596C50.5801 289.715 51.2365 287.158 51.3311 285.919L51.6012 284.769L52.1771 282.33C52.9568 279.637 53.6886 276.651 53.806 275.696C53.9265 274.74 53.7467 272.278 53.1784 272.68L52.772 273.076L50.6167 275.166C48.2797 277.483 44.7804 281.041 42.8411 283.065C40.903 285.091 35.0946 291.402 33.8212 292.379L32.7045 293.31L32.5945 293.399C32.9169 293.857 32.3183 295.068 31.2627 296.088C30.2083 297.11 26.7047 300.387 26.017 300.995L25.5976 300.974L22.9795 300.827C23.1296 302.306 22.5437 303.654 21.6795 303.821C20.8141 303.985 18.2856 305.371 17.7511 306.039C17.2219 306.712 15.141 306.28 15.7237 305.047C16.3074 303.816 19.8933 301.599 18.6334 301.55L17.924 301.563C17.1525 301.572 16.4521 301.773 16.6528 302.545L16.8568 303.324C16.1032 303.5 13.3841 303.158 10.8171 302.559L12.386 300.18C13.0865 299.113 12.7655 298.79 12.0633 298.173L11.6356 297.8C11.9025 296.642 12.3987 295.888 12.7411 296.123C13.0847 296.361 14.48 296.462 15.1854 295.897L15.6856 295.337L15.9724 295.024C16.0641 294.584 15.6811 294.258 15.12 294.302L14.6171 294.321L14.4841 294.328C14.2076 294.246 14.4164 292.683 14.9392 290.857L15.5866 289.179L15.7614 288.723C16.4688 288.277 17.5822 287.574 18.2389 287.161L17.8482 286.58C17.3461 285.84 17.7987 285.4 18.8528 285.033C19.2065 284.911 19.8069 284.395 19.7737 284.348C18.4435 282.517 21.693 281.795 22.1455 280.479L22.3039 280.027C22.4937 279.512 23.0841 278.613 23.6138 278.037L24.0973 277.515C24.7155 276.851 25.3941 276.211 25.9487 275.522L27.0761 274.135C28.5123 272.718 30.3324 270.831 31.112 269.949C31.8946 269.066 34.2965 266.425 35.5387 266.151L35.8065 264.873C35.9884 264.015 36.7784 263.097 37.4175 262.247C37.7753 261.767 38.3257 261.155 38.8823 260.978L40.1814 260.555C40.8449 259.695 43.7338 256.856 46.6111 254.251L50.0606 253.013L51.5651 252.471C53.0793 251.752 55.1194 250.824 56.1052 250.412C57.0899 249.998 61.0731 248.255 62.7472 247.376L64.4887 247.537C64.5682 247.539 64.7988 246.73 65.595 246.956L67.074 247.376C68.753 247.752 70.4438 248.104 70.8259 248.156L70.8258 248.269C70.8523 250.784 74.2484 250.78 75.6204 252.355L76.6211 253.503C78.9489 253.988 81.1597 254.818 81.5325 255.346L81.9173 255.623L84.2309 257.299C83.8931 260.007 82.7101 265.195 81.599 268.827L82.4271 271.931C82.4488 272.01 82.211 272.189 82.2436 272.251L82.7614 273.275C82.2874 274.52 81.5279 276.764 81.0749 278.262L80.7751 279.619C80.4934 280.881 80.4322 282.131 80.1453 283.388L79.8535 284.66C79.4084 286.064 78.9272 287.825 78.7911 288.577C78.6528 289.323 78.0328 292.442 77.7442 293.836L77.3882 295.099C77.1846 295.834 76.4131 297.182 76.5356 297.211C78.0341 297.547 76.7328 298.639 76.8789 299.294L77.0234 299.928C76.5515 300.977 76.7371 301.528 77.4351 301.155L77.8359 300.78L79.508 299.232C80.9953 297.361 82.7566 295.165 83.4245 294.351C84.0893 293.537 87.6732 290.764 87.8061 290.678C87.9401 290.595 88.5838 289.844 89.2272 289.163C89.8747 288.473 92.0942 285.728 93.0981 284.625C94.1039 283.518 97.5555 279.869 98.5961 278.988C99.6356 278.104 101.354 275.197 101.442 275.073C101.532 274.951 102.359 274.308 103.01 273.75C103.661 273.191 105.662 270.969 106.331 270.403C106.997 269.838 108.452 267.783 108.669 267.439C108.892 267.093 110.266 266.179 110.511 265.808L110.749 265.456C111.153 264.86 111.61 264.273 111.969 263.667C112.77 262.329 114.873 261.564 115.309 260.208L115.84 258.559C117.354 257.219 119.091 255.556 119.693 254.853C120.301 254.155 122.613 251.863 123.524 251.327L123.186 250.344L123.086 250.045C124.018 249.362 125.251 248.48 125.832 248.092C126.409 247.702 128.108 245.588 128.94 244.599C129.774 243.613 133.029 239.509 134.558 237.716C136.084 235.922 141.324 229.663 142.863 227.797C144.397 225.936 149.806 219.485 151.422 217.59C153.039 215.696 158.255 209.396 159.473 207.819L160.627 206.409L160.668 206.354C161.226 206.495 162.121 205.912 162.656 205.061C163.19 204.209 165.037 202.108 165.732 202.025L165.864 201.833C166.769 200.556 166.887 199.236 168.19 197.86C169.353 196.629 170.755 195.54 171.877 194.298L172.924 193.143C174.055 191.862 176.176 189.531 177.637 187.965C179.096 186.393 183.737 181.613 184.4 180.586C185.068 179.554 188.375 176.425 189.357 175.567C190.339 174.709 193.293 171.837 193.837 171.155L194.203 170.512C194.605 169.799 195.094 169.247 196.08 169.011L197.286 168.717C197.405 167.916 197.696 167.236 197.94 167.213C198.181 167.19 198.823 166.61 198.836 165.977L199.002 165.919C200.518 165.388 200.581 163.907 201.424 163.494C202.581 162.933 203.414 161.762 204.855 161.721L204.993 161.719C205.128 161.768 205.637 161.229 206.121 160.524C206.608 159.818 209.364 157.67 210.12 157.002C210.878 156.337 213.401 154.144 214.047 153.625C214.695 153.102 217.691 151.882 218.77 151.464L218.752 150.271C218.743 149.821 220.001 149.043 220.792 148.54C223.244 146.985 225.488 145.19 228.294 144.032C229.371 143.589 229.833 142.191 231.428 142.308C232.978 142.421 233.105 140.956 234.056 140.536L235.135 140.054C236.448 139.833 238.689 139.265 240.114 138.783C241.543 138.301 245.802 136.675 246.408 136.128L247.057 136.859C247.179 137.001 248.287 136.319 249.154 136.16L252.714 135.497C255.327 136.779 257.566 137.966 257.684 138.132L257.607 138.242C256.481 139.832 258.21 140.094 259.021 140.654C260.174 141.449 261.198 142.328 262.279 143.172L263.855 144.399C266.076 145.357 268.738 146.723 269.773 147.438L269.509 148.84C269.269 150.09 269.562 151.306 269.615 152.538C269.629 152.844 269.761 153.184 269.602 153.46L267.752 156.647C267.163 160.156 266.109 164.813 265.411 166.988L264.191 168.812L262.73 170.992C261.349 173.421 260.104 175.507 259.962 175.625L259.972 175.7L260.377 178.643C258.101 181.635 255.973 184.677 255.642 185.398C255.317 186.123 253.213 189.309 252.108 190.926L252.085 192.507L252.081 192.811C251.964 193.154 251.397 194.224 250.824 195.192C250.254 196.158 247.804 200.292 246.789 202.269C245.778 204.247 242.398 210.572 241.739 212.012C241.082 213.449 238.669 218.415 238.147 219.875C237.632 221.336 235.793 225.888 235.269 226.732L234.801 227.502C233.961 228.891 233.162 230.251 232.654 231.721L232.297 232.761C231.448 233.99 230.583 235.372 230.378 235.825L230.327 236.242L230.129 237.813C228.932 239.772 227.958 241.527 227.968 241.709L228.09 241.789L228.265 241.909C228.613 241.984 228.458 243.065 227.924 244.304C227.386 245.541 225.385 249.356 224.756 250.012C224.127 250.669 225.087 252.511 224.96 252.849L224.831 253.172L223.55 256.36C223.134 259.821 222.885 262.921 222.996 263.238C223.109 263.557 223.945 264.415 224.4 264.05C224.859 263.686 226.672 262.877 227.445 262.627L228.125 262.044L229.525 260.852C231.224 259.623 233.962 257.614 235.615 256.385L236.981 255.19C237.906 254.375 238.881 253.709 239.827 252.97L241.185 251.905C242.174 252.131 243.21 251.973 243.484 251.55C243.763 251.13 244.363 249.994 244.217 249.95C244.07 249.906 243.66 249.462 244.313 249.258C244.968 249.06 246.795 248.494 246.855 248.475L246.827 248.317L246.705 247.661C247.104 246.941 247.931 245.85 248.537 245.244C249.141 244.632 252.794 241.887 254.568 239.915L254.997 239.557C255.331 239.28 256.149 239.324 256.435 239.043C256.727 238.763 256.536 238.242 256.753 237.864C256.83 237.735 257.632 237.584 257.874 237.693L258.487 237.972C259.099 238.437 259.991 238.391 260.475 237.869C260.951 237.347 262.092 236.002 262.026 235.944C261.96 235.889 261.343 235.987 260.796 236.292C260.251 236.594 258.851 236.989 258.894 236.508C258.942 236.022 261.289 234.63 262.726 234.046L262.754 232.513C262.761 231.928 264.343 230.482 264.678 230.522L266.553 230.773C266.949 229.679 268.067 228.086 269.033 227.232L268.897 226.846L268.359 225.362C269.676 225.404 271.089 224.855 271.498 224.143L271.904 223.508C272.463 222.647 273.908 222.003 274.425 221.143C274.839 220.452 276.758 221.677 276.009 220.062C275.875 219.767 277.122 218.962 277.135 218.487L277.183 217.23C278.337 217.02 279.545 216.452 279.86 215.973C280.176 215.495 281.425 214.345 281.919 214.496C282.417 214.649 283.494 212.499 284.344 211.406C285.188 210.314 287.471 207.392 287.731 207.39C287.992 207.39 288.928 207.021 288.689 206.551L288.642 206.164L288.611 205.903C288.786 205.564 289.482 205.481 290.161 205.727C290.843 205.971 291.557 203.705 292.45 203.186L292.008 202.21C291.731 201.602 293.828 202.809 293.488 201.127L293.246 199.922C294.579 200.203 295.913 200.336 296.206 200.222C296.502 200.108 297.42 199.355 297.058 199.037C296.702 198.716 296.417 197.617 297.195 197.28C297.973 196.937 298.948 194.284 299.895 193.06C300.843 191.838 304.663 189.101 304.317 188.473L304.586 188.143L305.46 187.09C306.682 186.084 308.163 184.566 308.751 183.712C309.336 182.862 312.209 181.418 312.235 180.941L312.1 180.933L310.773 180.851C311.319 180.159 312.464 178.999 313.319 178.275C314.174 177.551 316.095 175.246 316.55 175.205L316.961 175.065L317.627 174.85C318.323 174.342 318.637 173.946 318.332 173.97C318.026 174 317.547 173.834 318.086 173.535C318.626 173.23 320.231 172.303 320.083 171.407C319.927 170.509 322.304 168.421 322.491 168.571L322.654 168.795L322.839 169.047C322.885 169.179 323.109 168.993 323.339 168.628C323.569 168.263 324.263 167.155 324.267 167.153C324.267 167.153 324.249 166.559 324.648 165.952C325.045 165.343 326.466 163.405 327.058 163C327.647 162.595 327.803 160.888 328.02 160.56C328.232 160.231 330.198 158.694 331.079 157.692L332.103 157.233C333.445 156.635 332.871 155.587 332.985 155.597L335.967 155.812C335.913 154.087 336.801 151.529 337.938 150.129L339.085 148.861C339.894 147.973 340.199 146.444 342.302 146.694C342.55 146.725 343.385 145.89 343.655 145.398C344.628 143.65 346.001 142.113 347.826 140.772L347.996 140.646C348.861 140.961 349.55 140.733 349.527 140.141C349.504 139.552 351.235 137.387 351.946 136.643L353.141 136.751L353.189 136.756C353.401 136.392 353.128 135.757 352.591 135.344L353.598 135.272C354.941 135.175 355.758 134.797 355.718 133.865C355.658 132.46 356.593 131.625 358.142 131.307C359.964 130.929 358.32 129.606 359.793 129.181C360.767 128.897 361.706 128.406 362.637 127.957C362.766 127.895 362.731 127.556 362.787 127.344L363.142 126.009C364.621 125.254 366.993 124.424 368.417 124.164L367.805 122.77C367.767 122.687 368.389 122.276 368.749 122.091C369.691 121.615 371.181 121.483 370.686 120.167C370.655 120.082 371.566 119.609 372.061 119.35C372.76 118.98 373.934 118.891 373.457 117.895L373.394 117.76C373.57 117.509 374.564 116.382 375.601 115.256C376.638 114.127 381.215 112.299 381.709 111.682C382.207 111.063 385.292 109.264 387.1 108.662L388.176 107.734L389.289 106.776C390.441 106.63 391.826 106.19 392.365 105.797C392.91 105.398 395.571 104.031 396.857 103.286L398.175 103.803C398.384 103.884 398.973 103.499 399.385 103.334L401.005 102.682C402.751 102.636 405.343 102.614 406.768 102.631L408.004 102.92C409.503 103.265 410.504 103.782 410.794 105.069L410.885 105.494C411.494 105.803 412.274 106.2 412.615 106.372C412.963 106.548 414.488 109.006 414.833 109.309L415.22 109.513C416.105 109.993 417.046 110.415 417.935 110.886C418.365 111.117 418.715 112.253 418.73 112.763C418.748 113.358 418.022 114.205 419.326 114.416L419.697 114.475C419.788 115.285 419.625 115.9 419.33 115.844C419.038 115.793 418.204 115.973 418.055 116.352C417.907 116.734 418.23 117.855 418.615 118.816L418.713 119.774L418.803 120.642C418.351 121.538 417.581 122.98 417.094 123.843C416.604 124.708 417.175 126.988 416.624 127.433C416.074 127.881 416.014 130.674 415.172 132.54L414.9 134.272L414.508 136.785C414.012 139.561 413.764 142.191 413.949 142.626C414.134 143.063 412.668 144.031 412.861 144.399C413.059 144.762 411.296 147.539 410.576 149.785L411.386 151.618C411.691 152.303 410.604 152.662 410.546 152.896L410.202 154.303C410.169 155.831 410.58 157.188 411.115 157.325L410.191 157.854C409.953 157.989 409.519 158.238 409.54 158.29C410.252 160.172 409.119 162.254 408.895 164.235C408.831 164.762 409.141 165.274 409.418 165.725L409.95 166.591C411.247 166.058 413.113 165.063 414.091 164.387C415.073 163.703 418.619 162.072 419.746 162.214L420.307 160.822C420.582 160.14 421.453 159.501 422.051 158.838C422.159 158.718 424.101 157.235 424.197 157.259L424.909 157.463C425.5 157.029 426.095 155.949 426.233 155.061C426.366 154.172 429.45 153.981 429.604 153.729L429.553 153.567C429.124 152.29 431.091 151.972 431.33 152.076C433.021 152.803 433.547 151.275 434.403 150.686L435.168 150.159C435.605 149.279 435.91 148.382 435.841 148.168C435.774 147.953 435.45 147.386 435.523 147.101C435.595 146.813 436.153 145.965 436.649 145.841C437.144 145.715 438.822 144.907 439.295 144.789C439.77 144.674 440.982 144.003 440.607 143.592C440.231 143.179 439.634 141.785 440.222 141.545C440.813 141.304 442.242 140.49 442.302 140.182C442.362 139.874 443.066 139.445 443.735 139.903L444.734 138.578L445.18 137.99C445.842 137.414 447.239 136.138 448.283 135.151L447.748 134.034C447.681 133.895 448.105 133.394 448.382 133.284C448.655 133.176 449.094 133.296 449.365 133.418L449.887 133.646C450.47 133.997 451.168 133.746 451.434 133.087L451.748 132.577C451.906 132.308 452.527 132.026 452.507 131.864L452.46 131.572C452.335 131.267 452.463 131.01 452.743 130.996C453.021 130.987 453.806 130.581 453.435 130.109C453.064 129.64 452.571 128.38 453.579 128.898L454.071 128.763L454.568 128.623C454.991 127.971 456.353 125.778 457.596 123.755L458.97 122.001C459.232 121.67 459.768 121.776 459.897 122.205L459.942 122.36C459.717 122.71 460.024 122.796 460.627 122.549C461.224 122.305 462.737 121.436 462.673 121.147C462.607 120.862 462.702 119.897 463.061 119.751C463.416 119.606 464.475 118.761 464.363 118.303C464.252 117.847 464.365 116.409 464.879 116.199C465.394 115.989 467.139 114.706 467.465 113.877C467.791 113.048 469.295 110.887 469.58 110.806L469.848 110.778C470.374 110.721 471.196 110.836 471.373 110.638L472.007 109.941C472.486 109.084 473.234 107.339 473.669 106.066L476.362 104.279C476.586 104.128 476.903 103.74 476.847 103.681L475.426 102.154C477.1 100.715 479.063 99.4412 479.781 99.3274L480.377 99.3678C481.137 99.4194 481.69 99.855 482.586 98.9507L483.789 97.7413C483.648 96.8887 485.104 95.5701 487.03 94.809L487.506 93.0899C487.516 93.0514 488.48 93.1366 488.743 92.941L490.592 91.5559C490.027 89.8815 490.852 88.1398 492.433 87.6802L492.532 87.8443L492.981 88.5774C493.718 88.2387 494.929 87.2843 495.66 86.457L494.702 86.2118C493.389 85.8821 494.166 85.2749 494.555 84.7758L495.417 83.6651C496.487 82.4627 497.926 81.5601 498.61 81.659C499.3 81.7581 501.555 80.6202 500.856 80.7826C500.158 80.9449 498.486 81.0323 498.6 80.6458C498.716 80.2552 500.406 79.162 501.892 78.9173L501.929 77.3903C501.969 76.0608 503.667 76.3156 504.429 75.68L504.929 75.268C505.432 74.7067 506.069 74.4025 506.346 74.5916C506.627 74.7795 507.541 74.778 507.833 74.2175C508.132 73.6545 506.743 73.1319 507.55 72.9191C508.356 72.7064 508.539 70.7643 509.108 70.3996C509.68 70.0337 511.225 68.9431 511.284 68.8086L511.391 68.7369C512.66 67.9069 514.709 67.9552 515.294 66.3871L515.682 65.3596C515.912 64.2169 517.144 63.7169 518.415 64.2469L518.132 62.1199C518.013 61.2238 519.118 59.6861 521.091 59.1384C521.62 58.9888 522.118 58.3192 522.523 57.8419C523.038 57.2381 523.358 56.5437 523.913 55.9677L525.654 54.1512C527.328 54.5575 529.172 54.1224 529.748 53.1787L530.335 52.3501C530.461 52.1694 530.878 52.0527 531.177 51.9529L533.114 51.3067C533.132 50.3891 532.643 49.1305 532.022 48.5089L533.385 47.9805L534.082 47.7087C534.693 47.3238 535.409 46.7856 535.67 46.5152L535.629 46.362L535.417 45.5888C536.184 45.4017 536.683 45.6703 536.528 46.1839L536.699 46.2432C537.25 46.4306 537.941 46.4696 538.605 46.4411C538.704 46.4385 538.991 45.7577 539.122 45.389C539.255 45.0136 539.486 44.5476 539.339 44.2833C539.202 44.0339 538.065 44.0601 539.104 43.5575L540.16 43.0474C541.548 42.7293 542.591 42.184 542.481 41.8353C542.364 41.4891 542.215 40.328 542.413 40.1025L542.642 39.9994C543.46 39.6308 544.282 39.2638 545.128 38.9814L547.145 38.3056C547.333 37.454 547.893 36.6619 548.395 36.5449C548.899 36.424 550.246 36.0033 550.986 35.2949L551.943 35.9151L552.041 35.9791C552.976 35.3296 553.977 34.2281 554.265 33.534L554.742 33.1788L555.507 32.6113C556.586 32.2019 557.915 31.5871 558.457 31.243C559 30.895 559.886 31.9002 560.056 31.8435C560.227 31.7895 561.576 31.0686 562.767 30.45C563.958 29.8315 567.378 29.8961 566.674 30.1837C565.973 30.4701 565.528 31.6122 566.936 32.2088L568.228 30.4026C568.784 29.6278 571.614 29.8231 571.703 30.6436L571.84 31.9672C572.625 33.0764 574.189 34.3779 575.316 34.8626L576.263 35.3798C577.232 35.9069 578.219 36.4425 578.994 37.1244C579.578 37.6356 580.636 38.3025 578.695 39.1833C578.573 39.236 578.621 39.9567 578.819 40.2411C579.095 40.645 579.657 40.8913 579.958 41.288L580.08 41.4462C579.901 41.8056 579.601 42.0762 579.412 42.043C579.225 42.0125 578.493 42.3114 578.73 42.8571L578.855 43.2342L579.127 44.049C578.624 44.9694 577.746 46.468 577.178 47.3865C576.606 48.3037 576.07 51.0008 575.888 51.2266C575.706 51.4552 575.502 52.2249 575.297 52.7811C575.094 53.3427 573.674 54.8104 574.386 54.6365C575.097 54.4625 575.85 55.7457 574.616 57.8431L574.87 59.7172C574.967 60.4178 573.921 59.8244 573.758 59.9855L573.354 60.3867C573.088 60.9266 572.796 61.6792 572.703 62.057C572.607 62.4334 573.083 63.294 572.675 63.5991C572.274 63.9017 571.318 64.7801 571.645 64.7317C571.973 64.6794 573.254 65.1737 573.172 66.0323C573.09 66.8881 570.67 68.8808 571.209 69.6496L571.213 70.4384C571.213 70.8508 570.219 71.6002 569.519 71.952C568.567 72.4383 568.919 72.7923 568.857 73.3404L568.694 74.7959C568.21 76.4108 567.828 78.1098 567.845 78.5721C567.864 79.037 567.325 80.0884 567.007 79.7647C566.685 79.4396 564.561 80.4957 563.952 81.0848L564.555 81.3109L565.536 81.6848C564.925 82.0764 564.487 82.5889 564.564 82.8219L564.683 83.0066C565.021 83.5204 565.439 83.9922 565.731 84.5247C566.086 85.1737 566.128 85.5846 565.065 86.4723L563.571 87.7218C564.226 89.2558 564.805 90.8238 564.856 91.2095C564.9 91.5978 564.43 93.1503 563.993 94.0845C563.556 95.0186 562.596 97.4958 562.931 97.4597C563.264 97.4274 564.238 97.5022 563.772 97.7683C563.301 98.033 562.025 99.3352 562.16 99.9728L562.614 100.358L563.002 100.697C563.844 100.772 564.369 100.954 564.167 101.1C563.971 101.24 563.699 101.993 564.436 102.143C565.173 102.295 567.04 102.44 567.189 102.174C567.339 101.911 568.003 101.218 568.268 101.324C568.538 101.435 570.29 101.176 571.296 100.403C572.3 99.6309 574.708 97.3657 575.228 97.6856C575.749 98.0082 577.357 96.8006 577.166 96.7433C576.975 96.6887 577.154 95.8755 578.29 95.1567C579.429 94.4366 582.61 92.6997 582.587 93.0461C582.563 93.3964 582.934 94.2367 583.494 93.797C584.051 93.3586 585.252 92.2225 585.033 92.1578C584.808 92.0955 584.006 91.6731 584.525 91.5873C585.04 91.5 586.225 91.2964 586.448 91.2558C586.668 91.2098 587.877 90.6439 588.644 90.0818C589.413 89.5224 590.444 87.8384 589.683 87.6293C588.924 87.4229 590.797 86.2172 591.523 86.7363L592.725 86.4945L592.847 86.4698C593.017 86.5359 593.288 85.8961 593.454 85.0439C593.616 84.1969 596.573 82.4098 597.281 82.0515C597.983 81.6958 599.367 79.8108 599.716 79.3787C600.062 78.9478 602.229 78.9606 602.91 79.6239L604.027 78.2546L604.461 77.7248C605.636 77.1379 605.522 76.9292 604.213 77.2589L603.445 77.1697L603.06 77.1284C602.92 76.3759 603.314 75.5286 603.932 75.248L604.187 75.3137L606.337 75.8786C606.289 74.6255 607.173 73.849 608.3 74.1509L609.615 73.0314L610.506 72.2739C612.029 71.8219 613.397 71.3831 613.547 71.2938C613.698 71.2099 614.472 69.0264 614.932 68.3344L615.535 67.8144C615.747 67.6268 616.773 67.6177 616.862 67.7923L617.357 68.768C618.199 68.1973 619.434 67.0382 620.1 66.193C620.765 65.3452 622.606 63.2138 622.77 63.3264C622.935 63.4417 623.233 63.175 622.927 62.3899L623.72 61.4868C624.149 60.9995 623.236 60.0843 624.684 59.9279C625.081 59.8854 625.369 60.5993 625.744 60.9406L625.891 61.082C626.096 61.1651 626.38 60.3975 626.521 59.3791L626.925 58.4614L627.451 57.2641C628.985 57.5132 630.55 57.8284 630.926 57.9615L631.224 57.8683C631.954 57.6334 631.809 57.5159 631.473 57.0516L631.134 56.5792C631.473 55.7131 632.282 54.5796 632.938 54.0598C633.594 53.54 635.747 51.855 636.334 51.3159C636.919 50.7715 638.785 49.2854 639.291 49.378C639.794 49.4719 641.08 49.6488 641.147 49.5839C641.21 49.5202 641.201 49.1904 640.963 48.9943C640.729 48.797 640.567 47.9971 641.322 47.815C642.072 47.6315 644.086 46.9127 643.75 46.7193C643.409 46.5218 643.182 45.5119 643.801 44.7963L644.431 44.3346C644.766 44.0875 645.676 43.8763 645.822 44.0151C646.328 44.4828 646.048 44.9781 645.116 45.3049L644.942 45.3669C644.664 45.7889 645.691 46.0307 647.223 45.906L647.026 44.3551C646.964 43.8703 647.171 43.3102 647.331 42.7848L647.761 41.3593C649.177 41.0046 650.945 40.5913 651.693 40.4371L652.352 40.231L652.527 40.1784C652.698 39.8722 652.59 39.6584 652.285 39.7007C651.978 39.7443 651.068 39.6058 651.381 39.2354C651.692 38.869 652.847 38.0132 653.09 38.3455C653.334 38.6805 653.999 39.4168 654.102 39.3462C654.201 39.2742 654.574 38.2782 654.716 37.2879L656.405 37.792L656.636 37.8611C657.737 36.8984 657.852 36.1997 656.899 36.3083L656.392 36.2223C656.185 36.1872 656.141 35.4587 656.163 35.45C657.492 34.942 658.835 34.4691 660.182 34.0324C660.229 34.0163 660.347 34.3932 660.481 34.553L660.542 34.6255C660.785 34.6588 661.197 34.1631 661.462 33.5258C661.727 32.8885 663.147 31.0644 663.921 31.139L664.522 31.2463L665.17 31.3628C665.95 31.5671 666.722 31.3588 666.89 30.903C667.05 30.447 668.019 29.3366 668.757 29.2021L669.38 29.0203C669.437 29.0032 669.489 28.3868 669.351 28.1468L669.19 27.8727C668.822 27.6638 668.9 27.311 669.364 27.0929L669.659 27.133C670.341 27.2358 671.266 27.3933 671.425 26.689C671.772 25.1585 673.712 24.8074 674.647 23.7201L675.773 22.4099C676.302 23.2679 676.876 23.6132 677.046 23.1721C677.22 22.7325 678.225 21.519 678.611 22.1742L678.448 22.398C677.884 23.1605 678.223 23.4128 679.002 23.4128C679.477 23.4139 680.424 23.2196 680.452 23.1137L680.93 21.4413C682.73 20.4324 684.396 19.0622 684.634 18.3922L685.095 17.911L685.512 17.4728C686.252 17.1328 687.405 16.4825 688.077 16.0286C688.745 15.5732 691.249 14.6078 692.492 13.8892L693.631 14.5544C693.93 14.7255 694.998 14.6014 695.124 14.43L695.915 13.3293C697.199 13.1577 698.918 12.6352 699.734 12.1665C700.555 11.6993 703.88 11.9415 705.164 11.9114C706.447 11.8852 709.857 10.0333 710.263 10.0564L710.654 10.0792L713.501 10.2241C716.636 10.377 719.726 10.7275 720.36 11.0011C721.001 11.2777 722.745 12.3546 723.242 12.3816C723.742 12.4074 723.513 13.5781 723.52 13.6383C723.524 13.6932 723.909 14.9342 724.432 16.2765L725.276 17.2832C725.713 17.8037 726.658 18.0071 727.364 18.3642L728.07 18.7186C728.917 19.1569 729.367 19.978 729.075 20.5412L728.58 20.8786L727.767 21.4341C727.435 20.8992 726.863 20.5592 726.498 20.6799L726.384 20.8463C726.277 20.9968 726.602 21.362 726.523 21.4132L726.11 21.6888C725.597 21.9296 725.197 21.9733 725.222 21.7805C725.249 21.5931 724.736 21.3869 724.026 21.7557C723.313 22.1285 721.706 20.9672 721.005 21.0521C720.303 21.1342 718.455 20.1092 717.921 20.0184C717.388 19.9277 715.676 20.1449 715.405 20.3563C715.137 20.5665 714.132 20.9139 713.779 20.6266L713.392 20.4224C713.355 20.4027 712.932 20.8555 712.637 20.9889L712.178 21.1951C711.631 21.3429 710.13 21.6753 708.845 21.9322C707.561 22.1919 703.368 23.7689 702.205 24.3789C701.041 24.9928 697.764 26.8538 697.473 27.0766C697.175 27.302 695.685 27.9924 694.877 28.1931C694.071 28.3964 691.663 30.2174 690.276 30.5129L689.839 31.7873C689.811 31.868 689.628 31.9804 689.51 32.0065L687.876 32.406C686.09 32.9335 684.322 33.9138 683.938 34.5933C683.561 35.2702 680.332 37.5463 678.872 38.5644L677.606 39.5411C677.187 39.8633 675.934 38.8506 676.25 40.2899C676.468 41.2875 675.106 41.198 674.476 41.6158L673.792 42.0681C673.032 42.5516 671.832 42.9631 671.117 42.9809C670.4 42.9998 668.81 45.0727 668.258 45.5153C667.705 45.9551 665.108 47.7588 663.84 48.5727L662.788 49.3926C660.895 50.8713 658.293 51.842 657.332 54.0296L657.207 54.3171C656.445 54.5684 654.849 55.1572 653.659 55.621L653.206 56.7002L653.054 57.0616C652.481 57.4089 651.553 57.9105 650.989 58.1819C650.426 58.4494 649.279 59.9099 649.04 60.1743C648.805 60.4374 645.952 62.3235 643.384 63.9264L641.772 65.9892C641.682 66.1015 640.328 65.3851 640.566 66.7809L640.639 67.2233C639.628 67.9856 637.657 69.4235 636.254 70.4152C634.851 71.4069 630.75 74.3289 630.046 74.5845C629.346 74.8389 627.748 76.3323 626.902 77.0431C626.057 77.7565 623.754 79.9286 623.478 80.1893C623.196 80.4525 621.587 81.2636 620.63 81.7204C619.676 82.176 617.556 84.3237 616.707 84.6514C615.86 84.9751 613.085 88.1618 611.146 89.9329L608.371 89.715L608.212 89.7041C607.948 89.957 606.984 90.826 606.072 91.6364L605.668 92.5821C604.998 94.1532 602.531 94.1561 601.46 95.7428L600.656 96.9245C598.787 97.9554 596.445 99.3431 595.446 100.01L594.532 100.606L593.083 101.547C592.251 101.374 591.431 101.816 591.254 102.527C591.076 103.239 588.436 103.319 588.148 103.418L588.137 103.488C588.073 103.977 588.574 104.645 587.478 104.831L586.697 104.964C585.773 104.759 585.011 104.853 584.998 105.179C584.985 105.506 582.856 106.803 580.604 107.921L578.6 108.192C577.062 108.398 576.978 109.89 575.508 109.772L574.269 109.67C572.785 109.851 571.034 110.128 570.368 110.284C569.702 110.436 567.644 110.76 567.262 110.78C566.888 110.801 565.314 110.155 564.442 109.551L563.893 109.747L562.117 110.377C562.101 109.524 560.908 108.106 559.464 107.221L558.011 106.568L556.478 105.877C555.314 104.617 554.263 103.497 554.152 103.391C554.037 103.283 553.545 102.228 552.969 101.149L552.611 100.073L552.024 98.301C552.242 96.8323 552.532 95.0385 552.678 94.3206L551.838 94.5124C549.569 95.0359 550.19 94.0734 550.893 93.1532C551.945 91.7729 552.654 90.3149 553.605 88.9345C554.714 87.3288 553.845 86.3735 553.433 85.2224L553.388 85.105C553.033 85.0926 552.426 85.0065 552.039 84.9158C551.654 84.8211 552.909 83.4236 553.254 83.0434L553.375 82.6918L553.733 81.6353C554.097 80.2868 554.683 79.5088 555.036 79.9095L555.252 80.1237C555.555 80.4283 553.91 81.2826 555.418 81.1772C555.633 81.1618 556.018 80.5478 556.226 80.1891C556.403 79.887 556.438 79.5544 556.533 79.2353L556.978 77.7436C555.309 77.8045 554.359 77.6289 554.863 77.3598C555.367 77.0881 556.656 76.2186 556.194 76.2526C555.734 76.2893 554.983 76.0606 555.223 75.6948C555.463 75.3291 556.894 74.5277 556.672 73.9851C556.451 73.4425 556.102 71.5565 556.688 71.7394C557.277 71.9211 558.106 71.9132 557.668 71.4528C557.23 70.9923 558.098 69.1732 558.272 69.1966C558.449 69.2188 559.182 69.0548 559.122 68.7329C559.061 68.4149 558.555 67.6136 558.202 68.0096L557.949 68.1254C557.724 68.23 557.174 68.2056 557.176 68.1829L557.243 67.4562C557.397 66.669 557.844 65.1892 558.238 64.1684C558.627 63.1435 560.401 59.254 560.939 57.6326L560.972 56.1641L560.982 55.4198C561.237 54.5821 561.808 53.6341 562.245 53.3138C562.682 52.9936 562.954 52.0923 563.176 52.3827C563.401 52.6718 564.053 52.9219 564.123 52.2886C564.195 51.6579 562.901 50.6147 563.522 50.3328C564.146 50.0497 565.862 48.6183 566.31 47.9219L566.08 47.6567C565.24 46.674 565.315 48.1895 564.929 48.1709C564.623 48.1571 564.171 47.7403 564.252 47.6064L564.617 47.004C565.179 46.3775 566.133 45.5028 566.735 45.0683L567.17 44.6105C567.4 44.3686 567.529 43.7489 567.407 43.7135C566.831 43.5268 565.95 43.6441 565.57 43.3454L565.274 43.1105C565.446 42.4639 565.103 41.9994 564.512 42.0832L564.438 42.2267C563.847 43.3848 562.544 44.0616 561.619 44.9464C560.625 45.9 558.776 44.8883 558.458 46.6652C558.202 48.1021 556.157 48.0992 554.993 48.8359C554.552 49.1134 554.259 49.5858 553.973 49.9957C553.146 51.1741 552.007 51.9982 550.553 52.7683C549.265 53.4456 548.074 54.4765 547.172 55.5033L545.553 57.3486C543.458 59.2621 541.296 60.7401 540.75 60.629C540.206 60.5206 538.557 60.3939 538.813 60.6958C539.072 60.9992 539.681 61.8341 539.658 61.9603L539.481 62.0607L536.343 63.8429C534.149 66.5651 530.981 70.2241 529.296 71.9795L527.327 73.2278C526.387 73.8225 527.008 74.224 526.718 74.6605C526.468 75.0366 525.935 75.3423 525.506 75.6655C524.076 76.7472 522.495 77.7486 521.971 79.3103L521.907 79.4941C521.641 79.691 520.571 80.4396 519.531 81.157C518.488 81.8757 515.242 85.7741 513.892 87.604L512.199 88.8814L507.562 92.3746C503.691 96.815 499.59 101.472 498.45 102.724C497.309 103.981 493.595 107.712 493.219 108.507L492.599 108.896L491.053 109.861C490.154 111.23 489.115 112.911 488.743 113.601C488.371 114.292 485.032 116.045 483.808 117.204C482.59 118.359 479.804 122.649 479.199 123.539C478.591 124.43 475.51 126.686 475.04 127.145C474.567 127.603 472.391 130.596 470.899 132.666L468.947 134.124L467.792 134.987C467.469 135.868 466.798 136.945 466.297 137.383C465.797 137.82 464.536 139.308 464.344 139.572C464.156 139.838 463.201 140.587 462.716 141.106C462.231 141.625 460.207 143.205 459.196 144.08L458.516 145.004L457.167 146.836C455.405 148.743 453.779 150.528 453.558 150.801C453.331 151.076 451.506 152.259 450.313 152.951L449.4 153.708L448.579 154.384C447.871 155.274 446.615 156.653 445.791 157.452L445.046 158.182C444.204 158.998 442.758 159.894 442.676 160.63L442.544 161.777C441.607 162.096 440.01 163.041 438.997 163.877C437.983 164.71 433.534 168.419 431.314 170.236L428.989 171.254L426.513 172.338C424.174 173.828 419.809 176.089 416.809 177.361L414.036 177.262L413.165 177.231C412.768 177.553 411.879 177.79 411.185 177.762L410.812 177.593C409.837 177.156 409.338 178.368 409.025 178.238L407.871 177.758C406.751 177.053 405.416 176.007 404.906 175.431C404.396 174.856 401.662 174.407 401.305 174.348L401.294 174.217C401.165 172.745 399.593 172.455 398.406 171.78C397.283 171.139 396.715 169.983 395.677 169.244L394.192 168.188C393.434 166.576 392.36 164.095 391.804 162.672L392.314 161.305C392.924 159.667 392.558 158.386 392.419 156.934L392.3 155.698C393.162 154.099 394.592 152.806 395.472 152.825L395.559 152.005L395.635 151.272C395.354 150.542 394.938 149.321 394.712 148.55L395.632 147.862L395.953 147.624C396.664 147.318 396.749 146.915 396.13 146.727L395.695 146.712L395.189 146.689C394.531 146.784 394.666 146.512 395.494 146.089C396.325 145.665 397.194 143.864 396.736 143.994C396.274 144.123 395.282 143.864 395.739 143.066C396.196 142.269 395.369 139.841 395.256 139.084C395.144 138.327 396.94 136.312 396.55 135.926L396.694 135.666L397.041 135.02C397.467 134.279 396.998 133.463 395.992 133.212L397.561 132.575L399.053 131.966C398.897 131.217 399.138 130.328 399.586 129.99L399.533 129.87L399.326 129.407C398.933 128.969 398.749 128.351 398.924 128.037C399.101 127.719 399.297 126.729 398.863 126.349L399.17 125.707L399.574 124.862C399.943 123.927 399.685 122.454 398.998 121.585L400.756 120.817L401.975 120.285C402.187 119.411 402.322 118.439 402.282 118.122C402.234 117.804 399.412 118.626 396.13 120.845C392.853 123.065 383.911 130.697 382.375 132.196C380.836 133.694 375.149 137.66 374.04 138.321C372.929 138.979 371.164 142.339 370.334 143.219C369.505 144.103 366.298 146.924 365.3 147.7C364.301 148.473 362.089 151.203 361.784 151.523C361.482 151.841 359.383 153.202 357.984 154.133L357.579 155.539L357.429 156.066C356.594 156.653 351.991 160.51 347.194 164.642L344.142 169.113L343.462 170.109C342.444 171.176 341.011 172.445 340.272 172.926C339.54 173.408 337.918 175.834 337.428 176.427C336.937 177.018 335.288 179.043 334.863 179.595C334.435 180.147 333.054 181.788 332.808 182.043C332.559 182.299 331.205 183.378 330.454 183.952L329.346 185.825C329.051 186.326 328.539 186.822 328.015 187.228L326.538 188.379C325.563 189.876 323.235 192.462 321.371 194.127L320.269 195.943L320.023 196.346C319.593 196.755 318.766 197.713 318.185 198.479C317.608 199.244 314.732 202.201 313.734 203.537L312.567 204.6L311.271 205.775C310.075 207.151 308.312 209.187 307.361 210.297C306.407 211.407 303.054 214.493 302.782 215.007C302.506 215.52 301.755 216.806 302.834 217.112L300.671 217.879C300.018 218.107 299.586 218.958 298.973 219.469C298.265 220.061 297.356 220.53 296.738 221.16C296.17 221.738 296.045 222.772 295.433 223.066C293.271 224.097 292.702 225.872 291.284 227.229C288.52 229.876 285.902 232.608 283.282 235.334L282.013 236.655C280.701 238.149 277.007 241.502 273.801 244.115L271.735 246.974L271.085 247.876C269.963 248.218 268.07 249.365 266.874 250.427C265.68 251.491 262.022 254.443 261.034 254.421L260.863 255.586C260.725 256.569 259.364 256.693 258.638 257.267L257.909 257.845C257.258 258.596 253.49 261.863 249.537 265.105L245.424 267.651L244.48 268.235C243.409 268.823 242.115 269.566 241.603 269.885C241.091 270.208 238.108 271.967 236.041 273.022C233.972 274.072 227.446 276.683 226.345 277.041C225.249 277.4 221.272 277.575 219.948 277.631L219.321 277.188L216.061 274.894C211.993 272.832 207.611 270.219 206.327 269.08L205.185 268.022L204.014 266.941C203.878 265.4 203.419 263.811 202.995 263.411C202.566 263.01 201.883 261.03 201.615 260.198C201.347 259.36 201.086 256.855 200.516 256.622C199.949 256.391 201.001 254.049 201.11 253.161L201.1 252.34C201.091 251.408 200.903 250.509 200.98 249.57L201.046 248.743C201.328 247.806 201.556 246.201 201.554 245.182L201.71 244.242C201.798 243.715 202.146 243.132 202.528 242.623C203.212 241.708 203.035 240.977 202.995 240.083C202.91 238.379 203.279 236.544 203.814 234.766C204.143 233.665 205.179 232.578 205.8 231.464C206.258 230.644 204.722 229.728 206.751 228.878C206.968 228.786 206.769 227.68 206.715 227.056L206.702 226.92C206.509 226.822 206.873 225.71 207.512 224.457C208.151 223.197 210.065 219.16 210.112 218.217C210.16 217.275 212.726 213.865 213.121 212.356L213.235 210.999C213.272 210.581 213.064 210.002 213.335 209.781C215.159 208.308 214.619 206.819 214.905 205.323L214.92 205.238Z" fill="#F2EEFE"/>
</g>
<defs>
<filter id="filter0_f_1531_37018" x="0.817383" y="0.0566406" width="738.347" height="335.479" filterUnits="userSpaceOnUse" color-interpolation-filters="sRGB">
<feFlood flood-opacity="0" result="BackgroundImageFix"/>
<feBlend mode="normal" in="SourceGraphic" in2="BackgroundImageFix" result="shape"/>
<feGaussianBlur stdDeviation="5" result="effect1_foregroundBlur_1531_37018"/>
</filter>
</defs>
</svg>
