<svg width="20" height="20" viewBox="0 0 20 20" fill="none" xmlns="http://www.w3.org/2000/svg">
<path fill-rule="evenodd" clip-rule="evenodd" d="M18.0952 4.28571C18.0952 5.60068 17.0292 6.66667 15.7143 6.66667C14.3993 6.66667 13.3333 5.60068 13.3333 4.28571C13.3333 2.97075 14.3993 1.90476 15.7143 1.90476C17.0292 1.90476 18.0952 2.97075 18.0952 4.28571ZM20 4.28571C20 6.65265 18.0812 8.57143 15.7143 8.57143C13.3474 8.57143 11.4286 6.65265 11.4286 4.28571C11.4286 1.91878 13.3474 0 15.7143 0C18.0812 0 20 1.91878 20 4.28571ZM1.90476 5.71429C1.90476 4.13633 3.18395 2.85714 4.7619 2.85714H9.52381C10.0498 2.85714 10.4762 2.43075 10.4762 1.90476C10.4762 1.37878 10.0498 0.952381 9.52381 0.952381H4.7619C2.13198 0.952381 0 3.08436 0 5.71429V15.2381C0 17.868 2.13198 20 4.7619 20H14.2857C16.9156 20 19.0476 17.868 19.0476 15.2381V10.4762C19.0476 9.9502 18.6212 9.52381 18.0952 9.52381C17.5693 9.52381 17.1429 9.9502 17.1429 10.4762V15.2381C17.1429 16.8161 15.8637 18.0952 14.2857 18.0952H4.7619C3.18395 18.0952 1.90476 16.8161 1.90476 15.2381V5.71429ZM4.7619 8.57143C4.7619 8.04544 5.1883 7.61905 5.71429 7.61905H8.57143C9.09741 7.61905 9.52381 8.04544 9.52381 8.57143C9.52381 9.09741 9.09741 9.52381 8.57143 9.52381H5.71429C5.1883 9.52381 4.7619 9.09741 4.7619 8.57143ZM5.7141 13.6191C5.18811 13.6191 4.76172 14.0455 4.76172 14.5715C4.76172 15.0975 5.18811 15.5239 5.7141 15.5239H13.5712C14.0972 15.5239 14.5236 15.0975 14.5236 14.5715C14.5236 14.0455 14.0972 13.6191 13.5712 13.6191H5.7141Z" fill="#AD54F2"/>
</svg>
