<svg width="30" height="30" viewBox="0 0 30 30" fill="none" xmlns="http://www.w3.org/2000/svg">
<rect width="30" height="30" fill="#FAFAFA"/>
<path d="M7.61124 3.56055H22.3879C24.6256 3.56055 26.4396 5.42105 26.4396 7.71609V22.285C26.4396 24.58 24.6256 26.4405 22.3879 26.4405H7.61124C5.37357 26.4405 3.55957 24.58 3.55957 22.285V7.71609C3.55957 5.42105 5.37357 3.56055 7.61124 3.56055Z" fill="#470137"/>
<path d="M15.5875 9.57605L12.7326 14.4089L15.787 19.5408C15.8066 19.5767 15.8121 19.619 15.8024 19.6589C15.7921 19.6958 15.7564 19.6726 15.695 19.6829H13.5155C13.3619 19.6829 13.2545 19.6774 13.1931 19.5723C12.9883 19.1631 12.7836 18.7564 12.5792 18.3523C12.3744 17.9484 12.1569 17.5365 11.9269 17.1166C11.6967 16.697 11.469 16.2719 11.2438 15.8414H11.2285C11.0237 16.2613 10.8113 16.6811 10.5915 17.1008C10.3713 17.5207 10.1539 17.9378 9.93918 18.3523C9.72429 18.767 9.5043 19.1789 9.27921 19.5881C9.23819 19.6825 9.16647 19.6922 9.06427 19.6922H6.96151C6.92071 19.6922 6.8977 19.7088 6.89243 19.6667C6.88666 19.6283 6.89484 19.5892 6.91548 19.5566L9.87774 14.5663L6.99221 9.56028C6.96151 9.51848 6.95642 9.48438 6.97684 9.45798C6.99981 9.43076 7.03395 9.41618 7.06898 9.41861H9.2331C9.28028 9.41595 9.32747 9.42402 9.37127 9.44226C9.40795 9.46357 9.43946 9.49318 9.46337 9.52884C9.64756 9.94871 9.85223 10.3685 10.0773 10.7882C10.3023 11.2081 10.5299 11.6226 10.7603 12.0319C10.9906 12.4411 11.2029 12.8557 11.3973 13.2755H11.4127C11.6172 12.8453 11.8245 12.4255 12.0343 12.0161C12.244 11.6069 12.4588 11.1949 12.6789 10.7804C12.8989 10.3659 13.1112 9.95398 13.316 9.5446C13.3277 9.50574 13.3488 9.47059 13.3774 9.44231C13.4152 9.4226 13.4578 9.4144 13.5001 9.41866H15.5108C15.558 9.40674 15.6056 9.43626 15.6173 9.48461C15.6253 9.51839 15.6138 9.554 15.5875 9.57605Z" fill="#FF61F6"/>
<path d="M19.9924 19.8879C19.286 19.8989 18.586 19.7484 17.9434 19.4471C17.3447 19.163 16.8443 18.6991 16.5083 18.1169C16.1603 17.5241 15.9864 16.7816 15.9865 15.8894C15.9807 15.1669 16.1607 14.4556 16.5083 13.8271C16.8664 13.187 17.393 12.6632 18.0278 12.3158C18.6928 11.938 19.4961 11.7491 20.4376 11.7491C20.4887 11.7491 20.5551 11.7517 20.6371 11.757C20.7189 11.7624 20.8161 11.7703 20.9287 11.7806V8.67939C20.9287 8.6061 20.9595 8.56921 21.0209 8.56921H22.9548C22.9993 8.5627 23.0405 8.59441 23.0469 8.64006C23.0479 8.6479 23.0479 8.65583 23.0469 8.66367V17.9673C23.0469 18.1459 23.0545 18.3401 23.0699 18.5498C23.0852 18.7599 23.098 18.9488 23.1083 19.1165C23.1121 19.1834 23.0755 19.246 23.0161 19.274C22.5172 19.4874 21.9975 19.6457 21.4659 19.7462C20.9798 19.8383 20.4867 19.8856 19.9924 19.8879ZM20.9287 17.9359V13.6383C20.8457 13.6152 20.761 13.5994 20.6754 13.591C20.5709 13.5803 20.4659 13.575 20.3608 13.5753C19.9883 13.5715 19.6202 13.6578 19.2864 13.8271C18.9612 13.9929 18.6836 14.2424 18.4806 14.5513C18.2707 14.8661 18.1659 15.2807 18.1659 15.7949C18.1584 16.1381 18.2131 16.4797 18.327 16.8024C18.4198 17.0625 18.5664 17.2988 18.7568 17.4951C18.9391 17.6757 19.1598 17.8104 19.4014 17.8886C19.6567 17.9734 19.9236 18.0159 20.1919 18.0145C20.3351 18.0145 20.4681 18.0093 20.5909 17.9988C20.7054 17.99 20.8186 17.9689 20.9287 17.9359Z" fill="#FF61F6"/>
</svg>
