<svg width="44" height="44" viewBox="0 0 44 44" fill="none" xmlns="http://www.w3.org/2000/svg">
<rect width="44" height="44" fill="#CCE0A5" fill-opacity="0.1"/>
<path d="M15.1804 11.4395H28.8205C30.886 11.4395 32.5605 13.1568 32.5605 15.2753V28.7236C32.5605 30.8421 30.886 32.5595 28.8205 32.5595H15.1804C13.1149 32.5595 11.4404 30.8421 11.4404 28.7236V15.2753C11.4404 13.1568 13.1149 11.4395 15.1804 11.4395Z" fill="#470137"/>
<path d="M22.5435 16.9934L19.9082 21.4545L22.7277 26.1917C22.7457 26.2248 22.7508 26.2638 22.7419 26.3007C22.7323 26.3347 22.6994 26.3133 22.6427 26.3229H20.6309C20.4891 26.3229 20.39 26.3177 20.3333 26.2208C20.1443 25.843 19.9553 25.4676 19.7666 25.0946C19.5775 24.7218 19.3768 24.3415 19.1645 23.9539C18.952 23.5666 18.7418 23.1742 18.534 22.7768H18.5198C18.3308 23.1644 18.1347 23.5519 17.9318 23.9393C17.7286 24.3269 17.5279 24.712 17.3297 25.0946C17.1313 25.4774 16.9282 25.8576 16.7205 26.2353C16.6826 26.3225 16.6164 26.3314 16.5221 26.3314H14.5811C14.5434 26.3314 14.5222 26.3467 14.5173 26.3079C14.512 26.2725 14.5195 26.2363 14.5386 26.2062L17.273 21.5998L14.6094 16.9789C14.5811 16.9403 14.5764 16.9088 14.5952 16.8844C14.6164 16.8593 14.6479 16.8459 14.6803 16.8481H16.6779C16.7215 16.8456 16.765 16.8531 16.8054 16.8699C16.8393 16.8896 16.8684 16.9169 16.8905 16.9498C17.0605 17.3374 17.2494 17.7249 17.4572 18.1123C17.6649 18.4999 17.875 18.8826 18.0877 19.2603C18.3002 19.6381 18.4962 20.0208 18.6757 20.4083H18.6899C18.8787 20.0112 19.0699 19.6237 19.2637 19.2458C19.4572 18.868 19.6555 18.4878 19.8587 18.1051C20.0617 17.7225 20.2577 17.3423 20.4467 16.9644C20.4575 16.9285 20.4771 16.8961 20.5034 16.87C20.5384 16.8518 20.5777 16.8442 20.6167 16.8481H22.4727C22.5162 16.8371 22.5603 16.8644 22.571 16.909C22.5784 16.9402 22.5678 16.9731 22.5435 16.9934Z" fill="#FF61F6"/>
<path d="M26.61 26.5113C25.9579 26.5215 25.3118 26.3825 24.7186 26.1044C24.166 25.8421 23.7041 25.4139 23.3939 24.8765C23.0727 24.3293 22.9122 23.6439 22.9122 22.8203C22.9069 22.1534 23.0731 21.4968 23.3939 20.9167C23.7245 20.3259 24.2106 19.8424 24.7966 19.5217C25.4104 19.173 26.1519 18.9986 27.021 18.9986C27.0681 18.9986 27.1295 19.001 27.2051 19.0059C27.2806 19.0109 27.3704 19.0181 27.4743 19.0277V16.165C27.4743 16.0973 27.5027 16.0633 27.5594 16.0633H29.3445C29.3856 16.0573 29.4237 16.0866 29.4295 16.1287C29.4305 16.1359 29.4305 16.1432 29.4295 16.1505V24.7385C29.4295 24.9033 29.4366 25.0826 29.4508 25.2762C29.465 25.47 29.4768 25.6444 29.4862 25.7993C29.4897 25.861 29.456 25.9187 29.4011 25.9446C28.9406 26.1416 28.4609 26.2877 27.9702 26.3805C27.5215 26.4655 27.0663 26.5092 26.61 26.5113ZM27.4743 24.7095V20.7424C27.3977 20.7211 27.3195 20.7065 27.2405 20.6988C27.144 20.6889 27.0471 20.684 26.95 20.6843C26.6062 20.6808 26.2665 20.7604 25.9583 20.9168C25.6581 21.0698 25.4019 21.3001 25.2145 21.5852C25.0208 21.8758 24.924 22.2585 24.924 22.7332C24.9171 23.0499 24.9676 23.3653 25.0728 23.6632C25.1584 23.9032 25.2937 24.1214 25.4695 24.3026C25.6378 24.4693 25.8414 24.5936 26.0645 24.6658C26.3002 24.7441 26.5465 24.7833 26.7942 24.7821C26.9263 24.7821 27.0491 24.7772 27.1625 24.7675C27.2682 24.7594 27.3726 24.7399 27.4743 24.7095Z" fill="#FF61F6"/>
</svg>
